<svg xmlns="http://www.w3.org/2000/svg" viewBox="0 0 88 88"><defs><style>.cls-1{fill:#222064;}</style></defs><title>certificate3</title><g id="Layer_2" data-name="Layer 2"><g id="Layer_1-2" data-name="Layer 1"><path class="cls-1" d="M15.81,0A10.32,10.32,0,0,0,13.53.3,16.23,16.23,0,0,0,5.69,5.2a17.58,17.58,0,0,0-4.47,8.28,9.92,9.92,0,0,0,2.31,8.87c7.29,6.63,14,14.31,20.38,20.34a1.47,1.47,0,0,0,.94.32A1.82,1.82,0,0,0,26,42.73c7.28-6.91,14.34-14.24,20.44-20.38a9.89,9.89,0,0,0,2.31-8.87A17.44,17.44,0,0,0,44.31,5.2,16.41,16.41,0,0,0,36.44.29,9.4,9.4,0,0,0,27.6,2.54c-.87.88-1.73,1.76-2.6,2.63L22.38,2.55A9.18,9.18,0,0,0,15.81,0Zm.1,4a4.74,4.74,0,0,1,1.31.1A5,5,0,0,1,19.6,5.42l4,4a2.08,2.08,0,0,0,2.81,0l4-4A5,5,0,0,1,35.5,4.2,12.76,12.76,0,0,1,41.38,8a13.94,13.94,0,0,1,3.47,6.31,5.67,5.67,0,0,1-1.29,5.31C37.41,25.79,31.19,32,25,38.16L6.47,19.64a5.68,5.68,0,0,1-1.31-5.38A13.69,13.69,0,0,1,8.6,8,12.82,12.82,0,0,1,14.5,4.2,8.21,8.21,0,0,1,15.91,4ZM75,45a2.5,2.5,0,0,0-2,1,3.73,3.73,0,0,0-.62,1.09A3.67,3.67,0,0,0,72,49.13l.06.88H52.78c-3.65.38-7.53,2.62-11.68,5.12s-8.44,5.34-12,7.06a12.35,12.35,0,0,0-5.53,5.25,9,9,0,0,0-1,4.56H11a13.26,13.26,0,0,0-7.5,2.1A7.5,7.5,0,0,0,0,79.94a7.11,7.11,0,0,0,3.44,6A13.59,13.59,0,0,0,11,88H31a9.77,9.77,0,0,0,2.19-.28,38.19,38.19,0,0,0,4.38-1.5C41.76,84.6,49.4,81.31,63.38,75H73.91L74,76.13a6.1,6.1,0,0,0,.47,2.09,3,3,0,0,0,.81,1.12A2.77,2.77,0,0,0,77,80h8a3,3,0,0,0,2.53-1.75A5,5,0,0,0,88,76V55a2,2,0,1,0-4,0V76H78c-.7-8.91-1.36-18-2-27h9a2,2,0,1,0,0-4ZM53.13,54H72.38l1.25,17H63a1.86,1.86,0,0,0-.81.16c-14.42,6.52-22,9.76-26,11.34a31.24,31.24,0,0,1-3.91,1.31A4.45,4.45,0,0,1,31,84H11a9.82,9.82,0,0,1-5.34-1.44A3,3,0,0,1,4,80.06a3.39,3.39,0,0,1,1.75-2.65A9.44,9.44,0,0,1,11,76H24a7.29,7.29,0,0,0,5.22,2.38,17.24,17.24,0,0,0,7.56-1.57l14-6a2,2,0,1,0-1.56-3.66l-14,6a14,14,0,0,1-5.78,1.22c-1.36-.08-2.08-.4-2.46-1a3,3,0,0,1-.36-.91,4.37,4.37,0,0,1,.51-3.18,8.58,8.58,0,0,1,3.75-3.53c3.91-1.92,8.23-4.78,12.28-7.22,3.27-1.44,6.49-4.06,10-4.56Z"/></g></g></svg>