<?xml version="1.0" encoding="UTF-8"?>
<svg width="50px" height="50px" viewBox="0 0 50 50" version="1.1" xmlns="http://www.w3.org/2000/svg" xmlns:xlink="http://www.w3.org/1999/xlink">
    <!-- Generator: Sketch 51.1 (57501) - http://www.bohemiancoding.com/sketch -->
    <title>icons/choice_section</title>
    <desc>Created with Sketch.</desc>
    <defs>
        <path d="M22.6678059,0 L22.1432946,0 L20.9971401,0.175162033 L21.2108299,1.79054523 L22.3181317,1.63484564 L22.7455113,1.63484564 L22.6678059,0 Z M26.0479904,0.116774689 L25.8343005,1.73215788 L26.5725017,1.73215788 L27.368982,1.94624481 L27.7186562,0.350324066 L26.8638969,0.233549377 L26.0479904,0.116774689 Z M17.6558083,1.0509722 L16.3542431,1.5764583 L16.179406,1.5764583 L16.9176072,3.01667946 L17.0730179,3.01667946 L18.3551569,2.49119336 L17.6558083,1.0509722 Z M30.8851508,1.45968361 L30.2635077,2.95829211 L30.4383448,2.95829211 L31.6622047,3.58109045 L32.3809796,2.14086929 L31.2542514,1.5764583 L30.8851508,1.45968361 Z M23.7556814,3.05560435 C15.7638826,3.04477119 9.26756047,9.50966038 9.22477364,17.5162033 C9.22477364,21.8952541 11.4393772,24.8146214 13.4791437,27.8702257 C14.3955199,29.182703 15.2012575,30.5693242 15.8880107,32.0157272 L15.1109569,33.3197112 L16.4513748,33.9814344 L16.4513748,33.8841222 C16.9919897,35.629432 17.2606421,37.4478467 17.2478551,39.2752203 L17.2478551,45.8535278 C17.2477912,46.0685757 17.3343673,46.2745461 17.4879646,46.424765 C17.6415619,46.5749839 17.8491765,46.6567332 18.0637616,46.6514881 L29.3116167,46.6514881 C29.5262019,46.6567332 29.7338165,46.5749839 29.8874138,46.424765 C30.0410111,46.2745461 30.1275871,46.0685757 30.1275233,45.8535278 L30.1275233,39.3725325 C30.1103245,37.5021307 30.3990674,35.6415375 30.9822826,33.8646597 L30.9822826,34.0398218 L31.3902359,33.8451973 L31.0988406,33.2613238 C31.8608411,31.3546073 32.845487,29.5449796 34.0322191,27.8702257 C36.0719855,24.8146214 38.2865891,21.8952541 38.2865891,17.5162033 C38.2544706,9.51279928 31.7637236,3.04481116 23.7751077,3.05560435 L23.7556814,3.05560435 Z M13.2266012,3.44485332 L12.5661054,3.89248962 L11.983315,4.39851327 L13.0517641,5.60518506 L13.6151281,5.11862386 L14.2561976,4.63206265 L13.2266012,3.44485332 Z M35.1395209,4.14550145 L34.0710718,5.37163568 L34.867552,6.07228381 L35.2172263,6.42260788 L36.3828071,5.29378589 L36.0137065,4.92399937 L35.1395209,4.14550145 Z M23.7751077,4.67098755 C27.1892198,4.65547133 30.46937,6.00070956 32.8926295,8.41021842 C35.3158889,10.8197273 36.6833491,14.0957269 36.6936287,17.5162033 C36.6936287,21.4086929 34.7509939,23.8804238 32.7112275,26.9749531 C30.244894,30.3508509 28.8198773,34.3767304 28.6122682,38.5551097 L24.571588,38.5551097 L24.571588,29.7191583 C24.5768233,29.5041743 24.4952256,29.2961739 24.3452854,29.1422912 C24.1953452,28.9884084 23.9897567,28.9016715 23.7751077,28.9017355 C23.5605226,28.8964904 23.352908,28.9782397 23.1993107,29.1284586 C23.0457134,29.2786774 22.9591373,29.4846479 22.9592011,29.6996958 L22.9592011,38.5356473 L18.9379473,38.5356473 C18.7179294,34.3565813 17.2867604,30.3323925 14.8195617,26.9554906 C12.7409425,23.8609614 10.9342922,21.3308431 10.9342922,17.4967409 C10.9663337,10.4114253 16.7028701,4.68161783 23.7751077,4.67098755 Z M9.65215328,6.96755643 L9.47731616,7.16218091 L8.71968861,8.2910029 L10.0601066,9.18627551 L10.8177341,8.09637842 L10.9537185,7.94067883 L9.65215328,6.96755643 Z M22.1432946,7.90175394 C21.9286456,7.90168996 21.7230571,7.98842691 21.5731169,8.14230965 C21.4231767,8.29619239 21.341579,8.50419282 21.3468143,8.71917676 L21.3468143,10.0036983 C20.917073,10.1318265 20.5007064,10.3012898 20.1035281,10.509722 L19.1904898,9.61444937 C19.046804,9.45435956 18.8420196,9.36293245 18.6271257,9.36293245 C18.4122319,9.36293245 18.2074474,9.45435956 18.0637616,9.61444937 L15.7131736,11.8915558 C15.3996493,12.2098756 15.3996493,12.7215205 15.7131736,13.0398402 L16.6067856,13.9545753 C16.4035795,14.3547225 16.2346124,14.7714146 16.1017006,15.200172 L14.8778407,15.200172 C14.4379568,15.200172 14.0813605,15.557431 14.0813605,15.9981324 L14.0813605,19.2288987 C14.0761251,19.4438827 14.1577228,19.6518831 14.307663,19.8057659 C14.4576033,19.9596486 14.6631917,20.0463855 14.8778407,20.0463216 L16.1599796,20.0463216 C16.296308,20.4738468 16.4651649,20.8902669 16.6650646,21.2919182 L15.7131736,22.2066533 C15.5576657,22.3570299 15.4698328,22.5642643 15.4698328,22.7807955 C15.4698328,22.9973268 15.5576657,23.2045612 15.7131736,23.3549377 L18.0054826,25.6515066 C18.1548652,25.8012559 18.3575249,25.8853917 18.5688467,25.8853917 C18.7801685,25.8853917 18.9828281,25.8012559 19.1322107,25.6515066 L20.0452491,24.756234 C20.4637786,24.9726375 20.8990442,25.1548776 21.3468143,25.3011826 L21.3468143,26.5857041 C21.3468143,27.0264055 21.7034107,27.3836645 22.1432946,27.3836645 L25.4263472,27.3836645 C25.8662311,27.3836645 26.2228275,27.0264055 26.2228275,26.5857041 L26.2228275,25.3011826 C26.65464,25.1612288 27.0765074,24.9921683 27.4855401,24.7951589 L28.379152,25.6904315 C28.6968814,26.0045385 29.2075772,26.0045385 29.5253065,25.6904315 L31.7593365,23.3549377 C31.908808,23.2052775 31.9927877,23.0022412 31.9927877,22.7905267 C31.9927877,22.5788123 31.908808,22.375776 31.7593365,22.2261158 L30.8657245,21.3113807 C31.0625477,20.9083442 31.231312,20.4921523 31.3708095,20.065784 L32.6529484,20.065784 C33.1035612,20.065784 33.468855,19.6998113 33.468855,19.2483612 L33.468855,15.9981324 C33.4689189,15.7830845 33.3823428,15.577114 33.2287455,15.4268951 C33.0751482,15.2766762 32.8675336,15.1949269 32.6529484,15.200172 L31.3708095,15.200172 C31.243069,14.7633245 31.0739381,14.3397113 30.8657245,13.9351129 L31.7593365,13.0398402 C32.0728608,12.7215205 32.0728608,12.2098756 31.7593365,11.8915558 L29.4864538,9.61444937 C29.3392608,9.45341133 29.1313282,9.36170779 28.9133766,9.36170779 C28.6954249,9.36170779 28.4874924,9.45341133 28.3402993,9.61444937 L27.368982,10.509722 C26.9647829,10.3111956 26.5496901,10.1357529 26.1256958,9.98423589 L26.1256958,8.71917676 C26.1387992,8.30646019 25.8354558,7.95190195 25.4263472,7.90175394 L22.1432946,7.90175394 Z M38.5779843,7.90175394 L37.2375664,8.79702655 L37.5289616,9.22520041 L38.0340466,10.1399355 L39.4327436,9.3419751 L38.9082322,8.38831514 L38.5779843,7.90175394 Z M23.0369065,9.49767468 L24.6492934,9.49767468 L24.6492934,10.509722 C24.6562899,10.8804385 24.9114685,11.2000046 25.2709365,11.2882199 C25.9595803,11.4595421 26.6157339,11.7422125 27.2135712,12.1251052 C27.5362942,12.3268647 27.9553615,12.2784209 28.2237413,12.0083305 L28.9230898,11.3076824 L30.0692442,12.4559668 L29.3116167,13.1760774 C29.0451508,13.4385738 28.9966759,13.8513761 29.1950586,14.1686622 C29.5726282,14.76772 29.8483429,15.4254036 30.0109652,16.114907 C30.0994086,16.4857827 30.4269088,16.7498703 30.8074454,16.7571678 L31.7981891,16.7571678 L31.7981891,18.372551 L30.8074454,18.372551 C30.4349252,18.372551 30.1121643,18.6312396 30.0303915,18.9953494 C29.8593871,19.6852729 29.5772411,20.3426459 29.1950586,20.9415942 C28.9936734,21.2649169 29.0420273,21.684763 29.3116167,21.9536415 L30.0109652,22.6542896 L28.8648107,23.802574 L28.1654622,23.1019259 C27.9034527,22.8349648 27.4914161,22.7863998 27.1747185,22.9851512 C26.5767719,23.3634225 25.9203082,23.6396496 25.2320838,23.802574 C24.8579173,23.8848118 24.5912367,24.2167579 24.5910143,24.6005344 L24.5910143,25.5931193 L22.9592011,25.5931193 L22.9592011,24.7173091 C22.9610671,24.3393174 22.704004,24.0093432 22.337558,23.9193487 C21.6472209,23.7629774 20.9896785,23.4862963 20.3949233,23.1019259 C20.076576,22.8950981 19.6579308,22.9354272 19.3847533,23.1992382 L18.6854048,23.9193487 L17.5392503,22.7710643 L18.2385988,22.0704162 C18.5081882,21.8015377 18.5565421,21.3816916 18.3551569,21.0583689 C17.9746292,20.46086 17.6986977,19.8026592 17.5392503,19.1121241 C17.4559744,18.7407956 17.1225374,18.4800685 16.74277,18.4893257 L15.7131736,18.4893257 L15.7131736,16.8155552 L16.684491,16.8155552 C17.0626106,16.8016808 17.3866315,16.5403989 17.4809712,16.1732944 C17.6435935,15.483791 17.9193082,14.8261074 18.2968778,14.2270496 C18.5031196,13.9115765 18.4540101,13.4933703 18.1803197,13.2344647 L17.4809712,12.5338166 L18.6271257,11.3855321 L19.3264742,12.0861803 C19.5917434,12.3463936 19.9989128,12.3943849 20.3172179,12.202955 C20.9175318,11.8247639 21.5729113,11.542427 22.2598526,11.3660697 C22.6193206,11.2778544 22.8744992,10.9582883 22.8814958,10.5875718 L23.0369065,9.49767468 Z M7.16558083,11.424457 L6.75762754,12.5922039 L6.75762754,12.9814529 L8.33116167,13.3707019 L8.33116167,13.0593027 L8.73911496,11.9304807 L7.16558083,11.424457 Z M40.7537352,12.4754292 L39.3550382,12.9619904 L39.2190538,12.9619904 L39.568728,14.2659745 L41.1034095,14.0129626 L41.1034095,14.0324251 L40.7343089,12.5922039 L40.7343089,12.4754292 L40.7537352,12.4754292 Z M23.7751077,13.6237137 C21.5435017,13.6237137 19.7344275,15.4361497 19.7344275,17.6719029 C19.7344275,19.9076561 21.5435017,21.7200921 23.7751077,21.7200921 C26.0067138,21.7200921 27.815788,19.9076561 27.815788,17.6719029 C27.815788,15.4361497 26.0067138,13.6237137 23.7751077,13.6237137 Z M23.7751077,15.2585593 C24.7642241,15.2590668 25.6541856,15.8605798 26.0250281,16.7792502 C26.3958705,17.6979206 26.1734735,18.7501332 25.4627839,19.4393592 C24.7520943,20.1285851 23.6951582,20.3170684 22.7907333,19.9158657 C21.8863084,19.5146629 21.3151627,18.6039627 21.3468143,17.6135155 C21.3574828,16.2775206 22.4415483,15.2001292 23.7751077,15.200172 L23.7751077,15.2585593 Z M6,16.3484564 L6,17.1853417 L6,18.0416894 L7.63181317,18.0416894 L7.63181317,17.3021164 L7.63181317,16.4652311 L6,16.3484564 Z M39.9378286,17.5162033 L39.9378286,18.6061004 L39.9378286,19.0537367 L41.5502155,19.2094363 L41.5502155,18.7228751 L41.5502155,17.5162033 L39.9378286,17.5162033 Z M7.94263472,21.0972938 L6.3691006,21.4086929 L6.3691006,21.7395545 L6.71877485,22.9851512 L8.27288263,22.5569774 L7.94263472,21.4086929 L7.94263472,21.0972938 Z M39.3161855,22.1093411 L39.1802011,22.6542896 L38.8499532,23.5495622 L40.3846346,24.1139732 L40.7343089,23.1408508 L40.8897197,22.5764398 L39.3161855,22.1093411 Z M9.51616885,25.3011826 L8.11747185,26.1186054 L8.70026227,27.1306527 L8.95280478,27.5004392 L10.2737964,26.5857041 L10.0601066,26.274305 L9.51616885,25.3011826 Z M37.5289616,26.2159176 L36.7324813,27.3836645 L36.6353496,27.4809767 L37.8980622,28.493024 L38.0146203,28.3373245 L38.8305269,27.1695776 L37.5289616,26.2159176 Z M12.2747102,29.1936722 L11.1091293,30.3224942 L11.5170826,30.7701305 L12.2747102,31.4318537 L13.3431593,30.2057195 L12.6049581,29.5634587 L12.2747102,29.1936722 Z M34.5373041,29.9137828 L33.915661,30.4781938 L33.3328706,30.8869052 L34.3041879,32.1908892 L34.8869784,31.7627153 L35.5474742,31.1788419 L34.5373041,29.9137828 Z M39.3161855,31.8600276 C39.1015365,31.8599636 38.8959481,31.9467005 38.7460079,32.1005833 C38.5960677,32.254466 38.5144699,32.4624665 38.5197053,32.6774504 L38.5197053,33.4948732 L37.8203568,33.7868099 L37.2375664,33.2029365 C37.0938806,33.0428467 36.8890962,32.9514196 36.6742023,32.9514196 C36.4593085,32.9514196 36.254524,33.0428467 36.1108382,33.2029365 L34.3818933,34.9156319 C34.068369,35.2339517 34.068369,35.7455966 34.3818933,36.0639164 L34.9646837,36.6477898 C34.8623768,36.8700069 34.7715994,37.097372 34.6927149,37.3289755 L33.857382,37.3289755 C33.4174981,37.3289755 33.0609017,37.6862345 33.0609017,38.1269359 L33.0609017,40.4818921 C33.0556664,40.696876 33.1372641,40.9048765 33.2872043,41.0587592 C33.4371445,41.2126419 33.6427329,41.2993789 33.857382,41.2993149 L34.6927149,41.2993149 C34.6927149,41.5328643 34.867552,41.7469512 34.9646837,41.9805006 L34.3818933,42.564374 C34.068369,42.8826938 34.068369,43.3943387 34.3818933,43.7126585 L36.1108382,45.4253539 C36.2602209,45.5751032 36.4628805,45.6592389 36.6742023,45.6592389 C36.8855241,45.6592389 37.0881838,45.5751032 37.2375664,45.4253539 L37.8203568,44.8414805 L38.5197053,45.1139547 L38.5197053,45.95084 C38.5197053,46.3915414 38.8763016,46.7488004 39.3161855,46.7488004 L41.7444789,46.7488004 C42.1843628,46.7488004 42.5409592,46.3915414 42.5409592,45.95084 L42.5409592,45.1139547 C42.7803358,45.0401648 43.0140634,44.9491019 43.2403077,44.8414805 L43.8230981,45.4253539 C43.9724807,45.5751032 44.1751404,45.6592389 44.3864622,45.6592389 C44.597784,45.6592389 44.8004436,45.5751032 44.9498262,45.4253539 L46.6787711,43.7126585 C46.9922955,43.3943387 46.9922955,42.8826938 46.6787711,42.564374 L46.0959807,41.9805006 C46.1931125,41.7469512 46.2902442,41.5328643 46.3679496,41.2993149 L47.2032825,41.2993149 C47.4179315,41.2993789 47.6235199,41.2126419 47.7734602,41.0587592 C47.9234004,40.9048765 48.0049981,40.696876 47.9997628,40.4818921 L47.9997628,38.0490861 C47.9997628,37.6083847 47.6431664,37.2511257 47.2032825,37.2511257 L46.3679496,37.2511257 C46.289065,37.0195222 46.1982877,36.7921572 46.0959807,36.56994 L46.6787711,35.9860666 C46.9922955,35.6677468 46.9922955,35.1561019 46.6787711,34.8377821 L44.9498262,33.0861618 C44.8061404,32.926072 44.601356,32.8346449 44.3864622,32.8346449 C44.1715683,32.8346449 43.9667839,32.926072 43.8230981,33.0861618 L43.2403077,33.6700352 C43.0159419,33.5528903 42.78197,33.4552209 42.5409592,33.3780985 L42.5409592,32.5606757 C42.5461945,32.3456918 42.4645968,32.1376913 42.3146566,31.9838086 C42.1647164,31.8299259 41.9591279,31.7431889 41.7444789,31.7432529 L39.3161855,31.8600276 Z M40.1320921,33.4754108 L40.967425,33.4754108 L40.967425,34.0203593 C40.9676475,34.4041358 41.234328,34.7360819 41.6084945,34.8183197 C42.1193828,34.9331117 42.6060334,35.1373576 43.0460442,35.4216556 C43.3643493,35.6130855 43.7715188,35.5650942 44.0367879,35.3048809 L44.4253149,34.9156319 L44.9886789,35.4800429 L44.6195783,35.8692919 C44.3458879,36.1281974 44.2967784,36.5464037 44.5030202,36.8618767 C44.7730487,37.3075676 44.9698215,37.7938426 45.0858107,38.3020979 C45.1742541,38.6729736 45.5017543,38.9370611 45.8822909,38.9443587 L46.4262286,38.9443587 L46.4262286,39.7617815 L45.8822909,39.7617815 C45.5050003,39.7599121 45.1756382,40.0174529 45.0858107,40.3845798 C44.9698215,40.8928352 44.7730487,41.3791101 44.5030202,41.824801 C44.2967784,42.1402741 44.3458879,42.5584803 44.6195783,42.8173859 L44.9886789,43.2066348 L44.4253149,43.7905083 L44.0367879,43.4012593 C43.7747784,43.1342982 43.3627418,43.0857332 43.0460442,43.2844846 C42.60118,43.5550149 42.1158071,43.7521534 41.6084945,43.8683581 C41.2420709,43.9628732 40.9812737,44.2874961 40.967425,44.6663184 L40.967425,45.211267 L40.1709448,45.211267 L40.1709448,44.6663184 C40.1617526,44.2898586 39.8970428,43.968402 39.5298754,43.8878205 C39.0217108,43.7645933 38.536427,43.560921 38.0923257,43.2844846 C37.775628,43.0857332 37.3635915,43.1342982 37.1015819,43.4012593 L36.713055,43.7905083 L36.1496909,43.2066348 L36.5187915,42.8173859 C36.7852575,42.5548894 36.8337323,42.1420872 36.6353496,41.824801 C36.3653211,41.3791101 36.1685483,40.8928352 36.0525592,40.3845798 C35.9627316,40.0174529 35.6333695,39.7599121 35.256079,39.7617815 L34.7121412,39.7617815 L34.7121412,38.9248962 L35.1395209,38.9248962 C35.5168114,38.9267657 35.8461735,38.6692249 35.9360011,38.3020979 C36.0449627,37.7916535 36.2421979,37.3042359 36.5187915,36.8618767 C36.7279089,36.5403385 36.6789462,36.1152061 36.4022334,35.8498294 L36.0331328,35.4605805 L36.5964969,34.8961695 L36.9850239,35.2854184 C37.250293,35.5456317 37.6574625,35.593623 37.9757676,35.4021931 C38.4157784,35.1178952 38.9024289,34.9136492 39.4133173,34.7988572 C39.7804847,34.7182758 40.0451945,34.3968192 40.0543867,34.0203593 L40.1320921,33.4754108 Z M40.5400454,36.6867147 C39.4618728,36.67883 38.4854801,37.3234437 38.0674166,38.3191422 C37.6493531,39.3148407 37.8722319,40.4648652 38.6318376,41.2314782 C39.3914433,41.9980912 40.537671,42.2298032 41.5345586,41.8182684 C42.5314462,41.4067337 43.1819999,40.4332751 43.1820286,39.3530701 C43.2029554,38.635883 42.9344952,37.9405116 42.4373136,37.4240934 C41.940132,36.9076751 41.2561911,36.6137957 40.5400454,36.6088649 L40.5400454,36.6867147 Z M40.5400454,38.3020979 C41.1118042,38.3127075 41.5697399,38.7801506 41.5696418,39.3530701 C41.5695688,39.7799041 41.3118295,40.1643004 40.9174464,40.3257644 C40.5230633,40.4872284 40.0703771,40.3936866 39.7719482,40.089062 C39.4735194,39.7844373 39.3886281,39.3292408 39.5571354,38.9372116 C39.7256428,38.5451824 40.1140762,38.2941936 40.5400454,38.3020979 Z M19.1710634,40.2483427 L28.5539892,40.2483427 L28.5539892,45.1918045 L19.0739317,45.1918045 L19.0739317,43.5764213 L26.9998814,43.5764213 L26.9998814,41.9610381 L19.0739317,41.9610381 L19.1710634,40.2483427 Z M19.5984431,48.383646 C19.3871141,48.3937214 19.1884696,48.487619 19.046335,48.6446227 C18.9042004,48.8016264 18.830256,49.0088342 18.8408155,49.2205313 C18.8508781,49.4374123 18.9466497,49.6413726 19.1070039,49.7874201 C19.2673582,49.9334676 19.4791195,50.0096022 19.6955748,49.9990292 L27.7769353,49.9990292 C28.2159882,49.9892683 28.5725238,49.6405748 28.5928419,49.2010688 C28.5980772,48.9860849 28.5164795,48.7780845 28.3665393,48.6242017 C28.216599,48.470319 28.0110106,48.3835821 27.7963616,48.383646 L19.5984431,48.383646 Z" id="path-1"></path>
        <linearGradient x1="100%" y1="0%" x2="0%" y2="100%" id="linearGradient-3">
            <stop stop-color="#FABD61" offset="0%"></stop>
            <stop stop-color="#F76B1C" offset="100%"></stop>
        </linearGradient>
    </defs>
    <g id="icons/choice_section" stroke="none" stroke-width="1" fill="none" fill-rule="evenodd">
        <mask id="mask-2" fill="white">
            <use xlink:href="#path-1"></use>
        </mask>
        <use id="Shape" fill="#00C57F" fill-rule="nonzero" xlink:href="#path-1"></use>
        <g id="Colors/Orange" mask="url(#mask-2)" fill="url(#linearGradient-3)">
            <rect id="Rectangle-2" x="0" y="0" width="50" height="50"></rect>
        </g>
    </g>
</svg>