<?xml version="1.0" encoding="utf-8"?>
<!-- Generator: Adobe Illustrator 22.1.0, SVG Export Plug-In . SVG Version: 6.00 Build 0)  -->
<svg version="1.1" id="Layer_1" xmlns="http://www.w3.org/2000/svg" xmlns:xlink="http://www.w3.org/1999/xlink" x="0px" y="0px"
	 viewBox="0 0 318 180" style="enable-background:new 0 0 318 180;" xml:space="preserve">
<style type="text/css">
	.st0{fill:url(#SVGID_1_);}
	.st1{fill:#FFFFFF;}
</style>
<linearGradient id="SVGID_1_" gradientUnits="userSpaceOnUse" x1="-1" y1="89.35" x2="317" y2="89.35">
	<stop  offset="0" style="stop-color:#7065D8"/>
	<stop  offset="1" style="stop-color:#275DDF"/>
</linearGradient>
<rect x="-1" y="-0.3" class="st0" width="318" height="179.3"/>
<g>
	<path class="st1" d="M155.1,99.7h-1.8h-0.4c-0.4,0-0.7,0.3-0.7,0.7c0,0.4,0.3,0.7,0.7,0.7h2.9h2.3v4c0,0.4,0.3,0.7,0.7,0.7
		s0.7-0.3,0.7-0.7v-4h2.6v4c0,0.4,0.3,0.7,0.7,0.7s0.7-0.3,0.7-0.7v-4c1.5-0.2,2.9-0.9,3.9-1.9c1.3-1.3,2-3,2-4.8
		c0-2.8-1.7-5.2-4-6.2c0.3-0.2,0.7-0.5,1-0.8c1-1,1.6-2.4,1.6-3.9c0-2.7-1.9-4.9-4.5-5.4v-4.5c0-0.4-0.3-0.7-0.7-0.7
		s-0.7,0.3-0.7,0.7V78h-2.6v-4.4c0-0.4-0.3-0.7-0.7-0.7s-0.7,0.3-0.7,0.7V78h-2.3h-2.9c-0.4,0-0.7,0.3-0.7,0.7s0.3,0.7,0.7,0.7h0.5
		h1.7v2.4v14.6C155.1,96.4,155.1,99.7,155.1,99.7z M156.5,93.7v-9.9v-4.5h2.3h3.7c2.2,0,4,1.8,4,4c0,1.1-0.4,2.1-1.2,2.9
		s-1.8,1.2-2.9,1.2h-3c-0.2,0-0.3,0.1-0.4,0.1c-0.2,0.1-0.3,0.4-0.3,0.6c0,0.3,0.2,0.5,0.4,0.6c0.1,0.1,0.2,0.1,0.4,0.1h3h0.1
		c3,0,5.4,2.4,5.4,5.4c0,1.4-0.6,2.8-1.6,3.8c-0.9,0.9-2,1.4-3.2,1.5c-0.1-0.1-0.3-0.2-0.5-0.2s-0.4,0.1-0.5,0.2h-3.5h-2.3
		L156.5,93.7L156.5,93.7z"/>
</g>
<g>
	<path class="st1" d="M172.6,53.3c11.1,3.7,20,12.4,23.8,23.5c0.2-0.1,0.5-0.1,0.8-0.1c-3.9-11.4-13.1-20.4-24.6-24.2
		C172.6,52.7,172.6,53,172.6,53.3z"/>
	<path class="st1" d="M124.8,77.9c3.5-11.1,11.9-20,22.7-24c0-0.3-0.1-0.5-0.1-0.8c-11.1,4.2-19.8,13.3-23.3,24.7
		C124.3,77.8,124.6,77.8,124.8,77.9z"/>
	<path class="st1" d="M196.3,101.7c-3.8,10.6-12.2,19.1-22.9,22.9c0.1,0.2,0.1,0.5,0.1,0.8c11-3.9,19.6-12.6,23.5-23.5
		C196.8,101.7,196.6,101.7,196.3,101.7z"/>
	<path class="st1" d="M148.5,124.7c-10.5-3.6-18.9-11.8-22.9-22.1c-0.2,0.1-0.5,0.1-0.7,0.2c4.1,10.6,12.7,19,23.5,22.7
		C148.5,125.2,148.5,124.9,148.5,124.7z"/>
</g>
<g>
	<path class="st1" d="M157.9,56.2H157h-0.2c-0.2,0-0.4,0.2-0.4,0.4s0.2,0.4,0.4,0.4h1.5h1.1v2c0,0.2,0.2,0.4,0.4,0.4
		s0.4-0.2,0.4-0.4v-2h1.3v2c0,0.2,0.2,0.4,0.4,0.4s0.4-0.2,0.4-0.4v-2c0.7-0.1,1.4-0.4,2-1s1-1.5,1-2.4c0-1.4-0.8-2.6-2-3.1
		c0.2-0.1,0.3-0.2,0.5-0.4c0.5-0.5,0.8-1.2,0.8-1.9c0-1.3-1-2.5-2.2-2.7v-2.3c0-0.2-0.2-0.4-0.4-0.4s-0.4,0.2-0.4,0.4v2.2h-1.3v-2.2
		c0-0.2-0.2-0.4-0.4-0.4s-0.4,0.2-0.4,0.4v2.2h-1.1h-1.5c-0.2,0-0.4,0.2-0.4,0.4s0.2,0.4,0.4,0.4h0.3h0.8v1.2v7.3
		C157.9,54.5,157.9,56.2,157.9,56.2z M158.7,53.2v-4.9V46h1.1h1.9c1.1,0,2,0.9,2,2c0,0.5-0.2,1-0.6,1.4c-0.4,0.4-0.9,0.6-1.4,0.6
		h-1.5c-0.1,0-0.2,0-0.2,0.1c-0.1,0.1-0.2,0.2-0.2,0.3s0.1,0.3,0.2,0.3c0.1,0,0.1,0,0.2,0h1.5h0.1c1.5,0,2.7,1.2,2.7,2.7
		c0,0.7-0.3,1.4-0.8,1.9c-0.4,0.4-1,0.7-1.6,0.8C162,56,162,56,161.9,56c-0.1,0-0.2,0-0.3,0.1h-1.8h-1.1L158.7,53.2L158.7,53.2z"/>
</g>
<g>
	<path class="st1" d="M196,94.5h-0.9h-0.2c-0.2,0-0.4,0.2-0.4,0.4c0,0.2,0.2,0.4,0.4,0.4h1.5h1.1v2c0,0.2,0.2,0.4,0.4,0.4
		s0.4-0.2,0.4-0.4v-2h1.3v2c0,0.2,0.2,0.4,0.4,0.4s0.4-0.2,0.4-0.4v-2c0.7-0.1,1.4-0.4,2-1s1-1.5,1-2.4c0-1.4-0.8-2.6-2-3.1
		c0.2-0.1,0.3-0.2,0.5-0.4c0.5-0.5,0.8-1.2,0.8-1.9c0-1.3-1-2.5-2.2-2.7v-2.3c0-0.2-0.2-0.4-0.4-0.4s-0.4,0.2-0.4,0.4v2.2h-1.3v-2.2
		c0-0.2-0.2-0.4-0.4-0.4s-0.4,0.2-0.4,0.4v2.2h-1.1H195c-0.2,0-0.4,0.2-0.4,0.4s0.2,0.4,0.4,0.4h0.3h0.8v1.2V93
		C196,92.9,196,94.5,196,94.5z M196.7,91.5v-4.9v-2.2h1.1h1.9c1.1,0,2,0.9,2,2c0,0.5-0.2,1-0.6,1.4c-0.4,0.4-0.9,0.6-1.4,0.6h-1.5
		c-0.1,0-0.2,0-0.2,0.1c-0.1,0.1-0.2,0.2-0.2,0.3c0,0.1,0.1,0.3,0.2,0.3c0.1,0,0.1,0,0.2,0h1.5h0.1c1.5,0,2.7,1.2,2.7,2.7
		c0,0.7-0.3,1.4-0.8,1.9c-0.4,0.4-1,0.7-1.6,0.8c-0.1-0.1-0.1-0.1-0.2-0.1c-0.1,0-0.2,0-0.3,0.1h-1.8h-1.1L196.7,91.5L196.7,91.5z"
		/>
</g>
<g>
	<path class="st1" d="M157.9,132.3H157h-0.2c-0.2,0-0.4,0.2-0.4,0.4s0.2,0.4,0.4,0.4h1.5h1.1v2c0,0.2,0.2,0.4,0.4,0.4
		s0.4-0.2,0.4-0.4v-2h1.3v2c0,0.2,0.2,0.4,0.4,0.4s0.4-0.2,0.4-0.4v-2c0.7-0.1,1.4-0.4,2-1s1-1.5,1-2.4c0-1.4-0.8-2.6-2-3.1
		c0.2-0.1,0.3-0.2,0.5-0.4c0.5-0.5,0.8-1.2,0.8-1.9c0-1.3-1-2.5-2.2-2.7v-2.3c0-0.2-0.2-0.4-0.4-0.4s-0.4,0.2-0.4,0.4v2.2h-1.3v-2.2
		c0-0.2-0.2-0.4-0.4-0.4s-0.4,0.2-0.4,0.4v2.2h-1.1h-1.5c-0.2,0-0.4,0.2-0.4,0.4c0,0.2,0.2,0.4,0.4,0.4h0.3h0.8v1.2v7.3
		C157.9,130.7,157.9,132.3,157.9,132.3z M158.7,129.3v-4.9v-2.2h1.1h1.9c1.1,0,2,0.9,2,2c0,0.5-0.2,1-0.6,1.4
		c-0.4,0.4-0.9,0.6-1.4,0.6h-1.5c-0.1,0-0.2,0-0.2,0.1c-0.1,0.1-0.2,0.2-0.2,0.3c0,0.1,0.1,0.3,0.2,0.3c0.1,0,0.1,0,0.2,0h1.5h0.1
		c1.5,0,2.7,1.2,2.7,2.7c0,0.7-0.3,1.4-0.8,1.9c-0.4,0.4-1,0.7-1.6,0.8c-0.1-0.1-0.1-0.1-0.2-0.1c-0.1,0-0.2,0-0.3,0.1h-1.8h-1.1
		L158.7,129.3L158.7,129.3z"/>
</g>
<g>
	<path class="st1" d="M119.9,94.5H119h-0.2c-0.2,0-0.4,0.2-0.4,0.4c0,0.2,0.2,0.4,0.4,0.4h1.5h1.1v2c0,0.2,0.2,0.4,0.4,0.4
		c0.2,0,0.4-0.2,0.4-0.4v-2h1.3v2c0,0.2,0.2,0.4,0.4,0.4c0.2,0,0.4-0.2,0.4-0.4v-2c0.7-0.1,1.4-0.4,2-1s1-1.5,1-2.4
		c0-1.4-0.8-2.6-2-3.1c0.2-0.1,0.3-0.2,0.5-0.4c0.5-0.5,0.8-1.2,0.8-1.9c0-1.3-1-2.5-2.2-2.7v-2.3c0-0.2-0.2-0.4-0.4-0.4
		c-0.2,0-0.4,0.2-0.4,0.4v2.2h-1.3v-2.2c0-0.2-0.2-0.4-0.4-0.4c-0.2,0-0.4,0.2-0.4,0.4v2.2h-1.1h-1.5c-0.2,0-0.4,0.2-0.4,0.4
		s0.2,0.4,0.4,0.4h0.3h0.8v1.2V93C119.9,92.9,119.9,94.5,119.9,94.5z M120.6,91.5v-4.9v-2.2h1.1h1.9c1.1,0,2,0.9,2,2
		c0,0.5-0.2,1-0.6,1.4s-0.9,0.6-1.4,0.6h-1.5c-0.1,0-0.2,0-0.2,0.1c-0.1,0.1-0.2,0.2-0.2,0.3c0,0.1,0.1,0.3,0.2,0.3s0.1,0,0.2,0h1.5
		h0.1c1.5,0,2.7,1.2,2.7,2.7c0,0.7-0.3,1.4-0.8,1.9c-0.4,0.4-1,0.7-1.6,0.8c-0.1-0.1-0.1-0.1-0.2-0.1s-0.2,0-0.3,0.1h-1.8h-1.1
		L120.6,91.5L120.6,91.5z"/>
</g>
</svg>
