<?xml version="1.0" encoding="UTF-8"?>
<svg width="74px" height="67px" viewBox="0 0 74 67" version="1.1" xmlns="http://www.w3.org/2000/svg" xmlns:xlink="http://www.w3.org/1999/xlink">
    <!-- Generator: Sketch 51.1 (57501) - http://www.bohemiancoding.com/sketch -->
    <title>icons/cycle</title>
    <desc>Created with Sketch.</desc>
    <defs>
        <path d="M52.6030232,51.989411 L50.2621071,49.3943443 C51.2727229,48.2597171 52.1570117,46.9907638 52.8891925,45.6189224 L55.7225259,47.4394703 C54.8511277,49.088538 53.8044185,50.6175696 52.6030232,51.989411 Z M58.4527354,31.786188 L54.8463597,32.8779451 C54.4453285,31.2860374 53.8205333,29.7541478 52.9923165,28.3280043 L56.1860367,26.5074565 C57.1769909,28.1593822 57.9383691,29.93706 58.4527354,31.786188 Z M19.3197337,26.4341372 C20.1992816,24.8074444 21.2464852,23.3025361 22.44071,21.9571074 L24.7801526,24.5406784 C23.7664801,25.6599358 22.8946702,26.9357733 22.1930954,28.3275961 L19.3197337,26.4341372 Z M42.0947186,20.1369678 C40.5971472,19.7283642 39.0633217,19.5163819 37.5211298,19.5010209 L37.5211298,15.5870285 C39.3645092,15.5747397 41.2023111,15.8389495 42.9815487,16.3704414 L42.0947186,20.1369678 Z M22.9600129,51.6001177 L25.5550796,49.2592016 C26.6897068,50.2723955 27.9586601,51.1541061 29.3305016,51.8862869 L27.5128117,54.7196204 C25.85517,53.8585345 24.3261384,52.8118254 22.9600129,51.6001177 Z M52.9923165,21.460076 L50.4001078,23.777247 C49.2626226,22.7693296 47.9936693,21.8938961 46.6218279,21.1717284 L48.4395178,18.3168282 C50.1200235,19.1558935 51.6519131,20.2157655 52.9923165,21.460076 Z M42.9815487,53.778016 C44.5528378,53.3877749 46.0652771,52.7876314 47.4776718,51.989411 L49.3520373,55.2828093 C47.6453937,56.2436301 45.818108,56.973854 43.9172602,57.4498298 L42.9815487,53.778016 Z M32.9841439,54.7196204 C34.4688248,55.1251836 35.9922126,55.3371825 37.5211298,55.3556172 L37.5211298,59.2699431 C35.6770289,59.2729888 33.843987,59.0118307 32.060711,58.486442 L32.9841439,54.7196204 Z M33.8808506,20.0900721 C32.3095615,20.5209264 30.7971222,21.1481565 29.3847274,21.9571074 L27.510362,18.7388896 C29.2111206,17.7540797 31.0384063,17.0008174 32.9451391,16.4966886 L33.8808506,20.0900721 Z M15.6794545,36.5182243 C15.7098509,34.6752258 15.9682208,32.8436567 16.454564,31.0578055 L20.2298035,31.969304 C19.7981739,33.4522749 19.5702005,34.9809635 19.5519626,36.5182243 L15.6794545,36.5182243 Z M54.8124561,42.0067516 C55.242574,40.5110116 55.457633,38.9738 55.4484161,37.4282941 L59.3594166,37.4282941 C59.3962838,39.2723951 59.1320685,41.1109665 58.5790598,42.888713 L54.8124561,42.0067516 Z M16.5895243,43.0704003 L20.1858388,41.9786431 C20.5961762,43.5705508 21.2234063,45.0995824 22.0499431,46.5285839 L18.8317253,48.3491318 C17.8469154,46.6943481 17.0936531,44.9195282 16.5895243,43.0704003 Z M56.1992387,67.2376172 L57.0934005,60.2934099 C57.2251422,59.2773169 58.1781673,58.557358 59.2292979,58.6850488 C60.2776255,58.8100228 61.0204245,59.7364605 60.8886828,60.7525535 L60.56073,63.3226709 C65.964943,58.8507752 69.6985589,52.8167046 71.2177931,45.9648693 C71.4392313,44.9623605 72.4595287,44.3266232 73.4910382,44.5412525 C74.5225478,44.7585986 75.1784533,45.7420896 74.9570151,46.7445984 C73.252782,54.4332161 69.0454565,61.1872456 62.9601109,66.1916392 L65.4996425,66.4986405 C66.5451671,66.6263314 67.2907691,67.552769 67.1590274,68.5661451 C67.086149,69.1339618 66.7581962,69.6094063 66.3013048,69.8946731 C65.9341098,70.1228865 65.4884304,70.2315595 65.0231299,70.177223 L57.8586236,69.3078387 C56.813099,69.1801478 56.067497,68.2537102 56.1992387,67.2376172 Z M20.1965291,7.46825008 L19.2893033,14.4466653 C19.2125161,15.0172791 18.8797718,15.4923356 18.4133611,15.7817378 C18.0436452,16.0110753 17.5914543,16.1202837 17.1221995,16.0629493 C16.0585554,15.9373597 15.3049039,15.0063583 15.4357264,13.98526 L15.7713147,11.4188631 C10.2881441,15.9127878 6.49713455,21.9629319 4.95570382,28.8457898 C4.8419451,29.3481483 4.5291086,29.76041 4.11104528,30.0170496 C3.69298197,30.2764195 3.17822373,30.3828977 2.64924566,30.2736893 C1.60550935,30.0580028 0.937176836,29.0669368 1.16185032,28.0594895 C2.89098295,20.3357271 7.15977913,13.5484264 13.334034,8.5193807 L10.7602428,8.21086704 C9.69659871,8.08527741 8.94294716,7.15427599 9.07376969,6.13317767 C9.21028016,5.11207935 10.1800733,4.38857386 11.2437174,4.51416349 L18.510056,5.3878305 C19.5737001,5.51888055 20.3301956,6.44715176 20.1965291,7.46825008 Z M37.9775443,22.8671772 C45.7665848,22.8671772 52.0822467,29.1828392 52.0822467,36.9718796 C52.0822467,44.7636793 45.7665848,51.0793412 37.9775443,51.0793412 C30.1857447,51.0793412 23.8700827,44.7636793 23.8700827,36.9718796 C23.8700827,29.1828392 30.1857447,22.8671772 37.9775443,22.8671772 Z M37.8451058,47.6469762 C43.942796,47.6469762 48.8899265,42.7026048 48.8899265,36.6021554 C48.8899265,30.5017061 43.942796,25.5573347 37.8451058,25.5573347 C31.7446564,25.5573347 26.800285,30.5017061 26.800285,36.6021554 C26.800285,42.7026048 31.7446564,47.6469762 37.8451058,47.6469762 Z M42.9358909,33.0264119 C43.080139,34.2588441 42.5484007,35.0052846 41.6857402,35.4348906 C43.1197366,35.7436699 44.0276514,36.5384411 43.8749181,38.3481564 C43.688244,40.5955329 41.9346389,41.2184616 39.4173671,41.387619 L39.4513079,43.747767 L37.9550868,43.7665623 L37.921146,41.4386347 C37.5336559,41.4440048 37.1376805,41.4466898 36.7247348,41.4440048 L36.7586756,43.7799875 L35.2624545,43.7987828 L35.2285137,41.4359497 C34.8777927,41.4386347 34.5214149,41.4386347 34.1565519,41.4413197 L32.2077875,41.4681701 L32.4821419,39.7658563 C32.4821419,39.7658563 33.5908728,39.7685413 33.5710741,39.749746 C33.9953334,39.744376 34.1028124,39.4543919 34.1254396,39.2744944 L34.0773568,35.5449772 C34.1310963,35.5449772 34.1848359,35.5449772 34.2329186,35.5422921 C34.1735223,35.536922 34.1169544,35.536922 34.0773568,35.536922 L34.0377593,32.8733647 C33.9755346,32.5860657 33.7747185,32.2558061 33.1666136,32.2611762 C33.1864123,32.2423809 32.0805098,32.2772864 32.0805098,32.2772864 L32.060711,30.7575551 L34.1226112,30.7333898 L34.1254396,30.7387598 C34.436563,30.7360748 34.7533433,30.7280197 35.0786088,30.7172795 L35.044668,28.3812968 L36.5437175,28.3625016 L36.5720015,30.6528386 C36.9736336,30.6394134 37.3780941,30.6259883 37.7684127,30.6206182 L37.7373003,28.3463913 L39.2363498,28.3275961 L39.2702906,30.6635788 C41.204913,30.8005157 42.74356,31.3455783 42.9358909,33.0264119 Z M40.1527499,33.6976713 C40.1301227,32.0222078 37.4799164,32.3121919 36.6342262,32.322932 L36.6738237,35.1610168 C37.5166855,35.1502766 40.1753771,35.3033238 40.1527499,33.6976713 Z M40.9135882,38.106503 C40.8881327,36.2645672 37.7090164,36.5814017 36.6907941,36.5948269 L36.7360484,39.7228957 C37.7486139,39.7094705 40.9362154,39.8705727 40.9135882,38.106503 Z" id="path-1"></path>
        <linearGradient x1="100%" y1="0%" x2="0%" y2="100%" id="linearGradient-3">
            <stop stop-color="#FABD61" offset="0%"></stop>
            <stop stop-color="#F76B1C" offset="100%"></stop>
        </linearGradient>
    </defs>
    <g id="Web" stroke="none" stroke-width="1" fill="none" fill-rule="evenodd">
        <g id="3.1-Short-Term" transform="translate(-305.000000, -776.000000)">
            <g id="icons/cycle" transform="translate(304.000000, 772.000000)">
                <mask id="mask-2" fill="white">
                    <use xlink:href="#path-1"></use>
                </mask>
                <use id="Combined-Shape" fill="#EE7C26" fill-rule="evenodd" xlink:href="#path-1"></use>
                <g id="Colors/Orange" mask="url(#mask-2)" fill="url(#linearGradient-3)" fill-rule="evenodd">
                    <rect id="Rectangle-2" x="0" y="0" width="75" height="75"></rect>
                </g>
            </g>
        </g>
    </g>
</svg>