<?xml version="1.0" encoding="UTF-8"?>
<svg width="71px" height="79px" viewBox="0 0 71 79" version="1.1" xmlns="http://www.w3.org/2000/svg" xmlns:xlink="http://www.w3.org/1999/xlink">
    <!-- Generator: Sketch 51.1 (57501) - http://www.bohemiancoding.com/sketch -->
    <title>noun_investor_1855428</title>
    <desc>Created with Sketch.</desc>
    <defs>
        <linearGradient x1="50%" y1="0%" x2="50%" y2="100%" id="linearGradient-1">
            <stop stop-color="#FAD961" offset="0%"></stop>
            <stop stop-color="#F76B1C" offset="100%"></stop>
        </linearGradient>
    </defs>
    <g id="Web" stroke="none" stroke-width="1" fill="none" fill-rule="evenodd">
        <g id="3.1-Short-Term" transform="translate(-681.000000, -768.000000)" fill="url(#linearGradient-1)" fill-rule="nonzero">
            <g id="noun_investor_1855428" transform="translate(681.000000, 768.000000)">
                <g id="Group">
                    <path d="M70.7080752,60.8130911 C70.6788827,56.3302638 61.3080971,55.1210801 55.5571789,55.1210801 C55.4696014,55.1210801 55.382024,55.1210801 55.2652541,55.1210801 C54.710597,55.1210801 54.1559399,55.1505724 53.6012828,55.1505724 L53.5720903,52.8796665 L53.4553204,35.6561722 C53.426128,31.1733449 44.0553424,29.9641613 38.3044241,29.9641613 C38.2168467,29.9641613 38.1292692,29.9641613 38.0124993,29.9641613 C34.2174771,29.9936536 30.6268023,30.4655301 27.8827093,31.2913141 C24.4088043,32.3530363 22.6572556,33.8866351 22.6572556,35.8626182 L22.6864481,41.6136137 L22.7156406,47.3646093 L22.8324105,64.5881035 C22.8324105,66.5935789 24.6131517,68.0976854 28.1162491,69.1004231 C30.7727647,69.8672225 34.2466696,70.2801145 37.9249219,70.2801145 C38.0416918,70.2801145 38.1584617,70.2801145 38.2752316,70.2801145 C38.8298887,70.2801145 39.3845458,70.2506222 39.9392029,70.2211299 L39.9683954,72.4920358 C39.9683954,74.4975112 41.7491366,76.0016177 45.252234,77.0043554 C47.9087495,77.7711548 51.3826545,78.1840468 55.0609067,78.1840468 C55.1776767,78.1840468 55.2944466,78.1840468 55.4112165,78.1840468 C59.2354312,78.1545545 62.826106,77.6826779 65.5410065,76.8863863 C69.0149115,75.824664 70.7664602,74.2910652 70.7664602,72.3150821 L69.0149115,72.3150821 L70.7664602,72.3150821 L70.7080752,60.8130911 Z M67.2633628,66.4461175 C66.6795132,67.2129169 62.6801436,68.8644848 55.382024,68.9234694 C55.2652541,68.9234694 55.1776767,68.9234694 55.0609067,68.9234694 C47.996327,68.9234694 44.0845348,67.3603783 43.4714928,66.6230712 L43.4714928,64.9125187 C46.7410504,66.2691638 51.5870018,66.711548 55.0900992,66.711548 C55.1776767,66.711548 55.2652541,66.711548 55.382024,66.711548 C59.1770462,66.6820557 62.7677211,66.2101792 65.511814,65.3843952 C66.1540486,65.1779492 66.7378981,64.9715032 67.2633628,64.7650572 L67.2633628,66.4461175 Z M55.3236391,58.6601543 C55.440409,58.6601543 55.5279864,58.6601543 55.6447563,58.6601543 C62.2422565,58.6601543 66.0956636,60.0462917 67.0590154,60.8425834 C66.0956636,61.6388751 62.154679,63.1134893 55.3528315,63.1724739 C48.550984,63.2019662 44.580807,61.7863365 43.6174552,60.9900448 C44.5516145,60.1937531 48.5217916,58.7191389 55.3236391,58.6601543 Z M50.0689929,47.0401941 C49.4851434,47.8069935 45.4857738,49.4585615 38.1876542,49.517546 C30.918727,49.5765306 26.890165,47.954455 26.277123,47.2171478 L26.277123,45.5655799 C26.8025876,45.7720259 27.3864371,45.9784719 28.0286717,46.1554256 C30.6851872,46.922225 34.1590922,47.335117 37.8373444,47.335117 C37.9541144,47.335117 38.0708843,47.335117 38.1876542,47.335117 C42.0118689,47.3056247 45.6025437,46.8337481 48.3174442,46.0374564 C48.9596787,45.8310105 49.5435283,45.6245645 50.0689929,45.4181185 L50.0689929,47.0401941 Z M38.1000768,33.5327277 C44.9019242,33.4737432 48.8721013,34.9188651 49.8354531,35.7151568 C48.8721013,36.5114485 44.9311167,37.9860627 38.1292692,38.0450473 C31.3274217,38.0745396 27.3572447,36.6589099 26.3938929,35.8626182 C27.3572447,35.0368342 31.2982293,33.56222 38.1000768,33.5327277 Z M37.8665369,41.5546292 C37.9541144,41.5546292 38.0416918,41.5546292 38.1584617,41.5546292 C41.9534839,41.5251369 45.5441588,41.0532603 48.2882517,40.2274764 C48.9304863,40.0210304 49.5143358,39.8145844 50.0398004,39.6081384 L50.0398004,41.2891986 C49.4559509,42.055998 45.4565813,43.707566 38.1584617,43.7665505 C30.8895346,43.8255351 26.8609725,42.2034594 26.2479305,41.4661523 L26.2479305,39.7555998 C29.5174881,41.1122449 34.3634395,41.5546292 37.8665369,41.5546292 Z M26.4230854,64.5586112 L24.6715366,64.5586112 L26.4230854,64.5586112 Z M38.3044241,66.7410403 C31.035497,66.8000249 27.0069349,65.1779492 26.3938929,64.4406421 L26.3938929,62.7890742 C26.9193575,62.9955202 27.5032071,63.2019662 28.1454416,63.3789199 C30.8019571,64.1457193 34.2758621,64.5586112 37.9541144,64.5586112 C38.0708843,64.5586112 38.1876542,64.5586112 38.3044241,64.5586112 C38.8882737,64.5586112 39.4137383,64.529119 39.9683954,64.4996267 L39.9683954,66.711548 C39.4429308,66.711548 38.8882737,66.7410403 38.3044241,66.7410403 Z M39.9392029,60.9310602 C39.3845458,60.9605525 38.8590812,60.9900448 38.2752316,60.9900448 C31.0063045,61.0490294 26.9777424,59.4269537 26.3647004,58.6896466 L26.3647004,57.0380786 C26.890165,57.2445246 27.4740146,57.4509706 28.1162491,57.6279243 C30.7727647,58.3947237 34.2466696,58.8076157 37.9249219,58.8076157 C38.0416918,58.8076157 38.1584617,58.8076157 38.2752316,58.8076157 C39.1801985,58.8076157 40.0559728,58.7781234 40.9317472,58.7191389 C40.2895126,59.3679691 39.9683954,60.1052763 39.9392029,60.9310602 Z M38.2460391,55.2390493 C30.977112,55.2980338 26.94855,53.6759582 26.3355079,52.9386511 L26.3355079,51.2870831 C26.8609725,51.4935291 27.4448221,51.6999751 28.0870566,51.8769288 C30.7435722,52.6437282 34.2174771,53.0566202 37.8957294,53.0566202 C38.0124993,53.0566202 38.1292692,53.0566202 38.2460391,53.0566202 C42.0702538,53.0271279 45.6609287,52.5552514 48.3758292,51.7589597 C49.0180637,51.5525137 49.6019133,51.3460677 50.1273779,51.1396217 L50.1273779,52.7911896 C49.5143358,53.5284968 45.5149663,55.209557 38.2460391,55.2390493 Z M43.5298777,72.4920358 L41.778329,72.4920358 L43.5298777,72.4920358 Z M55.4112165,74.6449726 C55.2944466,74.6449726 55.2068691,74.6449726 55.0900992,74.6449726 C48.0255194,74.6449726 44.1137273,73.0818815 43.5006853,72.3445744 L43.5006853,70.6930065 C44.0261499,70.8994525 44.6099995,71.1058985 45.252234,71.2828522 C47.9087495,72.0496516 51.3826545,72.4625436 55.0609067,72.4625436 C55.1776767,72.4625436 55.2944466,72.4625436 55.4112165,72.4625436 C59.2354312,72.4330513 62.826106,71.9611747 65.5410065,71.164883 C66.1832411,70.958437 66.7670906,70.751991 67.2925552,70.545545 L67.2925552,72.197113 C66.7087057,72.9344201 62.7093361,74.6154803 55.4112165,74.6449726 Z" id="Shape"></path>
                    <rect id="Rectangle-path" x="14.3082068" y="40.6108761" width="3.50309742" height="13.5369587"></rect>
                    <rect id="Rectangle-path" x="5.11257606" y="35.4792185" width="3.50309742" height="18.6391239"></rect>
                    <path d="M7.03927964,29.315331 C10.5131846,29.315331 13.344855,26.4545794 13.344855,22.9449975 C13.344855,22.6795669 13.3156625,22.4141364 13.28647,22.1781981 L16.9939148,19.0815082 C18.0740365,21.0574913 20.1467025,22.4141364 22.5404857,22.4141364 C26.0143907,22.4141364 28.8460611,19.5533848 28.8460611,16.0438029 L28.8460611,16.0143106 L33.9255523,17.0170483 C34.9472891,19.1404928 37.1075325,20.615107 39.5888932,20.615107 C43.0336056,20.615107 45.8360835,17.81334 45.8944685,14.3627427 L50.9447673,11.4724988 C52.0540815,12.4162519 53.4553204,12.9766053 55.0025218,12.9766053 C58.4764267,12.9766053 61.3080971,10.1158537 61.3080971,6.60627178 C61.3080971,3.0966899 58.4764267,0.235938278 55.0025218,0.235938278 C51.5286169,0.235938278 48.6969464,3.0966899 48.6969464,6.60627178 C48.6969464,7.28459433 48.8137164,7.93342459 48.9888712,8.52327028 L44.9019242,10.8531608 C43.7926101,9.05413141 41.8075215,7.87444002 39.5597007,7.87444002 C36.3777205,7.87444002 33.7503975,10.2633151 33.3125103,13.3305127 L27.4740146,12.1803136 C26.3063154,10.6762071 24.4963818,9.70296167 22.4821008,9.70296167 C19.3293131,9.70296167 16.70199,12.0623444 16.2349104,15.1295421 L11.7684612,18.8160777 C10.600762,17.4594326 8.87840579,16.574664 6.98089469,16.574664 C3.50698975,16.574664 0.675319336,19.4354156 0.675319336,22.9449975 C0.675319336,26.4545794 3.56537471,29.315331 7.03927964,29.315331 Z M55.0609067,3.74552016 C56.6081081,3.74552016 57.8633847,5.0136884 57.8633847,6.57677949 C57.8633847,8.13987058 56.6081081,9.40803883 55.0609067,9.40803883 C53.5137054,9.40803883 52.2584288,8.13987058 52.2584288,6.57677949 C52.2584288,5.0136884 53.5137054,3.74552016 55.0609067,3.74552016 Z M39.6180856,11.3840219 C41.165287,11.3840219 42.4205636,12.6521901 42.4205636,14.2152812 C42.4205636,15.7783723 41.165287,17.0465406 39.6180856,17.0465406 C38.0708843,17.0465406 36.8156077,15.7783723 36.8156077,14.2152812 C36.8156077,12.6521901 38.0708843,11.3840219 39.6180856,11.3840219 Z M22.5404857,13.2125436 C24.0876871,13.2125436 25.3429637,14.4807118 25.3429637,16.0438029 C25.3429637,17.606894 24.0876871,18.8750622 22.5404857,18.8750622 C20.9932844,18.8750622 19.7380078,17.606894 19.7380078,16.0438029 C19.7380078,14.4807118 20.9932844,13.2125436 22.5404857,13.2125436 Z M7.03927964,20.0842459 C8.586481,20.0842459 9.84175758,21.3524141 9.84175758,22.9155052 C9.84175758,24.4785963 8.586481,25.7467646 7.03927964,25.7467646 C5.49207829,25.7467646 4.23680171,24.4785963 4.23680171,22.9155052 C4.23680171,21.3524141 5.49207829,20.0842459 7.03927964,20.0842459 Z" id="Shape"></path>
                </g>
            </g>
        </g>
    </g>
</svg>