<?xml version="1.0" encoding="UTF-8"?>
<svg width="50px" height="50px" viewBox="0 0 50 50" version="1.1" xmlns="http://www.w3.org/2000/svg" xmlns:xlink="http://www.w3.org/1999/xlink">
    <!-- Generator: Sketch 51.1 (57501) - http://www.bohemiancoding.com/sketch -->
    <title>icons/choice_section</title>
    <desc>Created with Sketch.</desc>
    <defs>
        <path d="M8.52172778,10.0284623 L8.52172778,24.5972935 C8.51145,31.0876052 11.4981722,37.218826 16.6206167,41.2180727 L25.3361722,48.0100208 L34.0517278,41.2180727 C39.1741722,37.218826 42.1608944,31.0876052 42.1506167,24.5972935 L42.1506167,10.0284623 C39.2522833,9.72067013 28.3167278,8.12015065 25.3361722,3.0108 C22.3556167,8.12015065 11.4406167,9.72067013 8.52172778,10.0284623 Z M25.3361722,50.0004104 L15.7161722,42.4492416 C10.1846722,38.1791377 6.96156111,31.5780208 7.00061667,24.5972935 L7.00061667,8.65365714 L7.67895,8.65365714 C12.4272833,8.18170909 24.5756167,5.82196883 24.5756167,0.179111688 L26.1172833,0.179111688 C26.1172833,5.82196883 38.2656167,8.18170909 42.9933944,8.57157922 L43.6922833,8.57157922 L43.6922833,24.5972935 C43.7066722,31.5718649 40.4897278,38.1627221 34.9767278,42.4492416 L25.3361722,50.0004104 Z M11.5427076,13.0778564 C13.1479526,12.875632 15.4203123,12.3296259 17.7552141,11.7229525 C20.5445879,10.9646107 23.1650982,9.71688574 25.4895763,8.04246714 C27.8015461,9.72497472 30.4178869,10.9726997 33.2030912,11.7229525 C35.2628081,12.2770475 37.3496266,12.7300303 39.4572924,13.0778564 L39.4572924,24.8068756 C39.5114955,30.2871587 36.8909852,35.4681496 32.390045,38.7805865 L25.4895763,44.0586451 L18.5891076,38.7805865 C14.1319469,35.4357937 11.5301992,30.273003 11.5427076,24.8068756 L11.5427076,13.0778564 Z M25.4895763,46 L33.3281752,39.9939333 C38.1710117,36.3559151 41.0041649,30.7482305 40.9999954,24.8068756 L40.9999954,11.7229525 L40.3745753,11.7229525 C38.1439102,11.4074823 35.9424313,10.9282103 33.7868166,10.2871587 C30.9536635,9.55712841 28.3102211,8.25480283 26.0316071,6.46511628 L25.4895763,6 L24.9475456,6.46511628 C22.6918636,8.30535895 20.0421671,9.6380182 17.192336,10.3680485 C15.0388061,11.0131446 12.8373272,11.4944388 10.6045774,11.8038423 L10.0000046,11.8038423 L10.0000046,24.8068756 C9.99583513,30.7724975 12.8269036,36.4044489 17.6718248,40.0748231 L25.4895763,46 Z M24.1274131,30 L35,19.0758621 L33.9292149,18 L24.1274131,27.8482759 L20.0707851,23.7724138 L19,24.8482759 L24.1274131,30 Z" id="path-1"></path>
        <linearGradient x1="100%" y1="0%" x2="0%" y2="100%" id="linearGradient-3">
            <stop stop-color="#FABD61" offset="0%"></stop>
            <stop stop-color="#F76B1C" offset="100%"></stop>
        </linearGradient>
    </defs>
    <g id="icons/choice_section" stroke="none" stroke-width="1" fill="none" fill-rule="evenodd">
        <mask id="mask-2" fill="white">
            <use xlink:href="#path-1"></use>
        </mask>
        <use id="Combined-Shape" fill="#EE7C26" xlink:href="#path-1"></use>
        <g id="Colors/Orange" mask="url(#mask-2)" fill="url(#linearGradient-3)">
            <rect id="Rectangle-2" x="0" y="0" width="50" height="50"></rect>
        </g>
    </g>
</svg>