<?xml version="1.0" encoding="UTF-8"?>
<svg width="38px" height="31px" viewBox="0 0 38 31" version="1.1" xmlns="http://www.w3.org/2000/svg" xmlns:xlink="http://www.w3.org/1999/xlink">
    <!-- Generator: Sketch 51.1 (57501) - http://www.bohemiancoding.com/sketch -->
    <title>noun_Card_1889668</title>
    <desc>Created with Sketch.</desc>
    <defs>
        <linearGradient x1="100%" y1="0%" x2="0%" y2="100%" id="linearGradient-1">
            <stop stop-color="#7065D8" offset="0%"></stop>
            <stop stop-color="#275DDF" offset="100%"></stop>
        </linearGradient>
    </defs>
    <g id="Web" stroke="none" stroke-width="1" fill="none" fill-rule="evenodd">
        <g id="3.1-Short-Term" transform="translate(-236.000000, -1456.000000)" fill="url(#linearGradient-1)" fill-rule="nonzero">
            <g id="noun_Card_1889668" transform="translate(236.000000, 1456.000000)">
                <g id="Group">
                    <path d="M34.2,0.0610837438 L6.232,0.0610837438 C4.1344,0.0610837438 2.432,1.77142857 2.432,3.87881773 L2.432,15.8817734 C0.9272,17.4852217 0,19.6384236 0,22.0130542 C0,26.937931 3.99,30.9465517 8.892,30.9465517 C13.0188,30.9465517 16.4996,28.1061576 17.4952,24.2655172 L34.2,24.2655172 C36.2976,24.2655172 38,22.5551724 38,20.4477833 L38,3.87881773 C38,1.77142857 36.2976,0.0610837438 34.2,0.0610837438 Z M3.952,6.93300493 L36.48,6.93300493 L36.48,10.2926108 L3.952,10.2926108 L3.952,6.93300493 Z M6.232,1.58817734 L34.2,1.58817734 C35.454,1.58817734 36.48,2.61896552 36.48,3.87881773 L36.48,5.40591133 L3.952,5.40591133 L3.952,3.87881773 C3.952,2.61133005 4.978,1.58817734 6.232,1.58817734 Z M8.892,29.4118227 C4.826,29.4118227 1.52,26.0903941 1.52,22.0054187 C1.52,17.9204433 4.826,14.5990148 8.892,14.5990148 C12.958,14.5990148 16.264,17.9204433 16.264,22.0054187 C16.264,26.0903941 12.958,29.4118227 8.892,29.4118227 Z M34.2,22.7384236 L17.7536,22.7384236 C17.7764,22.5017241 17.784,22.2573892 17.784,22.0130542 C17.784,17.0881773 13.794,13.0795567 8.892,13.0795567 C7.068,13.0795567 5.3656,13.6369458 3.952,14.5913793 L3.952,11.8197044 L36.48,11.8197044 L36.48,20.4477833 C36.48,21.7076355 35.454,22.7384236 34.2,22.7384236 Z" id="Shape"></path>
                    <path d="M30.438,14.7517241 C29.2828,14.7517241 28.2796,15.4083744 27.778,16.3704433 C27.2764,15.4083744 26.2732,14.7517241 25.118,14.7517241 C23.4612,14.7517241 22.116,16.103202 22.116,17.767734 C22.116,19.432266 23.4612,20.7837438 25.118,20.7837438 C26.2732,20.7837438 27.2764,20.1270936 27.778,19.1650246 C28.2796,20.1270936 29.2828,20.7837438 30.438,20.7837438 C32.0948,20.7837438 33.44,19.432266 33.44,17.767734 C33.44,16.103202 32.0948,14.7517241 30.438,14.7517241 Z M25.118,19.2566502 C24.2972,19.2566502 23.636,18.5923645 23.636,17.767734 C23.636,16.9431034 24.2972,16.2788177 25.118,16.2788177 C25.9388,16.2788177 26.6,16.9507389 26.6,17.7753695 C26.6,18.6 25.9388,19.2566502 25.118,19.2566502 Z M30.438,19.2566502 C29.6172,19.2566502 28.956,18.5923645 28.956,17.767734 C28.956,16.9431034 29.6172,16.2788177 30.438,16.2788177 C31.2588,16.2788177 31.92,16.9507389 31.92,17.7753695 C31.92,18.6 31.2588,19.2566502 30.438,19.2566502 Z" id="Shape"></path>
                    <path d="M8.892,22.8300493 C8.474,22.8300493 8.132,23.1736453 8.132,23.5935961 L8.132,24.3876847 C8.132,24.8076355 8.474,25.1512315 8.892,25.1512315 C9.31,25.1512315 9.652,24.8076355 9.652,24.3876847 L9.652,23.5935961 C9.652,23.1736453 9.31,22.8300493 8.892,22.8300493 Z" id="Shape"></path>
                    <path d="M11.7952,20.623399 L11.7952,19.1955665 C11.7952,17.5844828 10.4956,16.2788177 8.892,16.2788177 C7.2884,16.2788177 5.9888,17.5844828 5.9888,19.1955665 L5.9888,20.623399 C5.2288,21.3793103 4.7576,22.4253695 4.7576,23.5783251 C4.7576,25.8689655 6.612,27.7320197 8.892,27.7320197 C11.172,27.7320197 13.0264,25.8689655 13.0264,23.5783251 C13.0264,22.4253695 12.5552,21.3793103 11.7952,20.623399 Z M7.5088,19.203202 C7.5088,18.4396552 8.132,17.8135468 8.892,17.8135468 C9.652,17.8135468 10.2752,18.4396552 10.2752,19.203202 L10.2752,19.6689655 C9.842,19.5162562 9.3784,19.432266 8.892,19.432266 C8.4056,19.432266 7.942,19.5162562 7.5088,19.6689655 L7.5088,19.203202 Z M8.892,26.2049261 C7.448,26.2049261 6.2776,25.029064 6.2776,23.5783251 C6.2776,22.1275862 7.448,20.9517241 8.892,20.9517241 C10.336,20.9517241 11.5064,22.1275862 11.5064,23.5783251 C11.5064,25.029064 10.336,26.2049261 8.892,26.2049261 Z" id="Shape"></path>
                </g>
            </g>
        </g>
    </g>
</svg>