<?xml version="1.0" encoding="utf-8"?>
<!-- Generator: Adobe Illustrator 22.1.0, SVG Export Plug-In . SVG Version: 6.00 Build 0)  -->
<svg version="1.1" id="Layer_1" xmlns="http://www.w3.org/2000/svg" xmlns:xlink="http://www.w3.org/1999/xlink" x="0px" y="0px"
	 viewBox="0 0 53 64" style="enable-background:new 0 0 53 64;" xml:space="preserve">
<style type="text/css">
	.st0{fill:url(#Shape_6_);}
	.st1{fill:url(#Shape_7_);}
	.st2{fill:url(#Rectangle-path_7_);}
	.st3{fill:url(#Shape_8_);}
	.st4{fill:url(#Shape_9_);}
	.st5{fill:url(#Shape_10_);}
	.st6{fill:url(#Rectangle-path_8_);}
	.st7{fill:url(#Rectangle-path_9_);}
	.st8{fill:url(#Rectangle-path_10_);}
	.st9{fill:url(#Rectangle-path_11_);}
	.st10{fill:url(#Rectangle-path_12_);}
	.st11{fill:url(#Rectangle-path_13_);}
	.st12{fill:url(#Shape_11_);}
</style>
<title>noun_Sharing_1261785</title>
<desc>Created with Sketch.</desc>
<g id="Web">
	<g id="_x33_.Get-Funded-_x28_view-square_x29_" transform="translate(-688.000000, -755.000000)">
		<g id="noun_Sharing_1261785" transform="translate(688.000000, 754.000000)">
			<g id="Group">
				<linearGradient id="Shape_6_" gradientUnits="userSpaceOnUse" x1="0.29" y1="49.85" x2="39" y2="49.85">
					<stop  offset="0" style="stop-color:#FABD61"/>
					<stop  offset="1" style="stop-color:#F76B1C"/>
				</linearGradient>
				<path id="Shape" class="st0" d="M36.9,45c-0.2,1.2-0.9,3-2.9,3H23v2h11c4,0,5-3.9,5-6c0-0.6-0.4-1-1-1H13
					c-0.3,0-0.5,0.1-0.7,0.3l-12,12l1.4,1.4L13.4,45H36.9z"/>
				<linearGradient id="Shape_7_" gradientUnits="userSpaceOnUse" x1="9.29" y1="50.3496" x2="52.7878" y2="50.3496">
					<stop  offset="0" style="stop-color:#FABD61"/>
					<stop  offset="1" style="stop-color:#F76B1C"/>
				</linearGradient>
				<path id="Shape_1_" class="st1" d="M49.3,36.3l-9,9l1.4,1.4l8.2-8.2c1.4,1.8,1.1,4.3-0.6,5.8L37.6,56H17c-0.3,0-0.5,0.1-0.7,0.3
					l-7,7l1.4,1.4l6.7-6.7H38c0.3,0,0.5-0.1,0.7-0.3l12-12c3.7-3.7,1.6-7.8,0-9.4C50.5,36.1,50.3,36,50,36S49.5,36.1,49.3,36.3z"/>
				<linearGradient id="Rectangle-path_7_" gradientUnits="userSpaceOnUse" x1="19" y1="49" x2="21" y2="49">
					<stop  offset="0" style="stop-color:#FABD61"/>
					<stop  offset="1" style="stop-color:#F76B1C"/>
				</linearGradient>
				<rect id="Rectangle-path" x="19" y="48" class="st2" width="2" height="2"/>
				<linearGradient id="Shape_8_" gradientUnits="userSpaceOnUse" x1="17" y1="35.0389" x2="39.0155" y2="35.0389">
					<stop  offset="0" style="stop-color:#FABD61"/>
					<stop  offset="1" style="stop-color:#F76B1C"/>
				</linearGradient>
				<path id="Shape_2_" class="st3" d="M17,36c0,1.7,1.1,3.3,2.8,3.8c1.7,0.5,3.5-0.1,4.5-1.5c0.9,1.1,2.3,1.7,3.7,1.7
					s2.8-0.6,3.7-1.7c0.9,1.3,2.6,2,4.2,1.6c1.6-0.4,2.8-1.7,3-3.3c0.2-1.6-0.5-3.2-2-4c-1.4-0.8-3.2-0.7-4.5,0.4
					c-0.8-1.7-2.6-2.8-4.5-2.8s-3.7,1.1-4.5,2.8C22.8,32.3,21.9,32,21,32C18.8,32,17,33.8,17,36z M35,34c1.1,0,2,0.9,2,2s-0.9,2-2,2
					s-2-0.9-2-2S33.9,34,35,34z M28,32c1.7,0,3,1.3,3,3s-1.3,3-3,3s-3-1.3-3-3S26.3,32,28,32z M21,34c1.1,0,2,0.9,2,2s-0.9,2-2,2
					s-2-0.9-2-2S19.9,34,21,34z"/>
				<linearGradient id="Shape_9_" gradientUnits="userSpaceOnUse" x1="34" y1="15.645" x2="53.0008" y2="15.645">
					<stop  offset="0" style="stop-color:#FABD61"/>
					<stop  offset="1" style="stop-color:#F76B1C"/>
				</linearGradient>
				<path id="Shape_3_" class="st4" d="M36,16h13.6l-3.3,3.3l1.4,1.4l5-5c0.4-0.4,0.4-1,0-1.4l-5-5l-1.4,1.4l3.3,3.3H36
					c-1.1,0-2,0.9-2,2v6h2V16z"/>
				<linearGradient id="Shape_10_" gradientUnits="userSpaceOnUse" x1="22.29" y1="10.4996" x2="33.7" y2="10.4996">
					<stop  offset="0" style="stop-color:#FABD61"/>
					<stop  offset="1" style="stop-color:#F76B1C"/>
				</linearGradient>
				<path id="Shape_4_" class="st5" d="M27,4.4V20h2V4.4l3.3,3.3l1.4-1.4l-5-5c-0.4-0.4-1-0.4-1.4,0l-5,5l1.4,1.4L27,4.4z"/>
				<linearGradient id="Rectangle-path_8_" gradientUnits="userSpaceOnUse" x1="27" y1="27" x2="29" y2="27">
					<stop  offset="0" style="stop-color:#FABD61"/>
					<stop  offset="1" style="stop-color:#F76B1C"/>
				</linearGradient>
				<rect id="Rectangle-path_1_" x="27" y="26" class="st6" width="2" height="2"/>
				<linearGradient id="Rectangle-path_9_" gradientUnits="userSpaceOnUse" x1="34" y1="29" x2="36" y2="29">
					<stop  offset="0" style="stop-color:#FABD61"/>
					<stop  offset="1" style="stop-color:#F76B1C"/>
				</linearGradient>
				<rect id="Rectangle-path_2_" x="34" y="28" class="st7" width="2" height="2"/>
				<linearGradient id="Rectangle-path_10_" gradientUnits="userSpaceOnUse" x1="34" y1="25" x2="36" y2="25">
					<stop  offset="0" style="stop-color:#FABD61"/>
					<stop  offset="1" style="stop-color:#F76B1C"/>
				</linearGradient>
				<rect id="Rectangle-path_3_" x="34" y="24" class="st8" width="2" height="2"/>
				<linearGradient id="Rectangle-path_11_" gradientUnits="userSpaceOnUse" x1="20" y1="29" x2="22" y2="29">
					<stop  offset="0" style="stop-color:#FABD61"/>
					<stop  offset="1" style="stop-color:#F76B1C"/>
				</linearGradient>
				<rect id="Rectangle-path_4_" x="20" y="28" class="st9" width="2" height="2"/>
				<linearGradient id="Rectangle-path_12_" gradientUnits="userSpaceOnUse" x1="20" y1="25" x2="22" y2="25">
					<stop  offset="0" style="stop-color:#FABD61"/>
					<stop  offset="1" style="stop-color:#F76B1C"/>
				</linearGradient>
				<rect id="Rectangle-path_5_" x="20" y="24" class="st10" width="2" height="2"/>
				<linearGradient id="Rectangle-path_13_" gradientUnits="userSpaceOnUse" x1="27" y1="23" x2="29" y2="23">
					<stop  offset="0" style="stop-color:#FABD61"/>
					<stop  offset="1" style="stop-color:#F76B1C"/>
				</linearGradient>
				<rect id="Rectangle-path_6_" x="27" y="22" class="st11" width="2" height="2"/>
				<linearGradient id="Shape_11_" gradientUnits="userSpaceOnUse" x1="2.9992" y1="15.645" x2="22" y2="15.645">
					<stop  offset="0" style="stop-color:#FABD61"/>
					<stop  offset="1" style="stop-color:#F76B1C"/>
				</linearGradient>
				<path id="Shape_5_" class="st12" d="M8.3,20.7l1.4-1.4L6.4,16H20v6h2v-6c0-1.1-0.9-2-2-2H6.4l3.3-3.3L8.3,9.3l-5,5
					c-0.4,0.4-0.4,1,0,1.4L8.3,20.7z"/>
			</g>
		</g>
	</g>
</g>
</svg>
