<svg xmlns="http://www.w3.org/2000/svg" viewBox="0 0 49.77 12.45"><defs><style>.cls-1{fill:#fff;}</style></defs><title>Asset 1</title><g id="Layer_2" data-name="Layer 2"><g id="Layer_1-2" data-name="Layer 1"><polygon class="cls-1" points="18.6 5.45 16.73 5.45 16.73 3.76 16.4 3.76 16.4 7.55 16.73 7.55 16.73 5.74 18.6 5.74 18.6 7.55 18.93 7.55 18.93 3.76 18.6 3.76 18.6 5.45"/><path class="cls-1" d="M21,4.6a1.36,1.36,0,0,0-1.3,1.52A1.33,1.33,0,0,0,21,7.63a1.23,1.23,0,0,0,1.19-.76l-.26-.15a1,1,0,0,1-.94.63c-.6,0-1-.49-1-1.15h2.25V6.05A1.29,1.29,0,0,0,21,4.6ZM20,5.94a1,1,0,0,1,1-1.05A1,1,0,0,1,22,5.94Z"/><rect class="cls-1" x="22.93" y="3.6" width="0.31" height="3.95"/><path class="cls-1" d="M25.23,4.6a1,1,0,0,0-.89.45h0V4.68H24V8.77h.31V7.2h0a1.08,1.08,0,0,0,.9.43,1.35,1.35,0,0,0,1.27-1.51A1.35,1.35,0,0,0,25.23,4.6Zm0,2.74a.88.88,0,0,1-.9-.86V5.76a.89.89,0,0,1,.91-.87c.57,0,1,.5,1,1.23S25.8,7.34,25.22,7.34Z"/><rect class="cls-1" x="27.12" y="3.77" width="0.41" height="0.4"/><rect class="cls-1" x="27.17" y="4.68" width="0.31" height="2.87"/><path class="cls-1" d="M29.44,4.6a1.06,1.06,0,0,0-.88.44h0V4.68h-.3V7.55h.31V5.72a.81.81,0,0,1,.84-.83.75.75,0,0,1,.79.83V7.55h.32V5.67A1,1,0,0,0,29.44,4.6Z"/><path class="cls-1" d="M33.32,5.05h0a1.06,1.06,0,0,0-.9-.45,1.35,1.35,0,0,0-1.27,1.52,1.35,1.35,0,0,0,1.25,1.51,1,1,0,0,0,.92-.45h0v.45c0,.58-.31.93-.82.93A.82.82,0,0,1,31.66,8l-.29.12a1.13,1.13,0,0,0,1.13.78,1.1,1.1,0,0,0,1.14-1.2v-3h-.32Zm0,1.43a.88.88,0,0,1-.9.86c-.58,0-1-.5-1-1.22s.39-1.23,1-1.23a.88.88,0,0,1,.91.86Z"/><polygon class="cls-1" points="36.69 5.45 34.81 5.45 34.81 3.76 34.48 3.76 34.48 7.55 34.81 7.55 34.81 5.74 36.69 5.74 36.69 7.55 37.02 7.55 37.02 3.76 36.69 3.76 36.69 5.45"/><path class="cls-1" d="M39.09,4.6a1.36,1.36,0,0,0-1.3,1.52A1.33,1.33,0,0,0,39.1,7.63a1.23,1.23,0,0,0,1.19-.76L40,6.72a1,1,0,0,1-.94.63c-.6,0-1-.49-1-1.15h2.25V6.05A1.29,1.29,0,0,0,39.09,4.6Zm-1,1.34a1,1,0,0,1,1-1.05A1,1,0,0,1,40,5.94Z"/><path class="cls-1" d="M43.09,5.05h0a1.06,1.06,0,0,0-.89-.45,1.35,1.35,0,0,0-1.28,1.52,1.34,1.34,0,0,0,1.28,1.51,1.07,1.07,0,0,0,.9-.43h0v.35h.3V3.6h-.32Zm0,1.43a.88.88,0,0,1-.88.86c-.59,0-1-.49-1-1.22s.4-1.23,1-1.23a.88.88,0,0,1,.9.86Z"/><path class="cls-1" d="M46.26,5.05h0a1.07,1.07,0,0,0-.91-.45,1.35,1.35,0,0,0-1.27,1.52,1.35,1.35,0,0,0,1.26,1.51,1,1,0,0,0,.92-.45h0v.45A.85.85,0,0,1,44.59,8l-.29.12a1.14,1.14,0,0,0,1.13.78,1.1,1.1,0,0,0,1.14-1.2v-3h-.31Zm0,1.43a.89.89,0,0,1-.91.86c-.58,0-1-.5-1-1.22s.39-1.23,1-1.23a.89.89,0,0,1,.92.86Z"/><path class="cls-1" d="M49.77,6.05A1.3,1.3,0,0,0,48.49,4.6,1.35,1.35,0,0,0,47.2,6.12a1.33,1.33,0,0,0,1.31,1.51,1.23,1.23,0,0,0,1.19-.76l-.26-.15a1,1,0,0,1-.94.63c-.6,0-1-.49-1-1.15h2.25Zm-2.24-.11a1,1,0,0,1,1-1.05,1,1,0,0,1,1,1.05Z"/><path class="cls-1" d="M12.45,6.23A6.22,6.22,0,0,0,9.86,1.18V1.12H9.78a6.22,6.22,0,1,0,.06,10.17h0v0A6.2,6.2,0,0,0,12.45,6.23ZM7.5,6.41H9.36V11a5.5,5.5,0,0,1-1.86.79Zm1.86-.5H7.5V.65a5.5,5.5,0,0,1,1.86.79Zm-6.58.53H4.64v5.28a5.51,5.51,0,0,1-1.86-.93Zm1.86-.5H2.78V1.66A5.7,5.7,0,0,1,4.64.73ZM.5,6.23A5.71,5.71,0,0,1,2.28,2.09v8.28A5.75,5.75,0,0,1,.5,6.23Zm4.64,5.62V.61A5.6,5.6,0,0,1,6.23.5,4.9,4.9,0,0,1,7,.56V11.89a4.9,4.9,0,0,1-.77.06A6.5,6.5,0,0,1,5.14,11.85Zm4.72-1.2V1.81a5.72,5.72,0,0,1,0,8.84Z"/></g></g></svg>