<?xml version="1.0" encoding="utf-8"?>
<!-- Generator: Adobe Illustrator 22.1.0, SVG Export Plug-In . SVG Version: 6.00 Build 0)  -->
<svg version="1.1" id="Layer_1" xmlns="http://www.w3.org/2000/svg" xmlns:xlink="http://www.w3.org/1999/xlink" x="0px" y="0px"
	 viewBox="0 0 24 30" style="enable-background:new 0 0 24 30;" xml:space="preserve">
<style type="text/css">
	.st0{fill:#00E904;}
</style>
<g>
	<path class="st0" d="M21.1,12c0-5-4.1-9.1-9.1-9.1C7,2.9,2.9,7,2.9,12c0,5,4.1,9.1,9.1,9.1C17,21.1,21.1,17,21.1,12z M20.4,12
		c0,4.6-3.8,8.4-8.4,8.4c-4.6,0-8.4-3.8-8.4-8.4c0-4.6,3.8-8.4,8.4-8.4C16.6,3.6,20.4,7.4,20.4,12z"/>
	<path class="st0" d="M10.4,16.9c-0.1,0.1-0.3,0.1-0.5,0c-0.1-0.1-0.1-0.1-0.1-0.2c0-0.1,0-0.2,0.1-0.2l4.5-4.5L10,7.4
		C9.9,7.4,9.9,7.3,9.9,7.2C9.9,7.1,9.9,7,10,7c0.1-0.1,0.1-0.1,0.2-0.1c0.1,0,0.2,0,0.2,0.1l4.7,4.7c0.1,0.1,0.1,0.1,0.1,0.2
		s0,0.2-0.1,0.2L10.4,16.9z"/>
</g>
</svg>
