<?xml version="1.0" encoding="UTF-8"?>
<svg width="50px" height="50px" viewBox="0 0 50 50" version="1.1" xmlns="http://www.w3.org/2000/svg" xmlns:xlink="http://www.w3.org/1999/xlink">
    <!-- Generator: Sketch 51.1 (57501) - http://www.bohemiancoding.com/sketch -->
    <title>icons/fund</title>
    <desc>Created with Sketch.</desc>
    <defs>
        <path d="M25.0194377,5.02427524 C24.5874689,5.02427524 23.9204997,5.37209556 23.9278198,5.80400234 L23.9278198,23.8936694 L5.83815119,23.8936694 C5.40618238,23.8936694 5.05842409,24.5533201 5.05842409,24.9852889 C5.05842409,25.4172577 5.40624657,26.0843517 5.83815119,26.0769053 L23.9278198,26.0769053 L23.9278198,44.1665754 C23.9278198,44.5985442 24.5874689,44.9463025 25.0194377,44.9463025 C25.4514065,44.9463025 26.1110557,44.5985442 26.1110557,44.1665754 L26.1110557,26.0769053 L44.2007243,26.0769053 C44.6326931,26.0769053 44.9804514,25.4172577 44.9804514,24.9852889 C44.9804514,24.5533201 44.6326931,23.8936694 44.2007243,23.8936694 L26.1110557,23.8936694 L26.1110557,5.80400234 C26.1110557,5.37203353 25.4514065,5.02427524 25.0194377,5.02427524 Z" id="path-1"></path>
        <linearGradient x1="100%" y1="0%" x2="0%" y2="100%" id="linearGradient-3">
            <stop stop-color="#FABD61" offset="0%"></stop>
            <stop stop-color="#F76B1C" offset="100%"></stop>
        </linearGradient>
    </defs>
    <g id="icons/fund" stroke="none" stroke-width="1" fill="none" fill-rule="evenodd">
        <mask id="mask-2" fill="white">
            <use xlink:href="#path-1"></use>
        </mask>
        <use id="Shape" fill="#00C57F" fill-rule="nonzero" xlink:href="#path-1"></use>
        <g id="Colors/Orange" mask="url(#mask-2)" fill="url(#linearGradient-3)">
            <rect id="Rectangle-2" x="0" y="0" width="50" height="50"></rect>
        </g>
    </g>
</svg>