<?xml version="1.0" encoding="UTF-8"?>
<svg width="40px" height="40px" viewBox="0 0 40 40" version="1.1" xmlns="http://www.w3.org/2000/svg" xmlns:xlink="http://www.w3.org/1999/xlink">
    <!-- Generator: Sketch 51.1 (57501) - http://www.bohemiancoding.com/sketch -->
    <title>noun_add_928259</title>
    <desc>Created with Sketch.</desc>
    <defs></defs>
    <g id="Web" stroke="none" stroke-width="1" fill="none" fill-rule="evenodd">
        <g id="3.Get-Funded-(view-square)" transform="translate(-405.000000, -768.000000)" fill="#00C57F" fill-rule="nonzero">
            <g id="noun_add_928259" transform="translate(405.000000, 768.000000)">
                <g id="Group">
                    <path d="M20.0194377,0.0242752437 C19.5874689,0.0242752437 18.9204997,0.372095563 18.9278198,0.804002339 L18.9278198,18.8936694 L0.838151189,18.8936694 C0.406182378,18.8936694 0.0584240936,19.5533201 0.0584240936,19.9852889 C0.0584240936,20.4172577 0.406246565,21.0843517 0.838151189,21.0769053 L18.9278198,21.0769053 L18.9278198,39.1665754 C18.9278198,39.5985442 19.5874689,39.9463025 20.0194377,39.9463025 C20.4514065,39.9463025 21.1110557,39.5985442 21.1110557,39.1665754 L21.1110557,21.0769053 L39.2007243,21.0769053 C39.6326931,21.0769053 39.9804514,20.4172577 39.9804514,19.9852889 C39.9804514,19.5533201 39.6326931,18.8936694 39.2007243,18.8936694 L21.1110557,18.8936694 L21.1110557,0.804002339 C21.1110557,0.372033528 20.4514065,0.0242752437 20.0194377,0.0242752437 Z" id="Shape"></path>
                </g>
            </g>
        </g>
    </g>
</svg>