<svg xmlns="http://www.w3.org/2000/svg" xmlns:xlink="http://www.w3.org/1999/xlink" viewBox="0 0 194.33 194.33"><defs><style>.cls-1{fill:url(#linear-gradient);}.cls-2{fill:url(#linear-gradient-2);}.cls-3{fill:url(#linear-gradient-3);}</style><linearGradient id="linear-gradient" x1="64.78" y1="80.97" x2="129.55" y2="80.97" gradientUnits="userSpaceOnUse"><stop offset="0" stop-color="#d95930"/><stop offset="1" stop-color="#f0b450"/></linearGradient><linearGradient id="linear-gradient-2" x1="36.75" y1="145.74" x2="157.57" y2="145.74" xlink:href="#linear-gradient"/><linearGradient id="linear-gradient-3" x1="0" y1="97.16" x2="194.33" y2="97.16" xlink:href="#linear-gradient"/></defs><title>avatar</title><g id="Layer_2" data-name="Layer 2"><g id="Layer_1-2" data-name="Layer 1"><circle class="cls-1" cx="97.16" cy="80.97" r="32.39"/><path class="cls-2" d="M129.55,121.45H64.78a32.26,32.26,0,0,0-28,16.43,72.83,72.83,0,0,0,120.82,0A32.25,32.25,0,0,0,129.55,121.45Z"/><path class="cls-3" d="M97.16,0a97.17,97.17,0,1,0,97.17,97.16A97.16,97.16,0,0,0,97.16,0Zm0,178.13a81,81,0,1,1,81-81A81.06,81.06,0,0,1,97.16,178.13Z"/></g></g></svg>