<?xml version="1.0" encoding="utf-8"?>
<!-- Generator: Adobe Illustrator 22.1.0, SVG Export Plug-In . SVG Version: 6.00 Build 0)  -->
<svg version="1.1" id="Layer_1" xmlns="http://www.w3.org/2000/svg" xmlns:xlink="http://www.w3.org/1999/xlink" x="0px" y="0px"
	 viewBox="0 0 318 180" style="enable-background:new 0 0 318 180;" xml:space="preserve">
<style type="text/css">
	.st0{fill:url(#SVGID_1_);}
	.st1{fill:#FFFFFF;}
</style>
<linearGradient id="SVGID_1_" gradientUnits="userSpaceOnUse" x1="0" y1="90.35" x2="318" y2="90.35">
	<stop  offset="0" style="stop-color:#7065D8"/>
	<stop  offset="1" style="stop-color:#275DDF"/>
</linearGradient>
<rect y="0.7" class="st0" width="318" height="179.3"/>
<g>
	<path class="st1" d="M155.1,99.7h-1.8h-0.4c-0.4,0-0.7,0.3-0.7,0.7c0,0.4,0.3,0.7,0.7,0.7h2.9h2.3v4c0,0.4,0.3,0.7,0.7,0.7
		s0.7-0.3,0.7-0.7v-4h2.6v4c0,0.4,0.3,0.7,0.7,0.7s0.7-0.3,0.7-0.7v-4c1.5-0.2,2.9-0.9,3.9-1.9c1.3-1.3,2-3,2-4.8
		c0-2.8-1.7-5.2-4-6.2c0.3-0.2,0.7-0.5,1-0.8c1-1,1.6-2.4,1.6-3.9c0-2.7-1.9-4.9-4.5-5.4v-4.5c0-0.4-0.3-0.7-0.7-0.7
		s-0.7,0.3-0.7,0.7V78h-2.6v-4.4c0-0.4-0.3-0.7-0.7-0.7s-0.7,0.3-0.7,0.7V78h-2.3h-2.9c-0.4,0-0.7,0.3-0.7,0.7s0.3,0.7,0.7,0.7h0.5
		h1.7v2.4v14.6C155.1,96.4,155.1,99.7,155.1,99.7z M156.5,93.7v-9.9v-4.5h2.3h3.7c2.2,0,4,1.8,4,4c0,1.1-0.4,2.1-1.2,2.9
		s-1.8,1.2-2.9,1.2h-3c-0.2,0-0.3,0.1-0.4,0.1c-0.2,0.1-0.3,0.4-0.3,0.6c0,0.3,0.2,0.5,0.4,0.6c0.1,0.1,0.2,0.1,0.4,0.1h3h0.1
		c3,0,5.4,2.4,5.4,5.4c0,1.4-0.6,2.8-1.6,3.8c-0.9,0.9-2,1.4-3.2,1.5c-0.1-0.1-0.3-0.2-0.5-0.2s-0.4,0.1-0.5,0.2h-3.5h-2.3
		L156.5,93.7L156.5,93.7z"/>
</g>
</svg>
