<svg xmlns="http://www.w3.org/2000/svg" viewBox="0 0 80.77 76.42"><defs><style>.cls-1{fill:#222064;}</style></defs><title>certificate1_1</title><g id="Layer_2" data-name="Layer 2"><g id="Layer_1-2" data-name="Layer 1"><path class="cls-1" d="M56.83,37.45l-7.41,7.4L46.54,42a1.62,1.62,0,1,0-2.29,2.29l4,4a1.61,1.61,0,0,0,1.14.47,1.65,1.65,0,0,0,1.15-.47l8.55-8.55a1.62,1.62,0,0,0,0-2.29A1.61,1.61,0,0,0,56.83,37.45Z"/><path class="cls-1" d="M66.18,10.53H14.59a1.63,1.63,0,0,0,0,3.25H66.18a1.63,1.63,0,0,0,0-3.25Z"/><path class="cls-1" d="M66.18,19.45H14.59a1.62,1.62,0,1,0,0,3.24H66.18a1.62,1.62,0,0,0,0-3.24Z"/><path class="cls-1" d="M32.15,28.36H14.59a1.62,1.62,0,1,0,0,3.24H32.14a1.62,1.62,0,0,0,0-3.24Z"/><path class="cls-1" d="M75.91,0h-71A4.87,4.87,0,0,0,0,4.86V47.27a4.87,4.87,0,0,0,4.86,4.86H38.41a15.72,15.72,0,0,0,2.45,2.76l-5,16.79a1.62,1.62,0,0,0,2.5,1.78l4.14-3,1.64,4.82a1.61,1.61,0,0,0,1.53,1.1h0a1.63,1.63,0,0,0,1.52-1.16l4.44-15,4.44,15a1.61,1.61,0,0,0,1.52,1.16h0a1.61,1.61,0,0,0,1.53-1.1l1.64-4.82,4.14,3a1.62,1.62,0,0,0,1,.3h0a1.62,1.62,0,0,0,1.62-1.62,1.58,1.58,0,0,0-.19-.75l-4.89-16.5A15.77,15.77,0,0,0,65,52.13H75.91a4.87,4.87,0,0,0,4.86-4.86V4.86A4.87,4.87,0,0,0,75.91,0ZM59.59,53.12A12.64,12.64,0,0,1,56.29,55l-.07,0a12.74,12.74,0,0,1-3.78.79h0c-.25,0-.49,0-.74,0s-.49,0-.74,0h0A12.67,12.67,0,0,1,47.16,55l-.08,0a12.8,12.8,0,0,1-3.3-1.85,13,13,0,1,1,15.81,0Zm-14,16.33-.7-2.06a1.65,1.65,0,0,0-1-1,1.74,1.74,0,0,0-.5-.08,1.69,1.69,0,0,0-.94.3l-2.08,1.49,3.31-11.16.09,0,.84.44.43.2.92.39.38.13c.34.12.69.24,1,.33l.21.06c.4.1.79.2,1.2.27ZM59.73,56.93,63,68.08,61,66.59a1.63,1.63,0,0,0-2.48.8l-.7,2.06L54.63,58.8c.4-.08.8-.18,1.19-.28l.21-.05c.36-.1.7-.21,1-.33l.37-.14c.31-.12.62-.24.92-.38l.43-.21c.29-.14.57-.28.85-.44Zm17.8-9.66a1.62,1.62,0,0,1-1.62,1.62H66.72a16.06,16.06,0,0,0,1.17-6,16.21,16.21,0,1,0-32.41,0,16.06,16.06,0,0,0,1.17,6H4.86a1.62,1.62,0,0,1-1.62-1.62V4.86A1.63,1.63,0,0,1,4.86,3.24H75.91a1.63,1.63,0,0,1,1.62,1.62Z"/></g></g></svg>