<svg xmlns="http://www.w3.org/2000/svg" viewBox="0 0 80.2 90"><defs><style>.cls-1{fill:#222064;}</style></defs><title>certificate2</title><g id="Layer_2" data-name="Layer 2"><g id="Layer_1-2" data-name="Layer 1"><path class="cls-1" d="M40.1,0S20.1,17.6,0,17.6C0,34.9.1,51.8,7.5,64.9,15.1,78.3,29.9,87.7,40.1,90c10.1-2.6,24.3-12.1,31.8-25.2S80.2,35,80.2,17.6C60.1,17.6,40.1,0,40.1,0ZM66.7,61.9C60.4,72.8,48.6,81.1,40,83.8,31,81.2,18.8,72.7,12.8,62S6.2,37.3,6.1,23.2c14.4-2,27.7-10.7,34-15.5,6.4,4.8,19.6,13.5,34,15.5C73.9,37.2,72.8,51.2,66.7,61.9Z"/><path class="cls-1" d="M50.1,41.8V39.3h0a10,10,0,0,0-20,0h0v2.5h-2V58.4a2.33,2.33,0,0,0,2.3,2.3H49.9a2.33,2.33,0,0,0,2.3-2.3V41.8Zm-17-2.5h0a7,7,0,0,1,14,0h0v2.5h-14Z"/></g></g></svg>