<?xml version="1.0" encoding="UTF-8"?>
<svg width="50px" height="50px" viewBox="0 0 50 50" version="1.1" xmlns="http://www.w3.org/2000/svg" xmlns:xlink="http://www.w3.org/1999/xlink">
    <!-- Generator: Sketch 51.1 (57501) - http://www.bohemiancoding.com/sketch -->
    <title>icons/choice_section</title>
    <desc>Created with Sketch.</desc>
    <defs>
        <path d="M41.9032873,44.9832983 L39.5907412,44.9832983 L39.5907412,30.1528034 C41.6766217,30.2792274 43.7301101,29.5821731 45.3243267,28.2065442 C46.6812753,26.8441628 47.2355219,24.7811281 47.2355219,21.5114126 L47.2355219,20.8107593 L46.4901558,20.8107593 C44.1481313,20.5285071 41.7943936,21.2314165 39.9729802,22.7570185 C39.4806824,23.2544596 39.0851322,23.8421619 38.8071511,24.4891892 C38.5360945,23.8430493 38.1469554,23.2552363 37.660434,22.7570185 C35.8379639,21.2334508 33.4850934,20.5308005 31.1432584,20.8107593 L30.3978923,20.8107593 L30.3978923,21.5308752 C30.3978923,24.8005906 30.9712508,26.8636254 32.3090875,28.2260068 C33.9003248,29.6070208 35.956003,30.3048185 38.0426731,30.172266 L38.0426731,45.0027609 L35.7492388,45.0027609 C34.7782821,45.0038906 33.9132401,45.6275456 33.5895883,46.5597682 L29.4996305,46.5597682 C29.1759787,45.6275456 28.3109367,45.0038906 27.33998,45.0027609 L24.9892099,45.0027609 L24.9892099,37.9573027 C26.6390228,38.0472635 28.2599772,37.4900674 29.5187425,36.4002953 C30.7807241,34.8864162 31.3567452,32.9004939 31.1050345,30.931307 L31.1050345,30.172266 L30.3596684,30.172266 C28.4543458,29.9332187 26.535667,30.4954864 25.0465458,31.7292733 L25.0465458,29.3159119 C27.4084329,28.9110904 29.0715059,26.7304534 28.872049,24.299876 C28.6725921,21.8692986 26.6771751,20 24.2820677,20 C21.8869602,20 19.8915433,21.8692986 19.6920864,24.299876 C19.4926294,26.7304534 21.1557024,28.9110904 23.5175896,29.3159119 L23.5175896,31.7876611 C22.0205196,30.5548302 20.0964702,29.9930097 18.185355,30.2306537 L17.3444291,30.2306537 L17.3444291,30.9896948 C17.1023101,32.9580977 17.6772101,34.9401549 18.9307211,36.4586831 C20.1894864,37.5484551 21.8104408,38.1056512 23.4602537,38.0156904 L23.4602537,45.0416861 L21.1668195,45.0416861 C20.1958628,45.0428158 19.3308208,45.6664708 19.007169,46.5986934 L14.1909571,46.5986934 C13.8601919,45.6634272 12.9883567,45.0403883 12.0121946,45.0416861 L9.69964837,45.0416861 L9.69964837,40.993467 C11.3564746,41.0925532 12.9866288,40.5345491 14.2482929,39.4364596 C15.4925203,37.9205116 16.0665505,35.948496 15.8345849,33.9869339 L15.8345849,33.2278929 L15.0892188,33.2278929 C13.1828314,32.9747989 11.2587878,33.5386387 9.77609618,34.7849002 C9.43782085,35.1153308 9.15959808,35.5040821 8.95428225,35.9331931 C8.74240718,35.5081377 8.46494396,35.1204477 8.13246831,34.7849002 C6.64258451,33.5369459 4.71473528,32.9669791 2.80023373,33.2084303 L2.05486761,33.2084303 L2.05486761,33.9869339 C1.81111921,35.9494902 2.38652083,37.926217 3.64115961,39.4364596 C4.90282372,40.5345491 6.53297794,41.0925532 8.18980417,40.993467 L8.18980417,44.8859853 L5.87725799,44.8859853 C4.90810926,44.8928618 4.04598111,45.514416 3.71760742,46.4429927 L2.05486761,46.4429927 L2.05486761,48 L5.11277991,48 L5.11277991,47.2214963 C5.11277991,46.7915406 5.4550484,46.4429927 5.87725799,46.4429927 L12.0121946,46.4429927 C12.4344041,46.4429927 12.7766726,46.7915406 12.7766726,47.2214963 L12.7766726,48 L20.4214534,48 L20.4214534,47.2214963 C20.4214534,46.7915406 20.7637219,46.4429927 21.1859315,46.4429927 L27.320868,46.4429927 C27.7430776,46.4429927 28.0853461,46.7915406 28.0853461,47.2214963 L28.0853461,48 L34.9847607,48 L34.9847607,47.2214963 C34.9847607,46.7915406 35.3270292,46.4429927 35.7492388,46.4429927 L41.8841754,46.4429927 C42.306385,46.4429927 42.6486535,46.7915406 42.6486535,47.2214963 L42.6486535,48 L48,48 L48,46.4429927 L44.1011618,46.4429927 C43.7412315,45.5355341 42.8638769,44.9528486 41.9032873,44.9832983 Z M41.0623615,23.8079985 C42.3744868,22.7300753 44.0466313,22.2136454 45.7256777,22.3677667 C45.8530706,24.0964631 45.3265845,25.8093432 44.2540574,27.1555642 C42.9468459,28.2286273 41.2825011,28.7447636 39.6098531,28.595796 C39.4751478,26.8694506 39.9949278,25.1561375 41.0623615,23.8079985 Z M33.4175807,27.1555642 C32.3380101,25.8132026 31.8106202,24.0973821 31.9459604,22.3677667 C33.6186084,22.2187991 35.2829532,22.7349354 36.5901647,23.8079985 C37.6661915,25.1523045 38.1931252,26.8666408 38.061785,28.595796 C36.389137,28.7447636 34.7247922,28.2286273 33.4175807,27.1555642 Z M26.1741509,32.838641 C27.1488094,32.0382393 28.3842594,31.6420369 29.6334142,31.7292733 C29.7067882,33.0181396 29.3046234,34.2884176 28.5058091,35.2909276 C27.5311506,36.0913293 26.2957006,36.4875317 25.0465458,36.4002953 C24.9694108,35.1109429 25.372005,33.8393085 26.1741509,32.838641 Z M20.0392144,35.2909276 C19.2405314,34.2892836 18.8444188,33.0165504 18.9307211,31.7292733 C20.1736624,31.6450835 21.4020787,32.0412188 22.3708725,32.838641 C23.1730184,33.8393085 23.5756126,35.1109429 23.4984776,36.4002953 C22.2493228,36.4875317 21.0138728,36.0913293 20.0392144,35.2909276 Z M10.8463655,35.9526557 C11.8210239,35.152254 13.056474,34.7560516 14.3056288,34.843288 C14.3827638,36.1326404 13.9801695,37.4042748 13.1780236,38.4049423 C12.2138833,39.2111398 10.9819684,39.6084033 9.73787227,39.51431 C9.65156998,38.2270329 10.0476826,36.9542997 10.8463655,35.9526557 Z M4.71142892,38.4049423 C3.90930577,37.4051905 3.51275091,36.1310363 3.60293571,34.843288 C4.85141278,34.7618033 6.08485959,35.1573633 7.06219901,35.9526557 C7.86088192,36.9542997 8.25699451,38.2270329 8.17069222,39.51431 C6.92221515,39.5957946 5.68876834,39.2002347 4.71142892,38.4049423 Z M21.2050434,24.7811281 C21.1973026,23.5120134 21.9420677,22.3634742 23.0912383,21.8723332 C24.240409,21.3811922 25.5670144,21.6444539 26.4510044,22.5390707 C27.3349943,23.4336875 27.6017734,24.7829653 27.1266501,25.9562566 C26.6515267,27.129548 25.5283418,27.8951183 24.2820677,27.8951427 C23.4493499,27.9058262 22.6479402,27.5723328 22.0608767,26.970831 C21.4738131,26.3693291 21.1512357,25.5511918 21.1668195,24.7032777 L21.2050434,24.7811281 Z M39.0561886,16.9997365 C37.4616561,17.0146699 35.9267667,16.3942553 34.790479,15.2755026 C33.6541913,14.1567499 33.0099826,12.6316938 33.0001173,11.0371216 C32.9796318,7.72595962 35.6453849,5.02415436 38.9565224,5.00016088 C42.2676599,4.97616739 44.9722872,7.63905729 44.9997887,10.9501684 C45.0272901,14.2612795 42.3672678,16.9687271 39.0561886,16.9997365 Z M39.0561886,8.75674843 L39.0561886,8.79413159 C38.6432657,8.79413159 38.3085255,9.12887186 38.3085255,9.54179491 C38.3085255,9.95300974 38.5141328,10.1025424 39.2804875,10.3268414 C40.0468422,10.5511404 41.3178695,10.9623552 41.3178695,12.5324482 C41.3029839,13.4833192 40.6995698,14.3251194 39.8038517,14.6445971 L39.8038517,15.4670267 C41.980877,15.1195425 43.582755,13.2417046 43.582755,11.0371216 C43.582755,8.83253846 41.980877,6.95470057 39.8038517,6.60721638 L39.8038517,7.39226287 C40.6995698,7.71174052 41.3029839,8.55354077 41.3178695,9.50441175 L39.8038517,9.50441175 C39.809045,9.30457227 39.7319424,9.11136884 39.5905869,8.97001328 C39.4492314,8.82865772 39.256028,8.75155514 39.0561886,8.75674843 Z M38.3085255,6.56983322 L38.2337592,6.5885248 C36.0567339,6.93600899 34.4548559,8.81384688 34.4548559,11.01843 C34.4548559,13.2230131 36.0567339,15.100851 38.2337592,15.4483351 L38.2337592,14.6259055 C37.3384667,14.3093724 36.7395179,13.4633571 36.7384329,12.5137566 L38.2337592,12.5137566 C38.2337592,12.9266797 38.5684993,13.2614199 38.9814223,13.2614199 C39.1812617,13.2666132 39.3744651,13.1895106 39.5158206,13.0481551 C39.6571761,12.9067995 39.7342787,12.7135961 39.7290854,12.5137566 C39.7290854,12.1025418 39.5047865,11.9530091 38.7571233,11.7287101 C38.0094602,11.5044111 36.7384329,11.1118879 36.7384329,9.52310333 C36.7422811,8.54681306 37.3771945,7.68514464 38.3085255,7.39226287 L38.3085255,6.56983322 Z M45.2857143,18 L44,16.7785714 C44.5560848,16.2441374 45.0409222,15.6468027 45.443609,15 L47,15.8571429 C46.5216255,16.6344903 45.9460151,17.3540033 45.2857143,18 Z M48,9.48571429 L46.6779661,10 C46.5314524,9.24951023 46.3032885,8.52834938 46,7.85714286 L47.1694915,7 C47.5321765,7.77841504 47.8114559,8.61429906 48,9.48571429 Z M31,7.10869565 C31.4828627,6.34291375 32.0583153,5.63506532 32.7142857,5 L34,6.2173913 C33.4418472,6.7443648 32.9634668,7.34445866 32.5789474,8 L31,7.10869565 Z M40.6747967,3.86014374 C40.1266362,3.69376034 39.5645808,3.60650533 39,3.60014374 L39,2.00014374 C39.6753425,1.99550541 40.3480971,2.10314615 41,2.32014374 L40.6747967,3.86014374 Z M32,18.2857143 L33.2214286,17 C33.7558626,17.5560848 34.3531973,18.0409222 35,18.443609 L34.1428571,20 C33.3617966,19.5274935 32.6416198,18.9513521 32,18.2857143 Z M46,4.72727273 L44.7785714,6 C44.2436183,5.44680757 43.6462297,4.96588681 43,4.56818182 L43.8571429,3 C44.6476298,3.46085928 45.3696888,4.0428826 46,4.72727273 Z M41,18.6551724 C41.7404807,18.5124891 42.4528341,18.2920962 43.1176471,18 L44,19.2068966 C43.1956146,19.5584308 42.3351874,19.8251189 41.4411765,20 L41,18.6551724 Z M37.3387097,19 C37.8826339,19.1651506 38.4400408,19.2523875 39,19.26 L39,20.86 C38.3249334,20.861913 37.6525643,20.7543339 37,20.54 L37.3387097,19 Z M37,3.31623932 C36.2597579,3.47410113 35.5482356,3.70384241 34.8823529,4 L34,2.82051282 C34.8021075,2.46012002 35.6626259,2.18418602 36.5588235,2 L37,3.31623932 Z M30,11 C30.0117537,10.3251564 30.1191652,9.65383457 30.32,9 L31.88,9.33333333 C31.7025575,9.87680196 31.6084747,10.4368185 31.6,11 L30,11 Z M46,12.6774194 C46.1761709,12.1296874 46.2635656,11.5658506 46.26,11 L47.86,11 C47.8744408,11.6756662 47.7666401,12.3494202 47.54,13 L46,12.6774194 Z M30,13.5142857 L31.3162393,13 C31.4672347,13.7491813 31.6971777,14.4698062 32,15.1428571 L30.8205128,16 C30.46012,15.2208099 30.184186,14.3848777 30,13.5142857 Z" id="path-1"></path>
        <linearGradient x1="100%" y1="0%" x2="0%" y2="100%" id="linearGradient-3">
            <stop stop-color="#FABD61" offset="0%"></stop>
            <stop stop-color="#F76B1C" offset="100%"></stop>
        </linearGradient>
    </defs>
    <g id="icons/choice_section" stroke="none" stroke-width="1" fill="none" fill-rule="evenodd">
        <mask id="mask-2" fill="white">
            <use xlink:href="#path-1"></use>
        </mask>
        <use id="Combined-Shape" fill="#00C57F" fill-rule="nonzero" xlink:href="#path-1"></use>
        <g id="Colors/Orange" mask="url(#mask-2)" fill="url(#linearGradient-3)">
            <rect id="Rectangle-2" x="0" y="0" width="50" height="50"></rect>
        </g>
    </g>
</svg>