<svg xmlns="http://www.w3.org/2000/svg" viewBox="0 0 24.05 23.65"><defs><style>.cls-1{fill:#00c57f;}</style></defs><title>growthicon</title><g id="Layer_2" data-name="Layer 2"><g id="Layer_1-2" data-name="Layer 1"><path class="cls-1" d="M20.85,22.05H19.64V14.43a4.25,4.25,0,0,0,3-1c.71-.7,1-1.76,1-3.44V9.63h-.39a4.53,4.53,0,0,0-3.41,1,2.88,2.88,0,0,0-.61.89,2.85,2.85,0,0,0-.6-.89,4.54,4.54,0,0,0-3.41-1h-.39V10c0,1.68.3,2.74,1,3.44a4.22,4.22,0,0,0,3,1v7.62h-1.2a1.2,1.2,0,0,0-1.13.8H14.36a1.2,1.2,0,0,0-1.13-.8H12V18.44a3.38,3.38,0,0,0,2.37-.8,3.62,3.62,0,0,0,.83-2.81v-.39h-.39a3.69,3.69,0,0,0-2.78.8l0,0V14a2.41,2.41,0,1,0-.8,0v1.27l0,0a3.72,3.72,0,0,0-2.79-.8H8v.39a3.66,3.66,0,0,0,.83,2.81,3.38,3.38,0,0,0,2.37.8v3.61H10a1.2,1.2,0,0,0-1.13.8H6.35a1.21,1.21,0,0,0-1.14-.8H4V20a3.36,3.36,0,0,0,2.38-.8,3.68,3.68,0,0,0,.83-2.8v-.39H6.82a3.63,3.63,0,0,0-2.78.8,2.08,2.08,0,0,0-.43.59,2.29,2.29,0,0,0-.43-.59A3.68,3.68,0,0,0,.39,16H0v.4a3.63,3.63,0,0,0,.83,2.8,3.36,3.36,0,0,0,2.38.8v2H2a1.21,1.21,0,0,0-1.13.8H0v.8H1.6v-.4a.4.4,0,0,1,.4-.4H5.21a.4.4,0,0,1,.4.4v.4h4v-.4a.4.4,0,0,1,.4-.4h3.21a.4.4,0,0,1,.4.4v.4h3.61v-.4a.4.4,0,0,1,.4-.4h3.21a.4.4,0,0,1,.4.4v.4h2.8v-.8H22A1.2,1.2,0,0,0,20.85,22.05Zm-.44-10.88a3.4,3.4,0,0,1,2.44-.74,3.49,3.49,0,0,1-.77,2.46,3.4,3.4,0,0,1-2.43.74A3.48,3.48,0,0,1,20.41,11.17Zm-4,1.72a3.45,3.45,0,0,1-.77-2.46,3.4,3.4,0,0,1,2.43.74,3.47,3.47,0,0,1,.77,2.46,3.4,3.4,0,0,1-2.43-.74Zm-3.79,2.92a2.6,2.6,0,0,1,1.81-.57,2.66,2.66,0,0,1-.59,1.83,2.6,2.6,0,0,1-1.81.57,2.64,2.64,0,0,1,.59-1.83ZM9.41,17.07a2.62,2.62,0,0,1-.58-1.83,2.59,2.59,0,0,1,1.8.57,2.64,2.64,0,0,1,.59,1.83,2.6,2.6,0,0,1-1.81-.57Zm-4.81.34a2.6,2.6,0,0,1,1.81-.57,2.64,2.64,0,0,1-.59,1.83,2.54,2.54,0,0,1-1.8.57,2.62,2.62,0,0,1,.58-1.83ZM1.39,18.67a2.6,2.6,0,0,1-.58-1.83,2.63,2.63,0,0,1,1.81.57,2.62,2.62,0,0,1,.58,1.83,2.63,2.63,0,0,1-1.81-.57Zm8.63-7a1.61,1.61,0,1,1,1.61,1.6A1.61,1.61,0,0,1,10,11.63Z"/><path class="cls-1" d="M19.24,8A3.21,3.21,0,1,0,16,4.81,3.21,3.21,0,0,0,19.24,8Zm0-4.41a.39.39,0,0,1,.4.4h.81a1.22,1.22,0,0,0-.81-1.13V2.44a2.4,2.4,0,0,1,0,4.74V6.74a1.22,1.22,0,0,0,.81-1.13c0-.84-.68-1.06-1.09-1.18s-.52-.2-.52-.42A.4.4,0,0,1,19.24,3.61Zm-.4-1.17v.44A1.2,1.2,0,0,0,18,4c0,.85.68,1.06,1.08,1.18s.52.2.52.42a.39.39,0,0,1-.4.4.4.4,0,0,1-.4-.4H18a1.2,1.2,0,0,0,.8,1.13v.44a2.4,2.4,0,0,1,0-4.74Z"/><path class="cls-1" d="M22.65,8.21a5.21,5.21,0,0,0,.76-1l-.69-.4a4.28,4.28,0,0,1-.64.83Z"/><path class="cls-1" d="M23.89,3.55a4.76,4.76,0,0,0-.49-1.16l-.69.4a3.9,3.9,0,0,1,.4,1Z"/><path class="cls-1" d="M15.07,2.41l.7.41A3.69,3.69,0,0,1,16.4,2l-.57-.56A5.21,5.21,0,0,0,15.07,2.41Z"/><path class="cls-1" d="M20.27.93l.2-.77A4.61,4.61,0,0,0,19.24,0h0V.8A4.47,4.47,0,0,1,20.27.93Z"/><path class="cls-1" d="M15.85,8.22a4.91,4.91,0,0,0,1,.76l.4-.69a4.28,4.28,0,0,1-.83-.64Z"/><path class="cls-1" d="M22.63,1.4a4.28,4.28,0,0,0-1-.76l-.4.69a4.23,4.23,0,0,1,.83.63Z"/><path class="cls-1" d="M20.29,8.68l.2.78A4.73,4.73,0,0,0,21.65,9l-.4-.7A3.83,3.83,0,0,1,20.29,8.68Z"/><path class="cls-1" d="M18.21,8.69,18,9.46a4.8,4.8,0,0,0,1.24.16h0v-.8A4.54,4.54,0,0,1,18.21,8.69Z"/><path class="cls-1" d="M18.2.94,18,.17a4.73,4.73,0,0,0-1.16.48l.4.69A4.13,4.13,0,0,1,18.2.94Z"/><path class="cls-1" d="M14.43,4.82h.8a4,4,0,0,1,.14-1l-.78-.2A5.14,5.14,0,0,0,14.43,4.82Z"/><path class="cls-1" d="M23.12,5.85l.77.2a4.31,4.31,0,0,0,.16-1.24v0l-.8,0A4.06,4.06,0,0,1,23.12,5.85Z"/><path class="cls-1" d="M14.6,6.06a4.73,4.73,0,0,0,.48,1.16l.69-.4a4.06,4.06,0,0,1-.4-1Z"/></g></g></svg>