<?xml version="1.0" encoding="UTF-8"?>
<svg width="60px" height="60px" viewBox="0 0 60 60" version="1.1" xmlns="http://www.w3.org/2000/svg" xmlns:xlink="http://www.w3.org/1999/xlink">
    <!-- Generator: Sketch 51.1 (57501) - http://www.bohemiancoding.com/sketch -->
    <title>noun_Planning_223709 (1)</title>
    <desc>Created with Sketch.</desc>
    <defs>
        <linearGradient x1="100%" y1="0%" x2="0%" y2="100%" id="linearGradient-1">
            <stop stop-color="#7065D8" offset="0%"></stop>
            <stop stop-color="#275DDF" offset="100%"></stop>
        </linearGradient>
    </defs>
    <g id="Registration-&amp;-Login" stroke="none" stroke-width="1" fill="none" fill-rule="evenodd">
        <g id="1.Home" transform="translate(-890.000000, -277.000000)" fill="url(#linearGradient-1)" fill-rule="nonzero">
            <g id="noun_Planning_223709-(1)" transform="translate(890.000000, 277.000000)">
                <path d="M41.0882957,16.8788501 L38.0082136,19.8973306 C38.7474333,20.513347 39.486653,21.1909651 40.1026694,21.9917864 L43.1211499,18.973306 C45.6468172,20.5749487 49.0349076,20.2669405 51.1909651,18.0492813 C53.7166324,15.523614 53.7166324,11.3963039 51.1909651,8.80903491 C48.6652977,6.28336756 44.5379877,6.28336756 41.9507187,8.80903491 C39.7946612,10.9650924 39.486653,14.3531828 41.0882957,16.8788501 Z M44.476386,11.2731006 C45.6468172,10.1026694 47.5564682,10.1026694 48.7268994,11.2731006 C49.8973306,12.4435318 49.8973306,14.3531828 48.7268994,15.523614 C47.5564682,16.6940452 45.6468172,16.6940452 44.476386,15.523614 C43.3059548,14.3531828 43.3059548,12.4435318 44.476386,11.2731006 Z M30,17.1252567 C30.4928131,17.1252567 30.9856263,17.1252567 31.4784394,17.1868583 L31.4784394,12.8747433 C34.3737166,12.1971253 36.5297741,9.60985626 36.5297741,6.52977413 C36.5297741,2.95687885 33.6344969,0 30,0 C26.4271047,0 23.4702259,2.89527721 23.4702259,6.52977413 C23.4702259,9.60985626 25.6262834,12.1971253 28.5215606,12.8747433 L28.5215606,17.1868583 C29.0143737,17.1252567 29.5071869,17.1252567 30,17.1252567 Z M26.9815195,6.52977413 C26.9815195,4.86652977 28.3367556,3.51129363 30,3.51129363 C31.6632444,3.51129363 33.0184805,4.86652977 33.0184805,6.52977413 C33.0184805,8.19301848 31.6632444,9.54825462 30,9.54825462 C28.3367556,9.54825462 26.9815195,8.19301848 26.9815195,6.52977413 Z M47.1252567,31.4784394 C47.8028747,34.3737166 50.3901437,36.5297741 53.4702259,36.5297741 C57.0431211,36.5297741 60,33.6344969 60,30 C60,26.4271047 57.1047228,23.4702259 53.4702259,23.4702259 C50.3901437,23.4702259 47.8028747,25.6262834 47.1252567,28.5215606 L42.8131417,28.5215606 C42.8747433,29.0143737 42.8747433,29.5071869 42.8747433,30 C42.8747433,30.4928131 42.8747433,30.9856263 42.8131417,31.4784394 L47.1252567,31.4784394 Z M53.4702259,26.9815195 C55.1334702,26.9815195 56.4887064,28.3367556 56.4887064,30 C56.4887064,31.6632444 55.1334702,33.0184805 53.4702259,33.0184805 C51.8069815,33.0184805 50.4517454,31.6632444 50.4517454,30 C50.4517454,28.3367556 51.8069815,26.9815195 53.4702259,26.9815195 Z M30,42.8747433 C29.5071869,42.8747433 29.0143737,42.8747433 28.5215606,42.8131417 L28.5215606,47.1252567 C25.6262834,47.8028747 23.4702259,50.3901437 23.4702259,53.4702259 C23.4702259,57.0431211 26.3655031,60 30,60 C33.5728953,60 36.5297741,57.1047228 36.5297741,53.4702259 C36.5297741,50.3901437 34.3737166,47.8028747 31.4784394,47.1252567 L31.4784394,42.8131417 C30.9856263,42.8747433 30.4928131,42.8747433 30,42.8747433 Z M33.0184805,53.4702259 C33.0184805,55.1334702 31.6632444,56.4887064 30,56.4887064 C28.3367556,56.4887064 26.9815195,55.1334702 26.9815195,53.4702259 C26.9815195,51.8069815 28.3367556,50.4517454 30,50.4517454 C31.6632444,50.4517454 33.0184805,51.8069815 33.0184805,53.4702259 Z M38.0082136,40.1026694 L41.026694,43.1211499 C39.4250513,45.6468172 39.7330595,49.0349076 41.9507187,51.1909651 C44.476386,53.7166324 48.6036961,53.7166324 51.1909651,51.1909651 C53.7166324,48.6652977 53.7166324,44.5379877 51.1909651,41.9507187 C48.973306,39.7330595 45.6468172,39.486653 43.1211499,41.026694 L40.1026694,38.0082136 C39.486653,38.8090349 38.8090349,39.486653 38.0082136,40.1026694 Z M44.476386,44.476386 C45.6468172,43.3059548 47.5564682,43.3059548 48.7268994,44.476386 C49.8973306,45.6468172 49.8973306,47.5564682 48.7268994,48.7268994 C47.5564682,49.8973306 45.6468172,49.8973306 44.476386,48.7268994 C43.3059548,47.5564682 43.3059548,45.6468172 44.476386,44.476386 Z M0,30 C0,33.5728953 2.89527721,36.5297741 6.52977413,36.5297741 C9.60985626,36.5297741 12.1971253,34.3737166 12.8747433,31.4784394 L17.1868583,31.4784394 C17.1252567,30.9856263 17.1252567,30.4928131 17.1252567,30 C17.1252567,29.5071869 17.1252567,29.0143737 17.1868583,28.5215606 L12.8747433,28.5215606 C12.1971253,25.6262834 9.60985626,23.4702259 6.52977413,23.4702259 C2.95687885,23.4702259 0,26.4271047 0,30 Z M9.54825462,30 C9.54825462,31.6632444 8.19301848,33.0184805 6.52977413,33.0184805 C4.86652977,33.0184805 3.51129363,31.6632444 3.51129363,30 C3.51129363,28.3367556 4.86652977,26.9815195 6.52977413,26.9815195 C8.19301848,26.9815195 9.54825462,28.3367556 9.54825462,30 Z M19.8973306,38.0082136 L16.8788501,41.0882957 C14.3531828,39.486653 10.9650924,39.7946612 8.80903491,42.0123203 C6.28336756,44.5379877 6.28336756,48.6652977 8.80903491,51.2525667 C11.3347023,53.7782341 15.4620123,53.7782341 18.0492813,51.2525667 C20.2669405,49.0349076 20.513347,45.7084189 18.973306,43.1827515 L21.9917864,40.164271 C21.1909651,39.486653 20.513347,38.8090349 19.8973306,38.0082136 Z M15.523614,48.7268994 C14.3531828,49.8973306 12.4435318,49.8973306 11.2731006,48.7268994 C10.1026694,47.5564682 10.1026694,45.6468172 11.2731006,44.476386 C12.4435318,43.3059548 14.3531828,43.3059548 15.523614,44.476386 C16.6940452,45.6468172 16.6940452,47.5564682 15.523614,48.7268994 Z M18.0492813,8.80903491 C15.523614,6.28336756 11.3963039,6.28336756 8.80903491,8.80903491 C6.22176591,11.3347023 6.28336756,15.4620123 8.80903491,18.0492813 C11.026694,20.2669405 14.3531828,20.513347 16.8788501,18.973306 L19.8973306,21.9917864 C20.513347,21.2525667 21.1909651,20.513347 21.9917864,19.8973306 L18.9117043,16.8788501 C20.513347,14.3531828 20.2053388,10.9650924 18.0492813,8.80903491 Z M15.523614,15.523614 C14.3531828,16.6940452 12.4435318,16.6940452 11.2731006,15.523614 C10.1026694,14.3531828 10.1026694,12.4435318 11.2731006,11.2731006 C12.4435318,10.1026694 14.3531828,10.1026694 15.523614,11.2731006 C16.6940452,12.4435318 16.6940452,14.3531828 15.523614,15.523614 Z M19.9589322,30 C19.9589322,35.5441478 24.4558522,40.0410678 30,40.0410678 C35.5441478,40.0410678 40.0410678,35.5441478 40.0410678,30 C40.0410678,24.4558522 35.5441478,19.9589322 30,19.9589322 C24.4558522,19.9589322 19.9589322,24.4558522 19.9589322,30 Z M24.0862423,30.5544148 C24.0862423,30.3696099 24.2710472,30.1848049 24.4558522,30.1848049 L25.4414784,30.1848049 C25.4414784,30 25.4414784,29.7535934 25.4414784,29.5687885 L24.4558522,29.5687885 C24.2710472,29.5687885 24.0862423,29.3839836 24.0862423,29.1991786 L24.0862423,28.3983573 C24.0862423,28.2135524 24.2710472,28.0287474 24.4558522,28.0287474 L25.687885,28.0287474 L25.7494867,27.9055441 C26.0574949,26.8583162 26.6119097,25.9958932 27.5359343,25.3182752 C28.2135524,24.7638604 29.0143737,24.5174538 29.8767967,24.3326489 C31.1088296,24.1478439 32.2792608,24.3326489 33.3880903,24.7638604 C33.449692,24.7638604 33.5112936,24.825462 33.5728953,24.8870637 C33.8193018,25.0718686 33.9425051,25.2566735 33.8193018,25.5646817 C33.6960986,25.8726899 33.5728953,26.1806982 33.449692,26.4887064 C33.3264887,26.7351129 33.1416838,26.8583162 32.8952772,26.7967146 C32.5256674,26.7351129 32.1560575,26.6119097 31.724846,26.4887064 C30.862423,26.3039014 30,26.3039014 29.2607803,26.6119097 C28.5831622,26.8583162 28.1519507,27.412731 27.9055441,28.0287474 C27.9055441,28.0287474 27.9055441,28.0287474 27.9055441,28.0287474 L30.2464066,28.0287474 C30.4312115,28.0287474 30.6160164,28.2135524 30.6160164,28.3983573 L30.6160164,29.1991786 C30.6160164,29.3839836 30.4312115,29.5687885 30.2464066,29.5687885 L27.5359343,29.5687885 C27.5359343,29.7535934 27.5359343,30 27.5359343,30.1848049 L30.2464066,30.1848049 C30.4312115,30.1848049 30.6160164,30.3696099 30.6160164,30.5544148 L30.6160164,31.3552361 C30.6160164,31.5400411 30.4312115,31.724846 30.2464066,31.724846 L27.7823409,31.724846 C28.0903491,32.587269 28.5831622,33.2648871 29.4455852,33.5112936 C30.1848049,33.7577002 30.9240246,33.6960986 31.6632444,33.5728953 C32.0328542,33.5112936 32.4024641,33.3880903 32.7720739,33.2648871 C33.0800821,33.2032854 33.2032854,33.2648871 33.3880903,33.5728953 C33.5112936,33.8809035 33.6344969,34.1889117 33.7577002,34.4969199 C33.8809035,34.8049281 33.8193018,34.9897331 33.5112936,35.1129363 C33.2032854,35.2361396 32.8952772,35.3593429 32.587269,35.4825462 C31.3552361,35.7905544 30.1232033,35.8521561 28.8911704,35.4209446 C27.412731,34.9281314 26.4271047,33.9425051 25.8726899,32.5256674 C25.7494867,32.2792608 25.687885,31.9712526 25.6262834,31.6632444 L24.4558522,31.6632444 C24.2710472,31.6632444 24.0862423,31.4784394 24.0862423,31.2936345 L24.0862423,30.5544148 Z" id="Shape"></path>
            </g>
        </g>
    </g>
</svg>