<?xml version="1.0" encoding="utf-8"?>
<!-- Generator: Adobe Illustrator 22.1.0, SVG Export Plug-In . SVG Version: 6.00 Build 0)  -->
<svg version="1.1" id="Layer_1" xmlns="http://www.w3.org/2000/svg" xmlns:xlink="http://www.w3.org/1999/xlink" x="0px" y="0px"
	 viewBox="0 0 60 60" style="enable-background:new 0 0 60 60;" xml:space="preserve">
<style type="text/css">
	.st0{fill:url(#Shape_1_);}
</style>
<title>noun_Planning_223709 (1)</title>
<desc>Created with Sketch.</desc>
<g id="Registration-_x26_-Login">
	<g id="_x31_.Home" transform="translate(-890.000000, -277.000000)">
		<g id="noun_x5F_Planning_x5F_223709-_x28_1_x29_" transform="translate(890.000000, 277.000000)">
			
				<linearGradient id="Shape_1_" gradientUnits="userSpaceOnUse" x1="-912.5167" y1="562.5167" x2="-913.5167" y2="561.5167" gradientTransform="matrix(60 0 0 -60 54811 33751)">
				<stop  offset="0" style="stop-color:#FABD61"/>
				<stop  offset="1" style="stop-color:#F76B1C"/>
			</linearGradient>
			<path id="Shape" class="st0" d="M41.1,16.9l-3.1,3c0.7,0.6,1.5,1.3,2.1,2.1l3-3c2.5,1.6,5.9,1.3,8.1-0.9c2.5-2.5,2.5-6.7,0-9.2
				c-2.5-2.5-6.7-2.5-9.2,0C39.8,11,39.5,14.4,41.1,16.9z M44.5,11.3c1.2-1.2,3.1-1.2,4.3,0c1.2,1.2,1.2,3.1,0,4.3
				c-1.2,1.2-3.1,1.2-4.3,0C43.3,14.4,43.3,12.4,44.5,11.3z M30,17.1c0.5,0,1,0,1.5,0.1v-4.3c2.9-0.7,5.1-3.3,5.1-6.3
				C36.5,3,33.6,0,30,0c-3.6,0-6.5,2.9-6.5,6.5c0,3.1,2.2,5.7,5.1,6.3v4.3C29,17.1,29.5,17.1,30,17.1z M27,6.5c0-1.7,1.4-3,3-3
				s3,1.4,3,3s-1.4,3-3,3S27,8.2,27,6.5z M47.1,31.5c0.7,2.9,3.3,5.1,6.3,5.1c3.6,0,6.5-2.9,6.5-6.5c0-3.6-2.9-6.5-6.5-6.5
				c-3.1,0-5.7,2.2-6.3,5.1h-4.3c0.1,0.5,0.1,1,0.1,1.5s0,1-0.1,1.5H47.1z M53.5,27c1.7,0,3,1.4,3,3s-1.4,3-3,3c-1.7,0-3-1.4-3-3
				S51.8,27,53.5,27z M30,42.9c-0.5,0-1,0-1.5-0.1v4.3c-2.9,0.7-5.1,3.3-5.1,6.3c0,3.6,2.9,6.5,6.5,6.5c3.6,0,6.5-2.9,6.5-6.5
				c0-3.1-2.2-5.7-5.1-6.3v-4.3C31,42.9,30.5,42.9,30,42.9z M33,53.5c0,1.7-1.4,3-3,3s-3-1.4-3-3c0-1.7,1.4-3,3-3S33,51.8,33,53.5z
				 M38,40.1l3,3c-1.6,2.5-1.3,5.9,0.9,8.1c2.5,2.5,6.7,2.5,9.2,0c2.5-2.5,2.5-6.7,0-9.2c-2.2-2.2-5.5-2.5-8.1-0.9l-3-3
				C39.5,38.8,38.8,39.5,38,40.1z M44.5,44.5c1.2-1.2,3.1-1.2,4.3,0c1.2,1.2,1.2,3.1,0,4.3c-1.2,1.2-3.1,1.2-4.3,0
				C43.3,47.6,43.3,45.6,44.5,44.5z M0,30c0,3.6,2.9,6.5,6.5,6.5c3.1,0,5.7-2.2,6.3-5.1h4.3c-0.1-0.5-0.1-1-0.1-1.5s0-1,0.1-1.5
				h-4.3c-0.7-2.9-3.3-5.1-6.3-5.1C3,23.5,0,26.4,0,30z M9.5,30c0,1.7-1.4,3-3,3s-3-1.4-3-3s1.4-3,3-3S9.5,28.3,9.5,30z M19.9,38
				l-3,3.1c-2.5-1.6-5.9-1.3-8.1,0.9c-2.5,2.5-2.5,6.7,0,9.2c2.5,2.5,6.7,2.5,9.2,0c2.2-2.2,2.5-5.5,0.9-8.1l3-3
				C21.2,39.5,20.5,38.8,19.9,38z M15.5,48.7c-1.2,1.2-3.1,1.2-4.3,0c-1.2-1.2-1.2-3.1,0-4.3c1.2-1.2,3.1-1.2,4.3,0
				C16.7,45.6,16.7,47.6,15.5,48.7z M18,8.8c-2.5-2.5-6.7-2.5-9.2,0s-2.5,6.7,0,9.2c2.2,2.2,5.5,2.5,8.1,0.9l3,3
				c0.6-0.7,1.3-1.5,2.1-2.1l-3.1-3C20.5,14.4,20.2,11,18,8.8z M15.5,15.5c-1.2,1.2-3.1,1.2-4.3,0s-1.2-3.1,0-4.3s3.1-1.2,4.3,0
				S16.7,14.4,15.5,15.5z M20,30c0,5.5,4.5,10,10,10s10-4.5,10-10s-4.5-10-10-10S20,24.5,20,30z M24.1,30.6c0-0.2,0.2-0.4,0.4-0.4h1
				c0-0.2,0-0.4,0-0.6h-1c-0.2,0-0.4-0.2-0.4-0.4v-0.8c0-0.2,0.2-0.4,0.4-0.4h1.2l0.1-0.1c0.3-1,0.9-1.9,1.8-2.6
				c0.7-0.6,1.5-0.8,2.3-1c1.2-0.2,2.4,0,3.5,0.4c0.1,0,0.1,0.1,0.2,0.1c0.2,0.2,0.4,0.4,0.2,0.7s-0.2,0.6-0.4,0.9
				c-0.1,0.2-0.3,0.4-0.6,0.3c-0.4-0.1-0.7-0.2-1.2-0.3c-0.9-0.2-1.7-0.2-2.5,0.1c-0.7,0.2-1.1,0.8-1.4,1.4l0,0h2.3
				c0.2,0,0.4,0.2,0.4,0.4v0.8c0,0.2-0.2,0.4-0.4,0.4h-2.7c0,0.2,0,0.4,0,0.6h2.7c0.2,0,0.4,0.2,0.4,0.4v0.8c0,0.2-0.2,0.4-0.4,0.4
				h-2.5c0.3,0.9,0.8,1.5,1.7,1.8c0.7,0.2,1.5,0.2,2.2,0.1c0.4-0.1,0.7-0.2,1.1-0.3c0.3-0.1,0.4,0,0.6,0.3c0.1,0.3,0.2,0.6,0.4,0.9
				c0.1,0.3,0.1,0.5-0.2,0.6c-0.3,0.1-0.6,0.2-0.9,0.4c-1.2,0.3-2.5,0.4-3.7-0.1c-1.5-0.5-2.5-1.5-3-2.9c-0.1-0.2-0.2-0.6-0.2-0.9
				h-1.2c-0.2,0-0.4-0.2-0.4-0.4V30.6z"/>
		</g>
	</g>
</g>
</svg>
