<?xml version="1.0" encoding="UTF-8"?>
<svg width="60px" height="60px" viewBox="0 0 60 60" version="1.1" xmlns="http://www.w3.org/2000/svg" xmlns:xlink="http://www.w3.org/1999/xlink">
    <!-- Generator: Sketch 51.1 (57501) - http://www.bohemiancoding.com/sketch -->
    <title>noun_investor_1855428</title>
    <desc>Created with Sketch.</desc>
    <defs>
        <linearGradient x1="100%" y1="0%" x2="0%" y2="100%" id="linearGradient-1">
            <stop stop-color="#7065D8" offset="0%"></stop>
            <stop stop-color="#275DDF" offset="100%"></stop>
        </linearGradient>
    </defs>
    <g id="Registration-&amp;-Login" stroke="none" stroke-width="1" fill="none" fill-rule="evenodd">
        <g id="1.Home" transform="translate(-570.000000, -277.000000)" fill="url(#linearGradient-1)" fill-rule="nonzero">
            <g id="noun_investor_1855428" transform="translate(570.000000, 277.000000)">
                <g id="Group">
                    <path d="M34.4787018,58.9346939 L34.4787018,52.2857143 C34.4787018,46.9102041 30.1338742,42.5387755 24.7910751,42.5387755 L23.36714,42.5387755 L23.36714,40.9346939 C26.3123732,39.0244898 28.198783,35.9142857 28.5395538,32.4367347 L30.3407708,30.955102 C31.6186613,29.9020408 32.0689655,28.1510204 31.4482759,26.6081633 C30.9736308,25.4204082 29.8782961,24.5632653 28.6004057,24.3183673 L28.6004057,23.9387755 L28.5882353,23.9387755 C28.6977688,22.6040816 28.7829615,21.0489796 28.4787018,19.5306122 C28.0770791,17.4734694 26.9817444,15.7836735 25.484787,14.9020408 C25.4117647,14.8530612 25.326572,14.8163265 25.2535497,14.7673469 C25.0831643,14.6693878 24.9127789,14.5836735 24.8397566,14.4979592 C24.7667343,14.4244898 24.693712,14.2897959 24.6085193,14.1428571 C24.5841785,14.0938776 24.5598377,14.0571429 24.535497,14.0081633 C23.8782961,12.8693878 22.8924949,11.9265306 21.6997972,11.277551 C19.9716024,10.3346939 17.8052738,10.0408163 15.6024341,10.4204082 C13.8498986,10.7265306 12.0973631,11.4244898 10.0770791,12.6 C9.85801217,12.7346939 9.63894523,12.8571429 9.40770791,12.9918367 C8.34888438,13.6285714 7.33874239,14.2285714 6.25557809,14.4612245 C4.80730223,14.7673469 3.11561866,14.3755102 1.72819473,13.3959184 C1.29006085,13.0897959 0.681541582,13.2 0.377281947,13.6408163 C0.182555781,13.922449 0.15821501,14.277551 0.267748479,14.5714286 C0.279918864,14.8163265 0.267748479,15.4040816 0.255578093,15.6734694 C0.243407708,16.0285714 0.243407708,16.1877551 0.243407708,16.3102041 C0.304259635,17.1183673 0.425963489,17.8897959 0.60851927,18.6 C1.03448276,20.2897959 1.76470588,21.7102041 2.77484787,22.8244898 C3.40770791,23.522449 4.16227181,24.0979592 5.01419878,24.5510204 C4.07707911,24.9306122 3.31034483,25.6653061 2.93306288,26.6081633 C2.31237323,28.1510204 2.76267748,29.9020408 4.04056795,30.955102 L5.87829615,32.4489796 C6.23123732,35.9265306 8.11764706,39.0244898 11.0385396,40.922449 L11.0385396,42.5265306 L9.68762677,42.5265306 C4.34482759,42.5265306 0,46.9102041 0,52.2857143 L0,58.9469388 C0,59.4857143 0.438133874,59.9265306 0.973630832,59.9265306 L33.505071,59.9265306 C34.040568,59.9142857 34.4787018,59.4857143 34.4787018,58.9346939 Z M28.5882353,26.3265306 C29.0628803,26.5102041 29.4523327,26.8653061 29.6348884,27.3183673 C29.9269777,28.0653061 29.7200811,28.9102041 29.0993915,29.4244898 L28.5882353,29.8408163 L28.5882353,26.3265306 Z M5.81744422,29.8653061 L5.26977688,29.4122449 C4.64908722,28.8979592 4.43002028,28.0530612 4.73427992,27.3061224 C4.9168357,26.8408163 5.3306288,26.4734694 5.81744422,26.3020408 C5.81744422,26.3020408 5.81744422,29.8653061 5.81744422,29.8653061 Z M7.09533469,23.2897959 C5.96348884,22.922449 4.96551724,22.2979592 4.21095335,21.4653061 C3.4198783,20.5959184 2.8356998,19.4571429 2.49492901,18.0857143 C2.34888438,17.4857143 2.23935091,16.8244898 2.17849899,16.1265306 C2.17849899,16.077551 2.17849899,15.9795918 2.17849899,15.8571429 C3.63894523,16.4816327 5.19675456,16.6653061 6.64503043,16.3469388 C8.04462475,16.0530612 9.23732252,15.3306122 10.3935091,14.644898 C10.6125761,14.5102041 10.8194726,14.3877551 11.0385396,14.2653061 C12.851927,13.2 14.4097363,12.5877551 15.9188641,12.3183673 C17.7079108,12.0122449 19.4239351,12.2326531 20.7626775,12.9673469 C21.6511156,13.444898 22.3691684,14.1428571 22.8438134,14.9632653 C22.8681542,15 22.8803245,15.0367347 22.9046653,15.0734694 C23.0263692,15.2938776 23.1845842,15.5755102 23.4279919,15.8204082 C23.7079108,16.1142857 24.0365112,16.2979592 24.3042596,16.444898 C24.3651116,16.4816327 24.4259635,16.5183673 24.4868154,16.555102 C25.5091278,17.155102 26.2636917,18.3673469 26.5557809,19.8857143 C26.7870183,21.0979592 26.7383367,22.4081633 26.653144,23.5714286 L26.6409736,23.5714286 C25.8498986,21.9795918 24.6572008,20.7918367 23.2332657,20.2040816 C22.0040568,19.6897959 20.5436105,19.5918367 18.9127789,19.9102041 C17.6470588,20.155102 16.4421907,20.6081633 15.346856,21.244898 C14.9939148,21.4530612 14.653144,21.6734694 14.3245436,21.8938776 C13.9959432,22.1142857 13.6795132,22.322449 13.3509128,22.5061224 C11.8539554,23.3632653 10.137931,23.7428571 8.53144016,23.5836735 C8.04462475,23.5469388 7.55780933,23.4489796 7.09533469,23.2897959 Z M7.77687627,31.7142857 C7.76470588,31.5795918 7.76470588,31.444898 7.76470588,31.2857143 L7.76470588,25.4693878 C7.94726166,25.5061224 8.14198783,25.5306122 8.32454361,25.5428571 C8.64097363,25.5795918 8.94523327,25.5918367 9.26166329,25.5918367 C10.989858,25.5918367 12.7423935,25.1142857 14.3123732,24.2204082 C14.6896552,24 15.0425963,23.7673469 15.3833671,23.5469388 C15.6997972,23.3387755 16.0040568,23.1428571 16.3204868,22.9591837 C17.2332657,22.4326531 18.2312373,22.0530612 19.2900609,21.844898 C20.5436105,21.6 21.6267748,21.6612245 22.4908722,22.0163265 C23.5862069,22.4816327 24.5476673,23.5346939 25.1196755,24.9306122 C25.1318458,24.9428571 25.1318458,24.9673469 25.1440162,24.9795918 C25.1926978,25.0897959 25.2657201,25.1877551 25.3509128,25.2734694 C25.5334686,25.444898 25.7768763,25.5428571 26.0324544,25.5428571 L26.6409736,25.5306122 L26.6409736,31.2734694 C26.6409736,31.4326531 26.6409736,31.5673469 26.6288032,31.7020408 C26.4827586,34.9591837 24.7180527,37.8734694 21.9066937,39.5020408 C20.4827586,40.322449 18.851927,40.7632653 17.2089249,40.7632653 C15.5537525,40.7632653 13.9229209,40.322449 12.5111562,39.5020408 C9.68762677,37.8979592 7.92292089,34.9714286 7.77687627,31.7142857 Z M17.7444219,47.9755102 L19.2170385,51.4408163 C17.9269777,52.0285714 16.4300203,52.0285714 15.1399594,51.4408163 L16.6612576,48.0244898 C16.8194726,47.6693878 16.7464503,47.2530612 16.4908722,46.9591837 L12.9979716,43.1265306 L12.9979716,41.9265306 C14.336714,42.4653061 15.7606491,42.7346939 17.2089249,42.7346939 C18.6572008,42.7346939 20.0933063,42.4530612 21.4198783,41.9265306 L21.4198783,43.1142857 L17.9269777,46.922449 C17.6713996,47.2163265 17.5983773,47.6204082 17.7444219,47.9755102 Z M14.6166329,47.8163265 L13.8255578,49.6040816 L11.6470588,44.5591837 L14.6166329,47.8163265 Z M22.8194726,44.4857143 L22.8559838,44.4857143 L20.6044625,49.7142857 L19.7890467,47.7918367 L22.8194726,44.4857143 Z M1.94726166,57.955102 L1.94726166,52.2857143 C1.94726166,48.0489796 5.31845842,44.6081633 9.50507099,44.4979592 L12.8762677,52.3102041 C12.9006085,52.3591837 12.9127789,52.3959184 12.9492901,52.444898 L16.3813387,57.9673469 L1.94726166,57.9673469 L1.94726166,57.955102 Z M16.0527383,53.7428571 C16.8438134,53.877551 17.6592292,53.8653061 18.4624746,53.7183673 L17.2454361,55.6653061 L16.0527383,53.7428571 Z M32.5314402,57.955102 L18.1095335,57.955102 L21.5172414,52.4816327 C21.5415822,52.444898 21.5659229,52.3959184 21.5902637,52.3469388 L24.9858012,44.4857143 C29.1724138,44.5836735 32.5436105,48.0367347 32.5436105,52.2734694 L32.5436105,57.955102 L32.5314402,57.955102 Z" id="Shape"></path>
                    <path d="M59.8782961,25.2489796 C59.8661258,23.3877551 55.959432,22.8857143 53.5618661,22.8857143 C53.525355,22.8857143 53.4888438,22.8857143 53.4401623,22.8857143 C53.2089249,22.8857143 52.9776876,22.8979592 52.7464503,22.8979592 L52.7342799,21.955102 L52.6855984,14.8040816 C52.673428,12.9428571 48.7667343,12.4408163 46.3691684,12.4408163 C46.3326572,12.4408163 46.296146,12.4408163 46.2474645,12.4408163 C44.6653144,12.4530612 43.168357,12.6489796 42.0243408,12.9918367 C40.5760649,13.4326531 39.8458418,14.0693878 39.8458418,14.8897959 L39.8580122,17.277551 L39.8701826,19.6653061 L39.9188641,26.8163265 C39.9188641,27.6489796 40.6612576,28.2734694 42.1217039,28.6897959 C43.2292089,29.0081633 44.6774848,29.1795918 46.2109533,29.1795918 C46.2596349,29.1795918 46.3083164,29.1795918 46.356998,29.1795918 C46.5882353,29.1795918 46.8194726,29.1673469 47.0507099,29.155102 L47.0628803,30.0979592 C47.0628803,30.9306122 47.8052738,31.555102 49.2657201,31.9714286 C50.3732252,32.2897959 51.821501,32.4612245 53.3549696,32.4612245 C53.4036511,32.4612245 53.4523327,32.4612245 53.5010142,32.4612245 C55.0953347,32.4489796 56.5922921,32.2530612 57.7241379,31.922449 C59.1724138,31.4816327 59.9026369,30.844898 59.9026369,30.0244898 L59.1724138,30.0244898 L59.9026369,30.0244898 L59.8782961,25.2489796 Z M58.4421907,27.5877551 C58.198783,27.9061224 56.5314402,28.5918367 53.4888438,28.6163265 C53.4401623,28.6163265 53.4036511,28.6163265 53.3549696,28.6163265 C50.4097363,28.6163265 48.7789047,27.9673469 48.5233266,27.6612245 L48.5233266,26.9510204 C49.8864097,27.5142857 51.9066937,27.6979592 53.36714,27.6979592 C53.4036511,27.6979592 53.4401623,27.6979592 53.4888438,27.6979592 C55.0709939,27.6857143 56.5679513,27.4897959 57.7119675,27.1469388 C57.979716,27.0612245 58.2231237,26.9755102 58.4421907,26.8897959 L58.4421907,27.5877551 Z M53.464503,24.355102 C53.5131846,24.355102 53.5496957,24.355102 53.5983773,24.355102 C56.3488844,24.355102 57.9553753,24.9306122 58.356998,25.2612245 C57.9553753,25.5918367 56.3123732,26.2040816 53.4766734,26.2285714 C50.6409736,26.2408163 48.9858012,25.6530612 48.5841785,25.322449 C48.9736308,24.9918367 50.6288032,24.3795918 53.464503,24.355102 Z M51.2738337,19.5306122 C51.030426,19.8489796 49.3630832,20.5346939 46.3204868,20.5591837 C43.2900609,20.5836735 41.6105477,19.9102041 41.3549696,19.6040816 L41.3549696,18.9183673 C41.5740365,19.0040816 41.8174442,19.0897959 42.0851927,19.1632653 C43.1926978,19.4816327 44.6409736,19.6530612 46.1744422,19.6530612 C46.2231237,19.6530612 46.2718053,19.6530612 46.3204868,19.6530612 C47.9148073,19.6408163 49.4117647,19.444898 50.5436105,19.1142857 C50.811359,19.0285714 51.0547667,18.9428571 51.2738337,18.8571429 L51.2738337,19.5306122 Z M46.2839757,13.922449 C49.1196755,13.8979592 50.7748479,14.4979592 51.1764706,14.8285714 C50.7748479,15.1591837 49.1318458,15.7714286 46.296146,15.7959184 C43.4604462,15.8081633 41.8052738,15.2204082 41.4036511,14.8897959 C41.8052738,14.5469388 43.4482759,13.9346939 46.2839757,13.922449 Z M46.1866126,17.2530612 C46.2231237,17.2530612 46.2596349,17.2530612 46.3083164,17.2530612 C47.8904665,17.2408163 49.3874239,17.044898 50.5314402,16.7020408 C50.7991886,16.6163265 51.0425963,16.5306122 51.2616633,16.444898 L51.2616633,17.1428571 C51.0182556,17.4612245 49.3509128,18.1469388 46.3083164,18.1714286 C43.2778905,18.1959184 41.5983773,17.522449 41.3427992,17.2163265 L41.3427992,16.5061224 C42.7058824,17.0693878 44.7261663,17.2530612 46.1866126,17.2530612 Z M41.4158215,26.8040816 L40.6855984,26.8040816 L41.4158215,26.8040816 Z M46.3691684,27.7102041 C43.3387424,27.7346939 41.6592292,27.0612245 41.4036511,26.755102 L41.4036511,26.0693878 C41.6227181,26.155102 41.8661258,26.2408163 42.1338742,26.3142857 C43.2413793,26.6326531 44.6896552,26.8040816 46.2231237,26.8040816 C46.2718053,26.8040816 46.3204868,26.8040816 46.3691684,26.8040816 C46.6125761,26.8040816 46.831643,26.7918367 47.0628803,26.7795918 L47.0628803,27.6979592 C46.8438134,27.6979592 46.6125761,27.7102041 46.3691684,27.7102041 Z M47.0507099,25.2979592 C46.8194726,25.3102041 46.6004057,25.322449 46.356998,25.322449 C43.326572,25.3469388 41.6470588,24.6734694 41.3914807,24.3673469 L41.3914807,23.6816327 C41.6105477,23.7673469 41.8539554,23.8530612 42.1217039,23.9265306 C43.2292089,24.244898 44.6774848,24.4163265 46.2109533,24.4163265 C46.2596349,24.4163265 46.3083164,24.4163265 46.356998,24.4163265 C46.7342799,24.4163265 47.0993915,24.4040816 47.464503,24.3795918 C47.1967546,24.6489796 47.0628803,24.955102 47.0507099,25.2979592 Z M46.3448276,22.9346939 C43.3144016,22.9591837 41.6348884,22.2857143 41.3793103,21.9795918 L41.3793103,21.2938776 C41.5983773,21.3795918 41.841785,21.4653061 42.1095335,21.5387755 C43.2170385,21.8571429 44.6653144,22.0285714 46.198783,22.0285714 C46.2474645,22.0285714 46.296146,22.0285714 46.3448276,22.0285714 C47.9391481,22.0163265 49.4361055,21.8204082 50.5679513,21.4897959 C50.8356998,21.4040816 51.0791075,21.3183673 51.2981744,21.2326531 L51.2981744,21.9183673 C51.0425963,22.2244898 49.3752535,22.922449 46.3448276,22.9346939 Z M48.5476673,30.0979592 L47.8174442,30.0979592 L48.5476673,30.0979592 Z M53.5010142,30.9918367 C53.4523327,30.9918367 53.4158215,30.9918367 53.36714,30.9918367 C50.4219067,30.9918367 48.7910751,30.3428571 48.535497,30.0367347 L48.535497,29.3510204 C48.7545639,29.4367347 48.9979716,29.522449 49.2657201,29.5959184 C50.3732252,29.9142857 51.821501,30.0857143 53.3549696,30.0857143 C53.4036511,30.0857143 53.4523327,30.0857143 53.5010142,30.0857143 C55.0953347,30.0734694 56.5922921,29.877551 57.7241379,29.5469388 C57.9918864,29.4612245 58.2352941,29.3755102 58.4543611,29.2897959 L58.4543611,29.9755102 C58.2109533,30.2816327 56.5436105,30.9795918 53.5010142,30.9918367 Z" id="Shape"></path>
                    <rect id="Rectangle-path" x="36.3651116" y="16.8612245" width="1.46044625" height="5.62040816"></rect>
                    <rect id="Rectangle-path" x="32.5314402" y="14.7306122" width="1.46044625" height="7.73877551"></rect>
                    <path d="M33.3346856,12.1714286 C34.7829615,12.1714286 35.9634888,10.9836735 35.9634888,9.52653061 C35.9634888,9.41632653 35.9513185,9.30612245 35.9391481,9.20816327 L37.484787,7.92244898 C37.9350913,8.74285714 38.7991886,9.30612245 39.7971602,9.30612245 C41.2454361,9.30612245 42.4259635,8.11836735 42.4259635,6.66122449 L42.4259635,6.64897959 L44.5436105,7.06530612 C44.969574,7.94693878 45.8701826,8.55918367 46.9046653,8.55918367 C48.3407708,8.55918367 49.5091278,7.39591837 49.5334686,5.96326531 L51.6389452,4.76326531 C52.1014199,5.15510204 52.6855984,5.3877551 53.3306288,5.3877551 C54.7789047,5.3877551 55.959432,4.2 55.959432,2.74285714 C55.959432,1.28571429 54.7789047,0.0979591837 53.3306288,0.0979591837 C51.8823529,0.0979591837 50.7018256,1.28571429 50.7018256,2.74285714 C50.7018256,3.0244898 50.7505071,3.29387755 50.8235294,3.53877551 L49.1196755,4.50612245 C48.6572008,3.75918367 47.8296146,3.26938776 46.8924949,3.26938776 C45.5659229,3.26938776 44.4705882,4.26122449 44.2880325,5.53469388 L41.8539554,5.05714286 C41.36714,4.43265306 40.6125761,4.02857143 39.7728195,4.02857143 C38.4584178,4.02857143 37.3630832,5.00816327 37.168357,6.28163265 L35.306288,7.8122449 C34.8194726,7.24897959 34.1014199,6.88163265 33.3103448,6.88163265 C31.862069,6.88163265 30.6815416,8.06938776 30.6815416,9.52653061 C30.6815416,10.9836735 31.8864097,12.1714286 33.3346856,12.1714286 Z M53.3549696,1.55510204 C54,1.55510204 54.5233266,2.08163265 54.5233266,2.73061224 C54.5233266,3.37959184 54,3.90612245 53.3549696,3.90612245 C52.7099391,3.90612245 52.1866126,3.37959184 52.1866126,2.73061224 C52.1866126,2.08163265 52.7099391,1.55510204 53.3549696,1.55510204 Z M46.9168357,4.72653061 C47.5618661,4.72653061 48.0851927,5.25306122 48.0851927,5.90204082 C48.0851927,6.55102041 47.5618661,7.07755102 46.9168357,7.07755102 C46.2718053,7.07755102 45.7484787,6.55102041 45.7484787,5.90204082 C45.7484787,5.25306122 46.2718053,4.72653061 46.9168357,4.72653061 Z M39.7971602,5.48571429 C40.4421907,5.48571429 40.9655172,6.0122449 40.9655172,6.66122449 C40.9655172,7.31020408 40.4421907,7.83673469 39.7971602,7.83673469 C39.1521298,7.83673469 38.6288032,7.31020408 38.6288032,6.66122449 C38.6288032,6.0122449 39.1521298,5.48571429 39.7971602,5.48571429 Z M33.3346856,8.33877551 C33.979716,8.33877551 34.5030426,8.86530612 34.5030426,9.51428571 C34.5030426,10.1632653 33.979716,10.6897959 33.3346856,10.6897959 C32.6896552,10.6897959 32.1663286,10.1632653 32.1663286,9.51428571 C32.1663286,8.86530612 32.6896552,8.33877551 33.3346856,8.33877551 Z" id="Shape"></path>
                </g>
            </g>
        </g>
    </g>
</svg>