<?xml version="1.0" encoding="utf-8"?>
<!-- Generator: Adobe Illustrator 22.1.0, SVG Export Plug-In . SVG Version: 6.00 Build 0)  -->
<svg version="1.1" id="Layer_1" xmlns="http://www.w3.org/2000/svg" xmlns:xlink="http://www.w3.org/1999/xlink" x="0px" y="0px"
	 viewBox="0 0 60 60" style="enable-background:new 0 0 60 60;" xml:space="preserve">
<style type="text/css">
	.st0{fill:url(#Shape_4_);}
	.st1{fill:url(#Shape_5_);}
	.st2{fill:url(#Shape_6_);}
	.st3{fill:url(#Shape_7_);}
</style>
<title>noun_funding_1018323</title>
<desc>Created with Sketch.</desc>
<g id="Registration-_x26_-Login">
	<g id="_x31_.Home" transform="translate(-250.000000, -277.000000)">
		<g id="noun_funding_1018323" transform="translate(250.000000, 277.000000)">
			
				<linearGradient id="Shape_4_" gradientUnits="userSpaceOnUse" x1="-773.1667" y1="486.1667" x2="-774.1667" y2="485.1667" gradientTransform="matrix(6 0 0 -6 4649 2961)">
				<stop  offset="0" style="stop-color:#FABD61"/>
				<stop  offset="1" style="stop-color:#F76B1C"/>
			</linearGradient>
			<path id="Shape" class="st0" d="M7,44c-1.7,0-3,1.3-3,3s1.3,3,3,3s3-1.3,3-3S8.7,44,7,44z M7,48c-0.6,0-1-0.4-1-1s0.4-1,1-1
				s1,0.4,1,1S7.6,48,7,48z"/>
			
				<linearGradient id="Shape_5_" gradientUnits="userSpaceOnUse" x1="-835.1" y1="520.1" x2="-836.1" y2="519.1" gradientTransform="matrix(10 0 0 -10 8395 5214)">
				<stop  offset="0" style="stop-color:#FABD61"/>
				<stop  offset="1" style="stop-color:#F76B1C"/>
			</linearGradient>
			<path id="Shape_1_" class="st1" d="M39,13c-2.8,0-5,2.2-5,5s2.2,5,5,5s5-2.2,5-5S41.8,13,39,13z M39,21c-1.7,0-3-1.3-3-3
				s1.3-3,3-3s3,1.3,3,3S40.7,21,39,21z"/>
			
				<linearGradient id="Shape_6_" gradientUnits="userSpaceOnUse" x1="-912.5912" y1="562.5912" x2="-913.5912" y2="561.5912" gradientTransform="matrix(60 0 0 -60 54811 33751)">
				<stop  offset="0" style="stop-color:#FABD61"/>
				<stop  offset="1" style="stop-color:#F76B1C"/>
			</linearGradient>
			<path id="Shape_2_" class="st2" d="M59,0H19c-0.6,0-1,0.4-1,1v10c-0.8-0.9-1.7-1.6-2.8-2.2c0.1-0.2,0.1-0.4,0.2-0.6L16,4
				c0,0,0-0.1,0-0.1c0-1.1-0.7-2.1-1.7-2.5c-0.7-0.3-1.4-0.3-2-0.1l0,0C11.8,0.5,10.9,0,10,0S8.2,0.5,7.7,1.2l0,0
				C7.1,1,6.4,1,5.7,1.3C4.7,1.7,4,2.7,4,3.8c0,0,0,0.1,0,0.1l0.6,4.2c0,0.2,0.1,0.4,0.2,0.6c-2.7,1.4-4.5,3.8-4.7,6.9
				C0,15.8,0,15.9,0,16v11c0,0,0,0,0,0c0,0.1,0,0.2,0.1,0.3c0,0,0,0,0,0.1c0,0.1,0.1,0.1,0.1,0.2l3,4C3.4,31.9,3.7,32,4,32h15.6
				c-0.3,0.6-0.6,1.3-0.6,2v5.5l-5,4.3V41c0-0.6-0.4-1-1-1H1c-0.6,0-1,0.4-1,1v18c0,0.6,0.4,1,1,1h12c0.5,0,0.9-0.4,1-0.9L26.9,60
				c0,0,0,0,0.1,0c0.1,0,0.2,0,0.4-0.1l13-5c0.1-0.1,0.3-0.1,0.4-0.2l19-20c0.2-0.2,0.3-0.4,0.3-0.7c0-1.7-0.9-3.1-2.3-3.7l2.1-2.7
				c0-0.1,0.1-0.1,0.1-0.2c0,0,0,0,0-0.1c0-0.1,0.1-0.2,0.1-0.3c0,0,0,0,0,0V1C60,0.4,59.6,0,59,0z M25.9,26c-0.5-2.3-2.5-4-4.9-4
				h-1v-8h1c2.4,0,4.4-1.7,4.9-4h26.2c0.5,2.3,2.5,4,4.9,4h1v8h-1c-2.4,0-4.4,1.7-4.9,4H25.9z M20,24h1c1.3,0,2.4,0.8,2.8,2H20V24z
				 M58,8H20V6h38V8z M58,12h-1c-1.3,0-2.4-0.8-2.8-2H58V12z M20,10h3.8c-0.4,1.2-1.5,2-2.8,2h-1V10z M57,24h1v2h-3.8
				C54.6,24.8,55.7,24,57,24z M20,2h38v2H20V2z M6.6,8.1c0-0.1,0-0.1,0-0.2L6,3.8c0-0.4,0.4-0.6,0.5-0.6C6.6,3.1,7,3,7.3,3.3
				c0.2,0.2,0.5,0.3,0.8,0.3c0.3,0,0.6-0.2,0.7-0.4l0.5-0.8C9.6,2,9.9,2,10,2s0.4,0,0.6,0.3l0.5,0.8c0.2,0.2,0.4,0.4,0.7,0.4
				c0.3,0,0.6-0.1,0.8-0.3C13,3,13.4,3.1,13.5,3.1c0.1,0,0.4,0.2,0.5,0.6l-0.6,4.1c0,0.1,0,0.1,0,0.2c0,0,0,0,0,0
				c-0.2-0.1-0.5-0.1-0.7-0.2c-0.1,0-0.1,0-0.2,0c-0.2,0-0.4-0.1-0.6-0.1c-0.1,0-0.3,0-0.4,0c-0.2,0-0.3,0-0.5,0c-0.3,0-0.6,0-0.9,0
				s-0.6,0-0.9,0c-0.2,0-0.3,0-0.5,0c-0.1,0-0.3,0-0.4,0C8,7.8,7.8,7.8,7.6,7.8c-0.1,0-0.1,0-0.2,0C7.1,7.9,6.9,8,6.6,8.1
				C6.7,8.1,6.7,8.1,6.6,8.1z M2,16.2c0-0.1,0-0.1,0-0.2c0.2-2.7,1.8-4.8,4.4-5.8c0,0,0,0,0.1,0c2.2-0.8,4.9-0.8,7,0c0,0,0,0,0.1,0
				c2.6,1,4.2,3.1,4.4,5.8c0,0.1,0,0.1,0,0.2V23v3H2V16.2z M3,28h54l-1.5,2h-51L3,28z M27,49.1v-0.6l12.6-12.6
				c0.5-0.3,1.3-0.4,1.7-0.1c0.4,0.4,0.4,1.2,0,1.6L35.6,43C32.6,45.1,29.6,47.2,27,49.1z M42.7,34.3c-1.2-1.2-3.1-0.9-4.3-0.1
				c0,0-0.1,0.1-0.1,0.1L27,45.6V34c0-0.7-0.2-1.4-0.6-2H52c-2.3,1.4-5.3,3.4-8.6,5.6C43.8,36.5,43.6,35.2,42.7,34.3z M2,58V42h10v4
				v12H2z M39.4,53.1L26.8,58L14,57.1V46.5l6.7-5.7c0.2-0.2,0.3-0.5,0.3-0.8v-6c0-1.1,0.9-2,2-2s2,0.9,2,2v14v3
				c0,0.4,0.2,0.7,0.5,0.9c0.1,0,0.2,0.1,0.2,0.1c0,0,0.1,0,0.1,0c0,0,0.1,0,0.1,0c0,0,0,0,0,0c0.1,0,0.1,0,0.2,0c0,0,0.1,0,0.1,0
				c0.1,0,0.2-0.1,0.3-0.1c0,0,4.6-3.3,10.2-7.2c0,0,0,0,0,0c8.8-6.1,17.8-12.2,19.3-12.6c1.4,0,1.8,1,1.9,1.6L39.4,53.1z"/>
			
				<linearGradient id="Shape_7_" gradientUnits="userSpaceOnUse" x1="-773.1667" y1="528.5833" x2="-774.1667" y2="527.5833" gradientTransform="matrix(6 0 0 -12 4652 6355)">
				<stop  offset="0" style="stop-color:#FABD61"/>
				<stop  offset="1" style="stop-color:#F76B1C"/>
			</linearGradient>
			<path id="Shape_3_" class="st3" d="M10,15c0.6,0,1,0.4,1,1h2c0-1.3-0.8-2.4-2-2.8V12H9v1.2c-1.2,0.4-2,1.5-2,2.8c0,1.7,1.3,3,3,3
				c0.6,0,1,0.4,1,1s-0.4,1-1,1s-1-0.4-1-1H7c0,1.3,0.8,2.4,2,2.8V24h2v-1.2c1.2-0.4,2-1.5,2-2.8c0-1.7-1.3-3-3-3c-0.6,0-1-0.4-1-1
				S9.4,15,10,15z"/>
		</g>
	</g>
</g>
</svg>
