<?xml version="1.0" encoding="utf-8"?>
<!-- Generator: Adobe Illustrator 22.1.0, SVG Export Plug-In . SVG Version: 6.00 Build 0)  -->
<svg version="1.1" id="Layer_1" xmlns="http://www.w3.org/2000/svg" xmlns:xlink="http://www.w3.org/1999/xlink" x="0px" y="0px"
	 viewBox="0 0 60 60" style="enable-background:new 0 0 60 60;" xml:space="preserve">
<style type="text/css">
	.st0{fill:url(#Shape_3_);}
	.st1{fill:url(#Shape_4_);}
	.st2{fill:url(#Rectangle-path_2_);}
	.st3{fill:url(#Rectangle-path_3_);}
	.st4{fill:url(#Shape_5_);}
</style>
<title>noun_investor_1855428</title>
<desc>Created with Sketch.</desc>
<g id="Registration-_x26_-Login">
	<g id="_x31_.Home" transform="translate(-570.000000, -277.000000)">
		<g id="noun_investor_1855428" transform="translate(570.000000, 277.000000)">
			<g id="Group">
				
					<linearGradient id="Shape_3_" gradientUnits="userSpaceOnUse" x1="-901.0395" y1="560.7354" x2="-902.0395" y2="559.7354" gradientTransform="matrix(34.4787 0 0 -49.6671 31101.7148 27861.1953)">
					<stop  offset="0" style="stop-color:#FABD61"/>
					<stop  offset="1" style="stop-color:#F76B1C"/>
				</linearGradient>
				<path id="Shape" class="st0" d="M34.5,58.9v-6.6c0-5.4-4.3-9.7-9.7-9.7h-1.4v-1.6c2.9-1.9,4.8-5,5.2-8.5l1.8-1.5
					c1.3-1.1,1.7-2.8,1.1-4.3c-0.5-1.2-1.6-2-2.8-2.3v-0.4h0c0.1-1.3,0.2-2.9-0.1-4.4c-0.4-2.1-1.5-3.7-3-4.6
					c-0.1,0-0.2-0.1-0.2-0.1c-0.2-0.1-0.3-0.2-0.4-0.3c-0.1-0.1-0.1-0.2-0.2-0.4c0,0,0-0.1-0.1-0.1c-0.7-1.1-1.6-2.1-2.8-2.7
					c-1.7-0.9-3.9-1.2-6.1-0.9c-1.8,0.3-3.5,1-5.5,2.2c-0.2,0.1-0.4,0.3-0.7,0.4c-1.1,0.6-2.1,1.2-3.2,1.5c-1.4,0.3-3.1-0.1-4.5-1.1
					c-0.4-0.3-1-0.2-1.4,0.2c-0.2,0.3-0.2,0.6-0.1,0.9c0,0.2,0,0.8,0,1.1c0,0.4,0,0.5,0,0.6c0.1,0.8,0.2,1.6,0.4,2.3
					c0.4,1.7,1.2,3.1,2.2,4.2c0.6,0.7,1.4,1.3,2.2,1.7c-0.9,0.4-1.7,1.1-2.1,2.1C2.3,28.2,2.8,29.9,4,31l1.8,1.5
					c0.4,3.5,2.2,6.6,5.2,8.5v1.6H9.7c-5.3,0-9.7,4.4-9.7,9.8v6.7c0,0.5,0.4,1,1,1h32.5C34,59.9,34.5,59.5,34.5,58.9z M28.6,26.3
					c0.5,0.2,0.9,0.5,1,1c0.3,0.7,0.1,1.6-0.5,2.1l-0.5,0.4V26.3z M5.8,29.9l-0.5-0.5c-0.6-0.5-0.8-1.4-0.5-2.1
					c0.2-0.5,0.6-0.8,1.1-1V29.9z M7.1,23.3c-1.1-0.4-2.1-1-2.9-1.8c-0.8-0.9-1.4-2-1.7-3.4c-0.1-0.6-0.3-1.3-0.3-2c0,0,0-0.1,0-0.3
					c1.5,0.6,3,0.8,4.5,0.5c1.4-0.3,2.6-1,3.7-1.7c0.2-0.1,0.4-0.3,0.6-0.4c1.8-1.1,3.4-1.7,4.9-1.9c1.8-0.3,3.5-0.1,4.8,0.6
					c0.9,0.5,1.6,1.2,2.1,2c0,0,0,0.1,0.1,0.1c0.1,0.2,0.3,0.5,0.5,0.7c0.3,0.3,0.6,0.5,0.9,0.6c0.1,0,0.1,0.1,0.2,0.1
					c1,0.6,1.8,1.8,2.1,3.3c0.2,1.2,0.2,2.5,0.1,3.7h0c-0.8-1.6-2-2.8-3.4-3.4c-1.2-0.5-2.7-0.6-4.3-0.3c-1.3,0.2-2.5,0.7-3.6,1.3
					c-0.4,0.2-0.7,0.4-1,0.6c-0.3,0.2-0.6,0.4-1,0.6c-1.5,0.9-3.2,1.2-4.8,1.1C8,23.5,7.6,23.4,7.1,23.3z M7.8,31.7
					c0-0.1,0-0.3,0-0.4v-5.8c0.2,0,0.4,0.1,0.6,0.1c0.3,0,0.6,0,0.9,0c1.7,0,3.5-0.5,5.1-1.4c0.4-0.2,0.7-0.5,1.1-0.7
					c0.3-0.2,0.6-0.4,0.9-0.6c0.9-0.5,1.9-0.9,3-1.1c1.3-0.2,2.3-0.2,3.2,0.2c1.1,0.5,2.1,1.5,2.6,2.9c0,0,0,0,0,0
					c0,0.1,0.1,0.2,0.2,0.3c0.2,0.2,0.4,0.3,0.7,0.3l0.6,0v5.7c0,0.2,0,0.3,0,0.4c-0.1,3.3-1.9,6.2-4.7,7.8
					c-1.4,0.8-3.1,1.3-4.7,1.3c-1.7,0-3.3-0.4-4.7-1.3C9.7,37.9,7.9,35,7.8,31.7z M17.7,48l1.5,3.5c-1.3,0.6-2.8,0.6-4.1,0l1.5-3.4
					c0.2-0.4,0.1-0.8-0.2-1.1L13,43.1v-1.2c1.3,0.5,2.8,0.8,4.2,0.8c1.4,0,2.9-0.3,4.2-0.8v1.2l-3.5,3.8
					C17.7,47.2,17.6,47.6,17.7,48z M14.6,47.8l-0.8,1.8l-2.2-5L14.6,47.8z M22.8,44.5L22.8,44.5l-2.2,5.2l-0.8-1.9L22.8,44.5z
					 M1.9,58v-5.7c0-4.2,3.4-7.7,7.6-7.8l3.4,7.8c0,0,0,0.1,0.1,0.1l3.4,5.5L1.9,58L1.9,58z M16.1,53.7c0.8,0.1,1.6,0.1,2.4,0
					l-1.2,1.9L16.1,53.7z M32.5,58H18.1l3.4-5.5c0,0,0-0.1,0.1-0.1l3.4-7.9c4.2,0.1,7.6,3.6,7.6,7.8L32.5,58L32.5,58z"/>
				
					<linearGradient id="Shape_4_" gradientUnits="userSpaceOnUse" x1="-881.6814" y1="545.5758" x2="-882.6814" y2="544.5758" gradientTransform="matrix(20.0568 0 0 -20.0204 17743.6094 10935.0938)">
					<stop  offset="0" style="stop-color:#FABD61"/>
					<stop  offset="1" style="stop-color:#F76B1C"/>
				</linearGradient>
				<path id="Shape_1_" class="st1" d="M59.9,25.2c0-1.9-3.9-2.4-6.3-2.4c0,0-0.1,0-0.1,0c-0.2,0-0.5,0-0.7,0l0-0.9l0-7.2
					c0-1.9-3.9-2.4-6.3-2.4c0,0-0.1,0-0.1,0c-1.6,0-3.1,0.2-4.2,0.6c-1.4,0.4-2.2,1.1-2.2,1.9l0,2.4l0,2.4l0,7.2
					c0,0.8,0.7,1.5,2.2,1.9c1.1,0.3,2.6,0.5,4.1,0.5c0,0,0.1,0,0.1,0c0.2,0,0.5,0,0.7,0l0,0.9c0,0.8,0.7,1.5,2.2,1.9
					c1.1,0.3,2.6,0.5,4.1,0.5c0,0,0.1,0,0.1,0c1.6,0,3.1-0.2,4.2-0.5c1.4-0.4,2.2-1.1,2.2-1.9h-0.7h0.7L59.9,25.2z M58.4,27.6
					c-0.2,0.3-1.9,1-5,1c0,0-0.1,0-0.1,0c-2.9,0-4.6-0.6-4.8-1V27c1.4,0.6,3.4,0.7,4.8,0.7c0,0,0.1,0,0.1,0c1.6,0,3.1-0.2,4.2-0.6
					c0.3-0.1,0.5-0.2,0.7-0.3V27.6z M53.5,24.4c0,0,0.1,0,0.1,0c2.8,0,4.4,0.6,4.8,0.9c-0.4,0.3-2,0.9-4.9,1c-2.8,0-4.5-0.6-4.9-0.9
					C49,25,50.6,24.4,53.5,24.4z M51.3,19.5c-0.2,0.3-1.9,1-5,1c-3,0-4.7-0.6-5-1v-0.7c0.2,0.1,0.5,0.2,0.7,0.2
					c1.1,0.3,2.6,0.5,4.1,0.5c0,0,0.1,0,0.1,0c1.6,0,3.1-0.2,4.2-0.5c0.3-0.1,0.5-0.2,0.7-0.3V19.5z M46.3,13.9
					c2.8,0,4.5,0.6,4.9,0.9c-0.4,0.3-2,0.9-4.9,1c-2.8,0-4.5-0.6-4.9-0.9C41.8,14.5,43.4,13.9,46.3,13.9z M46.2,17.3
					c0,0,0.1,0,0.1,0c1.6,0,3.1-0.2,4.2-0.6c0.3-0.1,0.5-0.2,0.7-0.3v0.7c-0.2,0.3-1.9,1-5,1c-3,0-4.7-0.6-5-1v-0.7
					C42.7,17.1,44.7,17.3,46.2,17.3z M41.4,26.8h-0.7H41.4z M46.4,27.7c-3,0-4.7-0.6-5-1v-0.7c0.2,0.1,0.5,0.2,0.7,0.2
					c1.1,0.3,2.6,0.5,4.1,0.5c0,0,0.1,0,0.1,0c0.2,0,0.5,0,0.7,0v0.9C46.8,27.7,46.6,27.7,46.4,27.7z M47.1,25.3c-0.2,0-0.5,0-0.7,0
					c-3,0-4.7-0.6-5-1v-0.7c0.2,0.1,0.5,0.2,0.7,0.2c1.1,0.3,2.6,0.5,4.1,0.5c0,0,0.1,0,0.1,0c0.4,0,0.7,0,1.1,0
					C47.2,24.6,47.1,25,47.1,25.3z M46.3,22.9c-3,0-4.7-0.6-5-1v-0.7c0.2,0.1,0.5,0.2,0.7,0.2c1.1,0.3,2.6,0.5,4.1,0.5
					c0,0,0.1,0,0.1,0c1.6,0,3.1-0.2,4.2-0.5c0.3-0.1,0.5-0.2,0.7-0.3v0.7C51,22.2,49.4,22.9,46.3,22.9z M48.5,30.1h-0.7H48.5z
					 M53.5,31c0,0-0.1,0-0.1,0c-2.9,0-4.6-0.6-4.8-1v-0.7c0.2,0.1,0.5,0.2,0.7,0.2c1.1,0.3,2.6,0.5,4.1,0.5c0,0,0.1,0,0.1,0
					c1.6,0,3.1-0.2,4.2-0.5c0.3-0.1,0.5-0.2,0.7-0.3V30C58.2,30.3,56.5,31,53.5,31z"/>
				
					<linearGradient id="Rectangle-path_2_" gradientUnits="userSpaceOnUse" x1="-291.8931" y1="480.4372" x2="-292.8931" y2="479.4372" gradientTransform="matrix(1.4604 0 0 -5.6204 464.1197 2717.1143)">
					<stop  offset="0" style="stop-color:#FABD61"/>
					<stop  offset="1" style="stop-color:#F76B1C"/>
				</linearGradient>
				<rect id="Rectangle-path" x="36.4" y="16.9" class="st2" width="1.5" height="5.6"/>
				
					<linearGradient id="Rectangle-path_3_" gradientUnits="userSpaceOnUse" x1="-291.8931" y1="505.2273" x2="-292.8931" y2="504.2273" gradientTransform="matrix(1.4604 0 0 -7.7388 460.286 3924.5715)">
					<stop  offset="0" style="stop-color:#FABD61"/>
					<stop  offset="1" style="stop-color:#F76B1C"/>
				</linearGradient>
				<rect id="Rectangle-path_1_" x="32.5" y="14.7" class="st3" width="1.5" height="7.7"/>
				
					<linearGradient id="Shape_5_" gradientUnits="userSpaceOnUse" x1="-891.2464" y1="528.8393" x2="-892.2464" y2="527.8393" gradientTransform="matrix(25.2779 0 0 -12.0735 22584.8398 6385.0488)">
					<stop  offset="0" style="stop-color:#FABD61"/>
					<stop  offset="1" style="stop-color:#F76B1C"/>
				</linearGradient>
				<path id="Shape_2_" class="st4" d="M33.3,12.2c1.4,0,2.6-1.2,2.6-2.6c0-0.1,0-0.2,0-0.3l1.5-1.3c0.5,0.8,1.3,1.4,2.3,1.4
					c1.4,0,2.6-1.2,2.6-2.6v0l2.1,0.4c0.4,0.9,1.3,1.5,2.4,1.5c1.4,0,2.6-1.2,2.6-2.6l2.1-1.2c0.5,0.4,1,0.6,1.7,0.6
					c1.4,0,2.6-1.2,2.6-2.6s-1.2-2.6-2.6-2.6c-1.4,0-2.6,1.2-2.6,2.6c0,0.3,0,0.6,0.1,0.8l-1.7,1c-0.5-0.7-1.3-1.2-2.2-1.2
					c-1.3,0-2.4,1-2.6,2.3l-2.4-0.5c-0.5-0.6-1.2-1-2.1-1c-1.3,0-2.4,1-2.6,2.3l-1.9,1.5c-0.5-0.6-1.2-0.9-2-0.9
					c-1.4,0-2.6,1.2-2.6,2.6S31.9,12.2,33.3,12.2z M53.4,1.6c0.6,0,1.2,0.5,1.2,1.2S54,3.9,53.4,3.9s-1.2-0.5-1.2-1.2
					S52.7,1.6,53.4,1.6z M46.9,4.7c0.6,0,1.2,0.5,1.2,1.2s-0.5,1.2-1.2,1.2s-1.2-0.5-1.2-1.2S46.3,4.7,46.9,4.7z M39.8,5.5
					C40.4,5.5,41,6,41,6.7s-0.5,1.2-1.2,1.2s-1.2-0.5-1.2-1.2S39.2,5.5,39.8,5.5z M33.3,8.3c0.6,0,1.2,0.5,1.2,1.2
					c0,0.6-0.5,1.2-1.2,1.2s-1.2-0.5-1.2-1.2C32.2,8.9,32.7,8.3,33.3,8.3z"/>
			</g>
		</g>
	</g>
</g>
</svg>
