<svg xmlns="http://www.w3.org/2000/svg" viewBox="0 0 21.62 25.69"><defs><style>.cls-1{fill:#00c57f;}</style></defs><title>innovationicon</title><g id="Layer_2" data-name="Layer 2"><g id="Layer_1-2" data-name="Layer 1"><path class="cls-1" d="M8.58,0H8.31L7.72.09l.11.83L8.4.84h.22Zm1.74.06-.11.83.38,0L11,1l.18-.82L10.74.12h0ZM6,.54,5.33.81l0,0-.09,0,.38.74.08,0,.66-.27Zm6.81.21-.32.77.09,0,.63.32.37-.74L13,.81h0Zm-3.67.82A7.47,7.47,0,0,0,1.66,9c0,2.25,1.14,3.75,2.19,5.32a14.83,14.83,0,0,1,1.24,2.13l-.4.67,0,0,0,0,.69.34,0-.05a9.13,9.13,0,0,1,.41,2.77v3.38a.41.41,0,0,0,.42.41H12a.41.41,0,0,0,.42-.41V20.23a8.8,8.8,0,0,1,.44-2.83l0,.09.21-.1-.15-.3a13.37,13.37,0,0,1,1.51-2.77c1.05-1.57,2.19-3.07,2.19-5.32A7.46,7.46,0,0,0,9.15,1.57Zm-5.42.2L3.38,2l0,0-.3.26.55.62.29-.25.33-.25ZM15,2.13l-.55.63.41.36.18.18.6-.58-.19-.19,0,0ZM9.15,2.4A6.62,6.62,0,0,1,15.8,9c0,2-1,3.27-2.05,4.86a11,11,0,0,0-2.11,5.95H9.56V15.27a.41.41,0,0,0-.41-.42.41.41,0,0,0-.42.41h0v4.54H6.66a11.06,11.06,0,0,0-2.12-5.95c-1.07-1.59-2-2.89-2-4.86A6.62,6.62,0,0,1,9.15,2.4ZM1.88,3.58l-.09.1,0,0-.39.58.69.46.39-.56h0l.07-.08Zm6.43.48a.41.41,0,0,0-.41.42v.66a3.58,3.58,0,0,0-.64.26l-.47-.46a.39.39,0,0,0-.58,0L5,6.11A.42.42,0,0,0,5,6.7l.46.47a4.08,4.08,0,0,0-.26.64H4.57a.41.41,0,0,0-.41.41V9.88a.41.41,0,0,0,.41.42h.66a4.51,4.51,0,0,0,.26.64L5,11.41A.41.41,0,0,0,5,12l1.18,1.18a.41.41,0,0,0,.58,0l.47-.46A4.51,4.51,0,0,0,7.9,13v.66a.41.41,0,0,0,.41.41H10a.41.41,0,0,0,.41-.41V13a5.18,5.18,0,0,0,.65-.26l.46.46a.42.42,0,0,0,.59,0L13.26,12a.41.41,0,0,0,0-.58l-.46-.47a5,5,0,0,0,.26-.64h.66a.42.42,0,0,0,.42-.42V8.22a.41.41,0,0,0-.42-.41h-.66a3.67,3.67,0,0,0-.26-.65l.46-.46a.42.42,0,0,0,0-.59L12.09,4.94a.4.4,0,0,0-.59,0L11,5.4a6.14,6.14,0,0,0-.64-.27V4.48A.41.41,0,0,0,10,4.06Zm8.46,0-.69.46.15.22.26.47.72-.41-.27-.49,0,0Zm-8,.82h.83v.52a.42.42,0,0,0,.32.4,3.36,3.36,0,0,1,1,.43.42.42,0,0,0,.52-.06l.36-.36.59.59L12,6.77a.41.41,0,0,0-.06.51,3.29,3.29,0,0,1,.42,1,.43.43,0,0,0,.41.33h.51v.83h-.51a.41.41,0,0,0-.4.32,3.36,3.36,0,0,1-.43,1,.42.42,0,0,0,.06.52l.36.36-.59.59-.36-.36a.41.41,0,0,0-.51-.06,3.29,3.29,0,0,1-1,.42.42.42,0,0,0-.33.41v.51H8.73V12.7a.42.42,0,0,0-.32-.41,3.11,3.11,0,0,1-1-.42.42.42,0,0,0-.52.05l-.36.37-.59-.59.36-.36a.42.42,0,0,0,.06-.52,3.2,3.2,0,0,1-.42-1,.41.41,0,0,0-.41-.32H5V8.64H5.5a.44.44,0,0,0,.41-.33,3.29,3.29,0,0,1,.42-1,.4.4,0,0,0-.06-.51l-.36-.36.59-.59.36.36a.42.42,0,0,0,.51.06,3.52,3.52,0,0,1,1-.43.42.42,0,0,0,.32-.4ZM.6,5.87l-.21.6v0l0,.2.81.2,0-.16h0l.21-.58Zm17.29.54-.72.25-.07,0h0v0h0l.18.67h0v0h0l.79-.13V7.21l-.19-.74V6.41ZM9.15,7a2.08,2.08,0,1,0,2.08,2.08A2.08,2.08,0,0,0,9.15,7Zm0,.84A1.25,1.25,0,1,1,7.9,9.05,1.25,1.25,0,0,1,9.15,7.81ZM0,8.4l0,.43v.44H.84V8.89h0l0-.43ZM17.47,9v.56l0,.23.83.08,0-.25V9ZM1,10.84.19,11l0,.17v0l.18.64.8-.22L1,11Zm16.15.52-.07.28h0l-.17.46.79.29.18-.5v0l.08-.29ZM1.81,13l-.72.42.3.52,0,0,.13.19.68-.47-.11-.16h0Zm14.42.47-.41.6h0l-.05.05.65.52.06-.08,0,0,.42-.6ZM3.23,15l-.6.58.21.23,0,0,.39.34.55-.63-.38-.33Zm11.46.37-.32.29-.3.21.5.67.3-.22,0,0,.34-.3Zm2.46,1a.41.41,0,0,0-.41.42v.42l-.36.15-.3-.3a.39.39,0,0,0-.58,0l-.89.88a.42.42,0,0,0,0,.59l.3.3a3.65,3.65,0,0,0-.14.35h-.43a.41.41,0,0,0-.41.41V20.8a.41.41,0,0,0,.41.42h.43c0,.12.09.23.14.35l-.3.3a.42.42,0,0,0,0,.59l.89.88a.41.41,0,0,0,.58,0l.3-.3.36.14v.43a.41.41,0,0,0,.41.41H18.4a.41.41,0,0,0,.41-.41v-.43a2.67,2.67,0,0,0,.36-.14l.3.3a.41.41,0,0,0,.58,0l.89-.88a.42.42,0,0,0,0-.59l-.3-.3c.05-.12.1-.23.14-.35h.43a.41.41,0,0,0,.41-.42V19.55a.41.41,0,0,0-.41-.41h-.43a3.65,3.65,0,0,0-.14-.35l.3-.3a.42.42,0,0,0,0-.59L20.05,17a.39.39,0,0,0-.58,0l-.3.3a2.28,2.28,0,0,0-.36-.15v-.42a.41.41,0,0,0-.41-.42Zm.42.83H18v.28a.42.42,0,0,0,.33.41,2.29,2.29,0,0,1,.74.31.42.42,0,0,0,.51-.06l.2-.2.29.29-.19.2a.4.4,0,0,0-.06.51,2.5,2.5,0,0,1,.3.74.43.43,0,0,0,.41.33h.28v.42h-.28a.42.42,0,0,0-.41.32,2.5,2.5,0,0,1-.3.74.4.4,0,0,0,.06.51l.19.2-.29.3-.2-.2a.41.41,0,0,0-.51-.06,2.5,2.5,0,0,1-.74.3.44.44,0,0,0-.33.41v.28h-.41v-.28a.42.42,0,0,0-.33-.4,2.53,2.53,0,0,1-.74-.31.41.41,0,0,0-.51.06l-.2.2-.29-.3.19-.2a.41.41,0,0,0,.06-.51,2.5,2.5,0,0,1-.3-.74.42.42,0,0,0-.41-.32h-.28V20H15a.42.42,0,0,0,.41-.32,2.3,2.3,0,0,1,.3-.74.41.41,0,0,0-.06-.52l-.19-.2.29-.29.2.2a.42.42,0,0,0,.51.06,2.29,2.29,0,0,1,.74-.31.42.42,0,0,0,.33-.4Zm.21,1.65a1.37,1.37,0,1,0,1.36,1.37A1.37,1.37,0,0,0,17.78,18.81Zm0,.83a.54.54,0,0,1,.53.54.54.54,0,1,1-.53-.54Zm-11,1h4.83v2.54H6.73v-.83h4.08v-.83H6.73ZM7,24.86a.41.41,0,0,0-.39.43.42.42,0,0,0,.44.4h4.16a.43.43,0,0,0,.42-.41.41.41,0,0,0-.41-.42H7Z"/></g></g></svg>