<svg xmlns="http://www.w3.org/2000/svg" viewBox="0 0 21.83 21.84"><defs><style>.cls-1{fill:#00c57f;}</style></defs><title>investmenticon</title><g id="Layer_2" data-name="Layer 2"><g id="Layer_1-2" data-name="Layer 1"><path class="cls-1" d="M15.37,21.84H3.64a.46.46,0,0,1-.46-.46V15c0-1.23,2.23-1.36,3.19-1.36,2,0,2.78.5,3,.91H14.1a.45.45,0,0,1,.46.45,3.45,3.45,0,0,1-.88,2.29l1.71.85L20.61,16A.47.47,0,0,1,21,16a1.93,1.93,0,0,1,.79,1.3A2.08,2.08,0,0,1,21.11,19a.47.47,0,0,1-.12.09l-5.42,2.73A.46.46,0,0,1,15.37,21.84ZM4.09,20.93H15.26l5.25-2.65a1.19,1.19,0,0,0,.42-.88.88.88,0,0,0-.24-.49l-5.15,2.16a.42.42,0,0,1-.38,0L12.85,17.9a3.41,3.41,0,0,1-1.48.3H8.64v-.91h2.73a2.09,2.09,0,0,0,2.23-1.82H9.1a.45.45,0,0,1-.45-.4c0-.06-.37-.51-2.28-.51A4,4,0,0,0,4.09,15Z"/><path class="cls-1" d="M3.64,21.84H.45A.45.45,0,0,1,0,21.38V13.65a.46.46,0,0,1,.45-.46H3.64a.46.46,0,0,1,.45.46V15H3.18V14.1H.91v6.83H3.64Z"/><rect class="cls-1" x="10.46" y="8.64" width="0.91" height="6.37"/><path class="cls-1" d="M11.37,5h-.91a1.37,1.37,0,0,1,0-2.73h.91a1.37,1.37,0,0,1,1.37,1.37h-.91a.46.46,0,0,0-.46-.46h-.91a.46.46,0,0,0-.45.46.45.45,0,0,0,.45.45h.91Z"/><path class="cls-1" d="M11.37,6.82h-.91A1.36,1.36,0,0,1,9.1,5.46H10a.45.45,0,0,0,.45.45h.91a.45.45,0,0,0,.46-.45A.46.46,0,0,0,11.37,5h-.91V4.09h.91a1.37,1.37,0,1,1,0,2.73Z"/><rect class="cls-1" x="10.46" y="1.82" width="0.91" height="0.91"/><rect class="cls-1" x="10.46" y="6.37" width="0.91" height="0.91"/><path class="cls-1" d="M10.92,9.1a4.55,4.55,0,1,1,4.55-4.55A4.55,4.55,0,0,1,10.92,9.1Zm0-8.19a3.64,3.64,0,1,0,3.64,3.64A3.64,3.64,0,0,0,10.92.91Z"/><path class="cls-1" d="M15.52,13.19a2.32,2.32,0,0,1-1.65-3.95L16.51,6.6A2.32,2.32,0,0,1,19.8,9.88l-2.64,2.64A2.31,2.31,0,0,1,15.52,13.19Zm2.63-6.37a1.38,1.38,0,0,0-1,.42L14.52,9.88a1.41,1.41,0,0,0,2,2l2.64-2.64a1.41,1.41,0,0,0,0-2A1.38,1.38,0,0,0,18.15,6.82Z"/><path class="cls-1" d="M14.1,12.74H10.92v-.91h3l4-4,.64.64-4.09,4.1A.49.49,0,0,1,14.1,12.74Z"/><path class="cls-1" d="M6.32,13.19a2.31,2.31,0,0,1-1.64-.67L2,9.88A2.32,2.32,0,0,1,5.33,6.6L8,9.23a2.32,2.32,0,0,1-1.65,4ZM3.69,6.82A1.41,1.41,0,0,0,2.28,8.24a1.37,1.37,0,0,0,.41,1l2.64,2.64a1.41,1.41,0,1,0,2-2L4.68,7.24A1.38,1.38,0,0,0,3.69,6.82Z"/><path class="cls-1" d="M10.92,12.74H7.73a.48.48,0,0,1-.32-.13L3.32,8.51,4,7.87l4,4h3Z"/><path class="cls-1" d="M3.77,2.6,2.27,1.1.78,2.6.13,2,2,.13a.48.48,0,0,1,.65,0L4.42,2Z"/><rect class="cls-1" x="1.82" y="0.45" width="0.91" height="3.18"/><rect class="cls-1" x="1.82" y="4.55" width="0.91" height="0.91"/><path class="cls-1" d="M21.06,2.6l-1.5-1.5L18.07,2.6,17.42,2,19.24.13a.48.48,0,0,1,.65,0L21.71,2Z"/><rect class="cls-1" x="19.11" y="0.45" width="0.91" height="3.18"/><rect class="cls-1" x="19.11" y="4.55" width="0.91" height="0.91"/><rect class="cls-1" x="19.11" y="11.37" width="0.91" height="4.09"/><rect class="cls-1" x="1.82" y="11.37" width="0.91" height="2.27"/></g></g></svg>