<?xml version="1.0" encoding="UTF-8"?>
<svg width="50px" height="50px" viewBox="0 0 50 50" version="1.1" xmlns="http://www.w3.org/2000/svg" xmlns:xlink="http://www.w3.org/1999/xlink">
    <!-- Generator: Sketch 51.1 (57501) - http://www.bohemiancoding.com/sketch -->
    <title>icons/choice_section</title>
    <desc>Created with Sketch.</desc>
    <defs>
        <path d="M32.3333333,35.2307692 L14.9333333,35.2307692 L6.25925926,43.8707692 L5.21481481,42.8295385 L14.1037037,33.968 C14.2434954,33.82977 14.4327385,33.7527113 14.6296296,33.7538462 L33.1481481,33.7538462 C33.557248,33.7538462 33.8888889,34.0844666 33.8888889,34.4923077 C33.8888889,36.0283077 33.1481481,38.9230769 30.1851852,38.9230769 L22.037037,38.9230769 L22.037037,37.4461538 L30.1851852,37.4461538 C31.6962963,37.4461538 32.1777778,36.1095385 32.3333333,35.2307692 Z M41.5111111,28.7987692 C41.6511826,28.659941 41.8410693,28.5826315 42.0385801,28.5840182 C42.2360909,28.5854048 42.4248666,28.6653727 42.562963,28.8061538 C43.7703704,30.0024615 45.3185185,33.008 42.562963,35.7550769 L33.6740741,44.6166154 C33.5342823,44.7548454 33.3450392,44.8319041 33.1481481,44.8307692 L17.8962963,44.8307692 L12.9259259,49.7784615 L11.8814815,48.7372308 L17.0666667,43.568 C17.2064584,43.42977 17.3957015,43.3527113 17.5925926,43.3538462 L32.8444444,43.3538462 L41.5037037,34.7064615 C42.7693434,33.6256095 42.9737091,31.7499363 41.9703704,30.4233846 L35.8888889,36.4861538 L34.8444444,35.4449231 L41.5111111,28.7987692 Z M19.0740741,37.4461538 L20.5555556,37.4461538 L20.5555556,38.9230769 L19.0740741,38.9230769 L19.0740741,37.4461538 Z M17.5925926,28.5846154 C17.5925926,26.9532512 18.9191563,25.6307692 20.5555556,25.6307692 C21.2324172,25.6317032 21.888555,25.8636418 22.4148148,26.288 C23.0336535,25.0141896 24.3284349,24.2051319 25.7481481,24.2051319 C27.1678614,24.2051319 28.4626428,25.0141896 29.0814815,26.288 C30.030394,25.5279391 31.3490527,25.4237763 32.4061898,26.0253764 C33.4633269,26.6269764 34.0438367,27.811926 33.8698176,29.0129666 C33.6957985,30.2140071 32.80266,31.1867513 31.6179649,31.4655276 C30.4332699,31.7443038 29.1980795,31.2723867 28.5037037,30.2756923 C27.8100228,31.0758593 26.8015983,31.5357569 25.7407407,31.5357569 C24.6798831,31.5357569 23.6714587,31.0758593 22.9777778,30.2756923 C22.2349939,31.3268131 20.8954927,31.7781885 19.6653438,31.3918924 C18.435195,31.0055962 17.5970039,29.8703733 17.5925926,28.5846154 Z M30.9259259,27.1076923 C30.1077263,27.1076923 29.4444444,27.7689333 29.4444444,28.5846154 C29.4444444,29.4002975 30.1077263,30.0615385 30.9259259,30.0615385 C31.7441256,30.0615385 32.4074074,29.4002975 32.4074074,28.5846154 C32.4074074,27.7689333 31.7441256,27.1076923 30.9259259,27.1076923 Z M25.7407407,25.6307692 C24.5134413,25.6307692 23.5185185,26.6226307 23.5185185,27.8461538 C23.5185185,29.069677 24.5134413,30.0615385 25.7407407,30.0615385 C26.9680402,30.0615385 27.962963,29.069677 27.962963,27.8461538 C27.962963,26.6226307 26.9680402,25.6307692 25.7407407,25.6307692 Z M20.5555556,27.1076923 C19.7373559,27.1076923 19.0740741,27.7689333 19.0740741,28.5846154 C19.0740741,29.4002975 19.7373559,30.0615385 20.5555556,30.0615385 C21.3737552,30.0615385 22.037037,29.4002975 22.037037,28.5846154 C22.037037,27.7689333 21.3737552,27.1076923 20.5555556,27.1076923 Z M31.6666667,13.8153846 L31.6666667,18.2461538 L30.1851852,18.2461538 L30.1851852,13.8153846 C30.1851852,12.9997025 30.848467,12.3384615 31.6666667,12.3384615 L41.7333333,12.3384615 L39.2888889,9.90892308 L40.3407407,8.86030769 L44.0444444,12.5526154 C44.3316471,12.840643 44.3316471,13.3058185 44.0444444,13.5938462 L40.3407407,17.2861538 L39.2962963,16.2449231 L41.7333333,13.8153846 L31.6666667,13.8153846 Z M25,5.25661538 L22.5555556,7.68615385 L21.5111111,6.64492308 L25.2148148,2.95261538 C25.5037314,2.66629642 25.9703426,2.66629642 26.2592593,2.95261538 L29.962963,6.64492308 L28.9185185,7.68615385 L26.4814815,5.25661538 L26.4814815,16.7692308 L25,16.7692308 L25,5.25661538 Z M25,21.2 L26.4814815,21.2 L26.4814815,22.6769231 L25,22.6769231 L25,21.2 Z M30.1851852,22.6769231 L31.6666667,22.6769231 L31.6666667,24.1538462 L30.1851852,24.1538462 L30.1851852,22.6769231 Z M30.1851852,19.7230769 L31.6666667,19.7230769 L31.6666667,21.2 L30.1851852,21.2 L30.1851852,19.7230769 Z M19.8148148,22.6769231 L21.2962963,22.6769231 L21.2962963,24.1538462 L19.8148148,24.1538462 L19.8148148,22.6769231 Z M19.8148148,19.7230769 L21.2962963,19.7230769 L21.2962963,21.2 L19.8148148,21.2 L19.8148148,19.7230769 Z M25,18.2461538 L26.4814815,18.2461538 L26.4814815,19.7230769 L25,19.7230769 L25,18.2461538 Z M11.1407407,17.2935385 L7.43703704,13.5938462 C7.14983437,13.3058185 7.14983437,12.840643 7.43703704,12.5526154 L11.1407407,8.86030769 L12.1851852,9.90892308 L9.74814815,12.3384615 L19.8148148,12.3384615 C20.6330144,12.3384615 21.2962963,12.9997025 21.2962963,13.8153846 L21.2962963,18.2461538 L19.8148148,18.2461538 L19.8148148,13.8153846 L9.74814815,13.8153846 L12.1851852,16.2523077 L11.1407407,17.2935385 Z" id="path-1"></path>
        <linearGradient x1="100%" y1="0%" x2="0%" y2="100%" id="linearGradient-3">
            <stop stop-color="#FABD61" offset="0%"></stop>
            <stop stop-color="#F76B1C" offset="100%"></stop>
        </linearGradient>
    </defs>
    <g id="icons/choice_section" stroke="none" stroke-width="1" fill="none" fill-rule="evenodd">
        <mask id="mask-2" fill="white">
            <use xlink:href="#path-1"></use>
        </mask>
        <use id="Combined-Shape" fill="#00C57F" fill-rule="nonzero" xlink:href="#path-1"></use>
        <g id="Colors/Orange" mask="url(#mask-2)" fill="url(#linearGradient-3)">
            <rect id="Rectangle-2" x="0" y="0" width="50" height="50"></rect>
        </g>
    </g>
</svg>