<?xml version="1.0" encoding="UTF-8"?>
<svg width="75px" height="75px" viewBox="0 0 75 75" version="1.1" xmlns="http://www.w3.org/2000/svg" xmlns:xlink="http://www.w3.org/1999/xlink">
    <!-- Generator: Sketch 51.1 (57501) - http://www.bohemiancoding.com/sketch -->
    <title>noun_funding_1018323</title>
    <desc>Created with Sketch.</desc>
    <defs>
        <linearGradient x1="50%" y1="0%" x2="50%" y2="100%" id="linearGradient-1">
            <stop stop-color="#FAD961" offset="0%"></stop>
            <stop stop-color="#F76B1C" offset="100%"></stop>
        </linearGradient>
    </defs>
    <g id="Web" stroke="none" stroke-width="1" fill="none" fill-rule="evenodd">
        <g id="3.1-Short-Term" transform="translate(-680.000000, -1059.000000)" fill="url(#linearGradient-1)" fill-rule="nonzero">
            <g id="noun_funding_1018323" transform="translate(680.000000, 1059.000000)">
                <path d="M8.7890625,55.078125 C6.74309896,55.078125 5.078125,56.743099 5.078125,58.7890625 C5.078125,60.835026 6.74309896,62.5 8.7890625,62.5 C10.835026,62.5 12.5,60.835026 12.5,58.7890625 C12.5,56.743099 10.835026,55.078125 8.7890625,55.078125 Z M8.7890625,60.0260417 C8.10748698,60.0260417 7.55208333,59.471875 7.55208333,58.7890625 C7.55208333,58.10625 8.10748698,57.5520833 8.7890625,57.5520833 C9.47063802,57.5520833 10.0260417,58.10625 10.0260417,58.7890625 C10.0260417,59.471875 9.47063802,60.0260417 8.7890625,60.0260417 Z" id="Shape"></path>
                <path d="M48.828125,16.40625 C45.381875,16.40625 42.578125,19.21 42.578125,22.65625 C42.578125,26.1025 45.381875,28.90625 48.828125,28.90625 C52.274375,28.90625 55.078125,26.1025 55.078125,22.65625 C55.078125,19.21 52.274375,16.40625 48.828125,16.40625 Z M48.828125,26.40625 C46.760625,26.40625 45.078125,24.72375 45.078125,22.65625 C45.078125,20.58875 46.760625,18.90625 48.828125,18.90625 C50.895625,18.90625 52.578125,20.58875 52.578125,22.65625 C52.578125,24.72375 50.895625,26.40625 48.828125,26.40625 Z" id="Shape"></path>
                <path d="M73.75,0 L23.75,0 C23.06,0 22.5,0.55875 22.5,1.25 L22.5,13.72375 C21.55875,12.605 20.37375,11.68 19.005,10.97875 C19.08625,10.72875 19.1725,10.47875 19.21,10.21875 L19.98625,4.97375 C19.99625,4.9125 20,4.85125 20,4.79 C20,3.36875 19.185,2.15 17.8725,1.60625 C17.0425,1.26125 16.16125,1.25 15.3725,1.54125 L15.3675,1.53375 C14.7275,0.57375 13.655,0 12.5,0 C11.345,0 10.2725,0.57375 9.6325,1.535 L9.6275,1.54125 C8.83875,1.2475 7.95875,1.26 7.1275,1.60625 C5.815,2.15 5,3.36875 5,4.79 C5,4.85125 5.00375,4.9125 5.01375,4.97375 L5.79,10.2175 C5.82875,10.47875 5.915,10.72875 5.99625,10.97875 C2.65375,12.69125 0.42875,15.76375 0.0675,19.5975 C0.02375,19.72375 0,19.86 0,20 L0,33.75 C0,33.765 0.0075,33.77625 0.00875,33.79125 C0.01375,33.9375 0.04,34.08125 0.095,34.2175 C0.10625,34.245 0.12375,34.26625 0.13625,34.2925 C0.17,34.36375 0.2025,34.435 0.25,34.5 L4,39.5 C4.23625,39.815 4.60625,40 5,40 L24.445,40 C24.015,40.73875 23.75,41.585 23.75,42.5 L23.75,49.425 L17.5,54.7825 L17.5,51.25 C17.5,50.55875 16.94,50 16.25,50 L1.25,50 C0.56,50 0,50.55875 0,51.25 L0,73.75 C0,74.44125 0.56,75 1.25,75 L16.25,75 C16.90875,75 17.4325,74.48625 17.48125,73.84125 L33.66,74.99625 C33.69125,74.99875 33.72,75 33.75,75 C33.90375,75 34.055,74.9725 34.19875,74.9175 L50.44875,68.6675 C50.6225,68.6 50.77875,68.49625 50.90625,68.36125 L74.65625,43.36125 C74.87625,43.12875 75,42.82 75,42.5 C75,40.31625 73.92,38.66625 72.1775,37.92875 L74.75,34.5 C74.79875,34.43625 74.83,34.36375 74.86375,34.2925 C74.87625,34.26625 74.89375,34.245 74.905,34.2175 C74.96,34.08125 74.98625,33.9375 74.99125,33.79125 C74.9925,33.77625 75,33.765 75,33.75 L75,1.25 C75,0.55875 74.44,0 73.75,0 Z M32.37375,32.5 C31.7925,29.65125 29.26875,27.5 26.25,27.5 L25,27.5 L25,17.5 L26.25,17.5 C29.2675,17.5 31.7925,15.34875 32.37375,12.5 L65.12625,12.5 C65.7075,15.34875 68.23125,17.5 71.25,17.5 L72.5,17.5 L72.5,27.5 L71.25,27.5 C68.2325,27.5 65.7075,29.65125 65.12625,32.5 L32.37375,32.5 Z M25,30 L26.25,30 C27.88,30 29.27,31.045 29.78625,32.5 L25,32.5 L25,30 Z M72.5,10 L25,10 L25,7.5 L72.5,7.5 L72.5,10 Z M72.5,15 L71.25,15 C69.62,15 68.23,13.955 67.71375,12.5 L72.5,12.5 L72.5,15 Z M25,12.5 L29.78625,12.5 C29.27,13.955 27.88,15 26.25,15 L25,15 L25,12.5 Z M71.25,30 L72.5,30 L72.5,32.5 L67.71375,32.5 C68.23,31.045 69.62,30 71.25,30 Z M25,2.5 L72.5,2.5 L72.5,5 L25,5 L25,2.5 Z M8.30625,10.07 C8.2875,9.9975 8.27375,9.925 8.2625,9.8525 L7.5025,4.715 C7.53875,4.1825 7.95375,3.96875 8.085,3.915 C8.2225,3.8575 8.70125,3.705 9.11625,4.11875 C9.38125,4.38375 9.75375,4.51125 10.12375,4.47875 C10.49625,4.4425 10.8325,4.24 11.04,3.92875 L11.7125,2.92 C11.965,2.54125 12.3475,2.5 12.5,2.5 C12.6525,2.5 13.035,2.54125 13.2875,2.92125 L13.96,3.93 C14.1675,4.24125 14.50375,4.44375 14.87625,4.48 C15.25125,4.51375 15.61875,4.385 15.88375,4.12 C16.29875,3.70625 16.77875,3.85875 16.915,3.91625 C17.04625,3.97 17.46125,4.18375 17.4975,4.71625 L16.7375,9.85375 C16.72625,9.92625 16.7125,9.9975 16.695,10.07 C16.68125,10.06625 16.6675,10.06375 16.655,10.06 C16.3625,9.97625 16.06625,9.90125 15.7625,9.835 C15.67875,9.81625 15.5925,9.80125 15.50875,9.78375 C15.25625,9.73375 15.0025,9.68625 14.74375,9.64875 C14.57125,9.62375 14.39625,9.6075 14.2225,9.5875 C14.035,9.5675 13.84875,9.5425 13.6575,9.52875 C13.275,9.5025 12.89,9.48625 12.5,9.48625 C12.11,9.48625 11.725,9.5025 11.34375,9.53 C11.1525,9.54375 10.96625,9.56875 10.7775,9.58875 C10.60375,9.6075 10.43,9.625 10.25875,9.65 C9.99875,9.6875 9.74375,9.735 9.49,9.785 C9.40625,9.80125 9.3225,9.8175 9.23875,9.835 C8.935,9.9 8.6375,9.97625 8.345,10.06 C8.3325,10.06375 8.31875,10.06625 8.30625,10.07 Z M2.5,20.30625 C2.51875,20.23375 2.53,20.16 2.535,20.0825 C2.76375,16.655 4.8425,14.03 8.03375,12.785 C8.0575,12.7775 8.0825,12.78 8.105,12.77 C10.83,11.7275 14.17125,11.7275 16.895,12.77 C16.91625,12.77875 16.94,12.775 16.96125,12.7825 C20.155,14.0275 22.23625,16.6525 22.465,20.0825 C22.47,20.1575 22.48125,20.23 22.5,20.3 L22.5,28.75 L22.5,32.5 L2.5,32.5 L2.5,20.30625 Z M3.75,35 L71.25,35 L69.375,37.5 L5.625,37.5 L3.75,35 Z M33.75,61.32375 L33.75,60.5175 L49.5475,44.71875 C50.1875,44.31625 51.17375,44.1925 51.615,44.63375 C52.10625,45.125 52.10625,46.125 51.615,46.61625 L44.49,53.74125 C40.72875,56.37 37.02375,58.99125 33.75,61.32375 Z M53.38375,42.86625 C51.895,41.37875 49.515,41.68375 48.03,42.72875 C47.97125,42.76875 47.91625,42.815 47.86625,42.86625 L33.75,56.9825 L33.75,42.5 C33.75,41.585 33.485,40.73875 33.055,40 L65.0125,40 C62.165,41.7275 58.38125,44.215 54.23375,47.02625 C54.7425,45.6275 54.46375,43.9475 53.38375,42.86625 Z M2.5,72.5 L2.5,52.5 L15,52.5 L15,57.5 L15,72.5 L2.5,72.5 Z M49.28875,66.43375 L33.56125,72.4825 L17.5,71.33625 L17.5,58.075 L25.81375,50.94875 C26.09125,50.71125 26.25,50.365 26.25,50 L26.25,42.5 C26.25,41.12125 27.37125,40 28.75,40 C30.12875,40 31.25,41.12125 31.25,42.5 L31.25,60 L31.25,63.75 C31.25,64.21875 31.51125,64.6475 31.9275,64.8625 C32.02375,64.9125 32.12625,64.94625 32.23,64.96875 C32.27,64.9775 32.30875,64.9775 32.34875,64.9825 C32.4,64.98875 32.45,65 32.5,65 C32.5125,65 32.525,64.995 32.5375,64.99375 C32.6225,64.99125 32.70625,64.975 32.79,64.955 C32.825,64.94625 32.86125,64.94375 32.89625,64.9325 C33.0125,64.89375 33.12375,64.84 33.2275,64.76625 C33.285,64.72625 39.02875,60.625 45.9275,55.81375 C45.93625,55.8075 45.94375,55.79875 45.95375,55.7925 C56.9575,48.125 68.2275,40.52125 70.08375,40.00125 C71.88125,40.035 72.35875,41.2075 72.47125,42.03375 L49.28875,66.43375 Z" id="Shape"></path>
                <path d="M12.3046875,19.0429688 C12.986263,19.0429688 13.5416667,19.6117188 13.5416667,20.3125 L16.015625,20.3125 C16.015625,18.6595703 14.9777995,17.2630859 13.5416667,16.7375 L13.5416667,15.234375 L11.0677083,15.234375 L11.0677083,16.7375 C9.63157552,17.2630859 8.59375,18.6595703 8.59375,20.3125 C8.59375,22.4123047 10.258724,24.1210938 12.3046875,24.1210938 C12.986263,24.1210938 13.5416667,24.6898438 13.5416667,25.390625 C13.5416667,26.0914062 12.986263,26.6601562 12.3046875,26.6601562 C11.623112,26.6601562 11.0677083,26.0914062 11.0677083,25.390625 L8.59375,25.390625 C8.59375,27.0435547 9.63157552,28.4400391 11.0677083,28.965625 L11.0677083,30.46875 L13.5416667,30.46875 L13.5416667,28.965625 C14.9777995,28.4400391 16.015625,27.0435547 16.015625,25.390625 C16.015625,23.2908203 14.350651,21.5820312 12.3046875,21.5820312 C11.623112,21.5820312 11.0677083,21.0132812 11.0677083,20.3125 C11.0677083,19.6117188 11.623112,19.0429688 12.3046875,19.0429688 Z" id="Shape"></path>
            </g>
        </g>
    </g>
</svg>