<?xml version="1.0" encoding="UTF-8"?>
<svg width="61px" height="72px" viewBox="0 0 61 72" version="1.1" xmlns="http://www.w3.org/2000/svg" xmlns:xlink="http://www.w3.org/1999/xlink">
    <!-- Generator: Sketch 51.1 (57501) - http://www.bohemiancoding.com/sketch -->
    <title>icons/choice_section</title>
    <desc>Created with Sketch.</desc>
    <defs>
        <path d="M49.1466667,53.5507692 L22.6986667,53.5507692 L9.51407407,66.6835692 L7.92651852,65.1008985 L21.4376296,51.63136 C21.6501131,51.4212503 21.9377626,51.3041212 22.237037,51.3058462 L50.3851852,51.3058462 C51.0070169,51.3058462 51.5111111,51.8083893 51.5111111,52.4283077 C51.5111111,54.7630277 50.3851852,59.1630769 45.8814815,59.1630769 L33.4962963,59.1630769 L33.4962963,56.9181538 L45.8814815,56.9181538 C48.1783704,56.9181538 48.9102222,54.8864985 49.1466667,53.5507692 Z M63.0968889,43.7741292 C63.3097976,43.5631104 63.5984254,43.4455999 63.8986418,43.4477076 C64.1988582,43.4498153 64.4857972,43.5713666 64.6957037,43.7853538 C66.530963,45.6037415 68.8841481,50.17216 64.6957037,54.3477169 L51.1845926,67.8172554 C50.9721092,68.027365 50.6844597,68.1444942 50.3851852,68.1427692 L27.2023704,68.1427692 L19.6474074,75.6632615 L18.0598519,74.0805908 L25.9413333,66.22336 C26.1538168,66.0132503 26.4414663,65.8961212 26.7407407,65.8978462 L49.9235556,65.8978462 L63.0856296,52.7538215 C65.009402,51.1109264 65.3200379,48.2599032 63.794963,46.2435446 L54.5511111,55.4589538 L52.9635556,53.8762831 L63.0968889,43.7741292 Z M28.9925926,56.9181538 L31.2444444,56.9181538 L31.2444444,59.1630769 L28.9925926,59.1630769 L28.9925926,56.9181538 Z M26.7407407,43.4486154 C26.7407407,40.9689418 28.7571176,38.9587692 31.2444444,38.9587692 C32.2732741,38.9601889 33.2706037,39.3127355 34.0705185,39.95776 C35.0111533,38.0215681 36.979221,36.7918005 39.1371852,36.7918005 C41.2951494,36.7918005 43.2632171,38.0215681 44.2038519,39.95776 C45.6461989,38.8024675 47.6505601,38.64414 49.2574086,39.5585721 C50.864257,40.4730042 51.7466317,42.2741276 51.4821227,44.0997092 C51.2176137,45.9252908 49.8600432,47.403862 48.0593067,47.8276019 C46.2585702,48.2513418 44.3810808,47.5340278 43.3256296,46.0190523 C42.2712346,47.2353062 40.7384295,47.9343505 39.1259259,47.9343505 C37.5134224,47.9343505 35.9806172,47.2353062 34.9262222,46.0190523 C33.7971907,47.6167559 31.7611489,48.3028466 29.8913226,47.7156764 C28.0214964,47.1285063 26.7474459,45.4029675 26.7407407,43.4486154 Z M47.0074074,41.2036923 C45.763744,41.2036923 44.7555556,42.2087786 44.7555556,43.4486154 C44.7555556,44.6884522 45.763744,45.6935385 47.0074074,45.6935385 C48.2510708,45.6935385 49.2592593,44.6884522 49.2592593,43.4486154 C49.2592593,42.2087786 48.2510708,41.2036923 47.0074074,41.2036923 Z M39.1259259,38.9587692 C37.2604308,38.9587692 35.7481481,40.4663987 35.7481481,42.3261538 C35.7481481,44.185909 37.2604308,45.6935385 39.1259259,45.6935385 C40.9914211,45.6935385 42.5037037,44.185909 42.5037037,42.3261538 C42.5037037,40.4663987 40.9914211,38.9587692 39.1259259,38.9587692 Z M31.2444444,41.2036923 C30.000781,41.2036923 28.9925926,42.2087786 28.9925926,43.4486154 C28.9925926,44.6884522 30.000781,45.6935385 31.2444444,45.6935385 C32.4881079,45.6935385 33.4962963,44.6884522 33.4962963,43.4486154 C33.4962963,42.2087786 32.4881079,41.2036923 31.2444444,41.2036923 Z M48.1333333,20.9993846 L48.1333333,27.7341538 L45.8814815,27.7341538 L45.8814815,20.9993846 C45.8814815,19.7595478 46.8896699,18.7544615 48.1333333,18.7544615 L63.4346667,18.7544615 L59.7191111,15.0615631 L61.3179259,13.4676677 L66.9475556,19.0799754 C67.3841036,19.5177774 67.3841036,20.2248441 66.9475556,20.6626462 L61.3179259,26.2749538 L59.7303704,24.6922831 L63.4346667,20.9993846 L48.1333333,20.9993846 Z M38,7.99005538 L34.2844444,11.6829538 L32.6968889,10.1002831 L38.3265185,4.48797538 C38.7656718,4.05277056 39.4749208,4.05277056 39.9140741,4.48797538 L45.5437037,10.1002831 L43.9561481,11.6829538 L40.2518519,7.99005538 L40.2518519,25.4892308 L38,25.4892308 L38,7.99005538 Z M38,32.224 L40.2518519,32.224 L40.2518519,34.4689231 L38,34.4689231 L38,32.224 Z M45.8814815,34.4689231 L48.1333333,34.4689231 L48.1333333,36.7138462 L45.8814815,36.7138462 L45.8814815,34.4689231 Z M45.8814815,29.9790769 L48.1333333,29.9790769 L48.1333333,32.224 L45.8814815,32.224 L45.8814815,29.9790769 Z M30.1185185,34.4689231 L32.3703704,34.4689231 L32.3703704,36.7138462 L30.1185185,36.7138462 L30.1185185,34.4689231 Z M30.1185185,29.9790769 L32.3703704,29.9790769 L32.3703704,32.224 L30.1185185,32.224 L30.1185185,29.9790769 Z M38,27.7341538 L40.2518519,27.7341538 L40.2518519,29.9790769 L38,29.9790769 L38,27.7341538 Z M16.9339259,26.2861785 L11.3042963,20.6626462 C10.8677482,20.2248441 10.8677482,19.5177774 11.3042963,19.0799754 L16.9339259,13.4676677 L18.5214815,15.0615631 L14.8171852,18.7544615 L30.1185185,18.7544615 C31.362182,18.7544615 32.3703704,19.7595478 32.3703704,20.9993846 L32.3703704,27.7341538 L30.1185185,27.7341538 L30.1185185,20.9993846 L14.8171852,20.9993846 L18.5214815,24.7035077 L16.9339259,26.2861785 Z" id="path-1"></path>
        <linearGradient x1="100%" y1="0%" x2="0%" y2="100%" id="linearGradient-3">
            <stop stop-color="#FABD61" offset="0%"></stop>
            <stop stop-color="#F76B1C" offset="100%"></stop>
        </linearGradient>
    </defs>
    <g id="Web" stroke="none" stroke-width="1" fill="none" fill-rule="evenodd">
        <g id="3.1-Short-Term" transform="translate(-1086.000000, -775.000000)">
            <g id="icons/choice_section" transform="translate(1079.000000, 771.000000)">
                <mask id="mask-2" fill="white">
                    <use xlink:href="#path-1"></use>
                </mask>
                <use id="Combined-Shape" fill="#00C57F" fill-rule="nonzero" xlink:href="#path-1"></use>
                <g id="Colors/Orange" mask="url(#mask-2)" fill="url(#linearGradient-3)" fill-rule="evenodd">
                    <rect id="Rectangle-2" x="0" y="0" width="76" height="76"></rect>
                </g>
            </g>
        </g>
    </g>
</svg>