<?xml version="1.0" encoding="UTF-8"?>
<svg width="73px" height="75px" viewBox="0 0 73 75" version="1.1" xmlns="http://www.w3.org/2000/svg" xmlns:xlink="http://www.w3.org/1999/xlink">
    <!-- Generator: Sketch 51.1 (57501) - http://www.bohemiancoding.com/sketch -->
    <title>icons/time</title>
    <desc>Created with Sketch.</desc>
    <defs>
        <path d="M55.305775,68.2902584 L54.5871871,67.0408583 C54.1387068,66.2439158 55.3261605,65.5498046 55.7848336,66.3467471 L56.4932287,67.5910057 C58.1954155,66.5472681 59.7905786,65.3338589 61.2481398,63.9816275 L59.3370019,62.0483993 C58.1801264,60.8864057 59.9281806,59.1279907 61.0799597,60.2899842 L62.9910976,62.2232124 C64.3365387,60.752725 65.5392815,59.1434154 66.5738442,57.4261329 L65.3405232,56.7063138 C64.5454898,56.243573 65.2385958,55.0455885 66.0285328,55.5031878 L67.2669502,56.2230068 C68.3015128,54.3257695 69.1373171,52.2948516 69.7539776,50.176527 L68.3677656,49.8011928 C67.4911904,49.5646809 67.8428397,48.2227326 68.7245114,48.4592445 L70.105627,48.8294372 C70.5693965,46.9167752 70.8496967,44.9269898 70.9312386,42.8857887 L68.2250673,42.8857887 C66.599326,42.8857887 66.599326,40.4024131 68.2250673,40.4024131 L70.9312386,40.4024131 C70.8496967,38.361212 70.5693965,36.3714266 70.105627,34.4536231 L68.7245114,34.8289573 C67.8428397,35.0654693 67.4911904,33.7183794 68.3677656,33.4818674 L69.7539776,33.1116748 C69.1373171,30.9882087 68.3015128,28.9624323 67.2669502,27.0600535 L66.0285328,27.7798725 C65.2385958,28.2374717 64.5454898,27.0394872 65.3405232,26.5767464 L66.5738442,25.8569274 C65.5392815,24.1396449 64.3314423,22.5354768 62.9910976,21.0649894 L61.0799597,22.993076 C59.9230842,24.1550696 58.1852228,22.3966546 59.3370019,21.234661 L61.2481398,19.3065743 C59.7905786,17.9492013 58.2005119,16.7409337 56.4983251,15.6920546 L55.7848336,16.9414547 C55.3261605,17.7332556 54.1387068,17.0391444 54.5871871,16.242202 L55.305775,14.9928018 C53.4201189,13.9542058 51.41215,13.1058477 49.3073501,12.4837184 L48.9353153,13.8822239 C48.7008824,14.766573 47.3707304,14.411805 47.6051633,13.5223144 L47.9822945,12.1289504 C46.076253,11.6610681 44.109055,11.378282 42.085797,11.296017 L42.085797,14.0261877 C42.085797,15.6714883 39.619155,15.6714883 39.619155,14.0261877 L39.619155,11.296017 C37.8660045,11.3679989 36.1485285,11.5890862 34.4820163,11.9489957 C31.7197849,12.4888599 31.2203409,9.54274354 33.7532357,9.05429492 C35.0935804,8.80235826 36.321805,8.59669569 37.5704151,8.46301501 L37.5704151,7.00281072 L34.2170051,7.00281072 L34.2170051,0 L47.4828505,0 L47.4828505,7.00281072 L44.1396332,7.00281072 L44.1396332,8.44759032 C61.0188033,10.1288819 73.9126138,24.504696 73.9126138,41.6415301 C73.9126138,60.0637554 59.1076654,75 40.852476,75 C38.3246776,75 36.2300704,74.6966477 33.7532357,74.2287653 C31.2203409,73.7403167 31.7197849,70.7942003 34.4820163,71.3340646 C36.1485285,71.6939741 37.8660045,71.9202029 39.619155,71.9921848 L39.619155,69.2568726 C39.619155,67.6167135 42.0807006,67.6167135 42.0807006,69.2568726 L42.0807006,71.9870433 C44.109055,71.9047782 46.076253,71.6219922 47.9771981,71.1592514 L47.6051633,69.7607459 C47.3707304,68.8712552 48.7008824,68.5164873 48.9353153,69.4008364 L49.3073501,70.7993419 C51.4070536,70.1772126 53.4201189,69.333996 55.305775,68.2902584 M41.8105931,8.30362652 C41.1735471,8.28306026 40.5365012,8.28306026 39.8994552,8.30362652 L39.8994552,4.65311579 L36.5460452,4.65311579 L36.5460452,2.34455337 L45.1589068,2.34455337 L45.1589068,4.65311579 L41.8105931,4.65311579 L41.8105931,8.30362652 Z M2.9417384,40.474341 L27.9011137,40.474341 C29.8183054,40.474341 29.8183054,43.354056 27.9011137,43.354056 L2.9417384,43.354056 C1.01942053,43.354056 1.01942053,40.474341 2.9417384,40.474341 Z M7.33034383,32.8560474 L28.3194859,32.8560474 C30.2888635,32.8560474 30.2888635,36.1210303 28.3194859,36.1210303 L7.33034383,36.1210303 C5.36096623,36.1210303 5.36096623,32.8560474 7.33034383,32.8560474 Z M12.6836806,24.1494261 L28.4077874,24.1494261 C30.2594297,24.1494261 30.2594297,27.4144091 28.4077874,27.4144091 L12.6836806,27.4144091 C10.8320383,27.4144091 10.8320383,24.1494261 12.6836806,24.1494261 Z M18.1108012,16.5311325 L28.4186308,16.5311325 C30.2558152,16.5311325 30.2558152,19.7961155 28.4186308,19.7961155 L18.1108012,19.7961155 C16.2785159,19.7961155 16.2785159,16.5311325 18.1108012,16.5311325 Z M7.33034383,51.3576176 C5.36096623,51.3576176 5.36096623,48.0926346 7.33034383,48.0926346 L28.3194859,48.0926346 C30.2888635,48.0926346 30.2888635,51.3576176 28.3194859,51.3576176 L7.33034383,51.3576176 Z M12.6836806,60.0642388 C10.8320383,60.0642388 10.8320383,56.7992558 12.6836806,56.7992558 L28.4077874,56.7992558 C30.2594297,56.7992558 30.2594297,60.0642388 28.4077874,60.0642388 L12.6836806,60.0642388 Z M18.1108012,67.6825324 C16.2785159,67.6825324 16.2785159,64.4175494 18.1108012,64.4175494 L28.4186308,64.4175494 C30.2558152,64.4175494 30.2558152,67.6825324 28.4186308,67.6825324 L18.1108012,67.6825324 Z M43.5717548,45.405153 C42.0021392,47.6798323 38.5124591,47.345031 36.7108563,45.5479359 C34.8747021,43.716376 34.5736123,40.3092806 36.8539973,38.7091274 L55.0032952,26.4691866 C55.4672696,26.0802263 56.2422056,26.5282692 55.7683594,27.281572 L43.5717548,45.405153 Z M41.8244469,44.1841131 L50.7485509,31.5453648 L38.0781001,40.44714 C36.8934845,41.2792196 37.3278436,43.1501679 38.2212411,44.0413302 C39.1047669,44.9226453 41.0050877,45.3706882 41.8244469,44.1841131 Z" id="path-1"></path>
        <linearGradient x1="100%" y1="0%" x2="0%" y2="100%" id="linearGradient-3">
            <stop stop-color="#FABD61" offset="0%"></stop>
            <stop stop-color="#F76B1C" offset="100%"></stop>
        </linearGradient>
    </defs>
    <g id="Web" stroke="none" stroke-width="1" fill="none" fill-rule="evenodd">
        <g id="3.1-Short-Term" transform="translate(-306.000000, -1059.000000)">
            <g id="icons/time" transform="translate(305.000000, 1059.000000)">
                <mask id="mask-2" fill="white">
                    <use xlink:href="#path-1"></use>
                </mask>
                <use id="Combined-Shape" fill="#EE7C26" fill-rule="evenodd" xlink:href="#path-1"></use>
                <g id="Colors/Orange" mask="url(#mask-2)" fill="url(#linearGradient-3)" fill-rule="evenodd">
                    <rect id="Rectangle-2" x="0" y="0" width="75" height="75"></rect>
                </g>
            </g>
        </g>
    </g>
</svg>