<?xml version="1.0" encoding="UTF-8"?>
<svg width="71px" height="71px" viewBox="0 0 71 71" version="1.1" xmlns="http://www.w3.org/2000/svg" xmlns:xlink="http://www.w3.org/1999/xlink">
    <!-- Generator: Sketch 51.1 (57501) - http://www.bohemiancoding.com/sketch -->
    <title>icons/btc</title>
    <desc>Created with Sketch.</desc>
    <defs>
        <path d="M62.500421,61.1527449 L58.3156649,57.1807611 C60.1222997,55.4378178 61.7031051,53.4934288 63.0119936,51.3913866 L68.0770232,54.1809717 C66.5192616,56.7078016 64.6481041,59.0507027 62.500421,61.1527449 Z M73.5,26.9420088 L67.7647475,28.614884 C67.1274972,26.1756393 66.1346797,23.8283589 64.8232371,21.6431109 L69.8981506,18.8535258 C71.4681875,21.3847349 72.6780395,24.1086312 73.5,26.9420088 Z M7.33968296,18.1214116 C8.91201322,15.6288663 10.7840545,13.3273717 12.9189194,11.2613583 L17.1010412,15.2201066 C15.2889421,16.93512 13.7304447,18.8900574 12.4762692,21.0227165 L7.33968296,18.1214116 Z M46.0605129,8.00757217 C43.6852601,7.42758902 41.2435357,7.1200222 38.7929484,7.09805314 L38.7929484,1.50033703 C41.7221314,1.48715559 44.646883,1.86062959 47.4697113,2.62075901 L46.0605129,8.00757217 Z M12.7626598,60.9991195 L16.7346436,56.8143634 C18.4775869,58.625607 20.4175966,60.2018036 22.524018,61.5106921 L19.7344329,66.5757217 C17.1944653,65.0363951 14.8515642,63.1652377 12.7626598,60.9991195 Z M62.6540464,11.4574316 L58.6820626,15.5997397 C56.9391193,13.7979286 54.9947303,12.2329534 52.8926881,10.941965 L55.6822732,5.83838145 C58.2528956,7.33834278 60.6045553,9.23303077 62.6540464,11.4574316 Z M46.385116,66.1640805 C48.7927674,65.5439761 51.1147533,64.5903308 53.2744256,63.3219356 L56.1464742,68.5552403 C53.5314221,70.0820124 50.7315129,71.2423591 47.8188859,71.9986985 L46.385116,66.1640805 Z M30.4989516,65.4911263 C32.8581525,66.0671211 35.2788595,66.3749046 37.7083531,66.4012861 L37.7083531,71.9985486 C34.7780235,72.0073424 31.8652672,71.6292084 29.0315902,70.8817342 L30.4989516,65.4911263 Z M31.2007809,8.29458533 C28.7931295,8.97922523 26.4756523,9.9759119 24.3114713,11.2613583 L21.4394227,6.14751732 C24.049966,4.58262611 26.8498753,3.38567063 29.767011,2.58459536 L31.2007809,8.29458533 Z M3,36.6725599 C3.04338381,33.8743039 3.41214624,31.0934014 4.10628727,28.3819129 L9.49455702,29.7658566 C8.87850686,32.0174766 8.55746663,34.3385107 8.52709796,36.6725599 L3,36.6725599 Z M66.9924278,44.5706334 C67.6119442,42.1926553 67.9151118,39.7443489 67.9019306,37.2916469 L73.4951529,37.2916469 C73.5478777,40.2234609 73.1700166,43.1464839 72.3835384,45.9684098 L66.9924278,44.5706334 Z M4.08589688,46.5566897 L9.79895343,44.8838145 C10.4513416,47.3230592 11.4485636,49.6659604 12.7626598,51.8555876 L7.64607241,54.6451727 C6.08034076,52.1095844 4.88274245,49.3900673 4.08589688,46.5566897 Z M37.7083531,12.3459536 C50.8851683,12.3459536 61.569451,23.0291914 61.569451,36.204718 C61.569451,49.3849117 50.8851683,60.0681495 37.7083531,60.0681495 C24.5315378,60.0681495 13.8472551,49.3849117 13.8472551,36.204718 C13.8472551,23.0291914 24.5315378,12.3459536 37.7083531,12.3459536 Z M37.4843052,54.2621435 C47.8045101,54.2621435 56.1689639,45.8985078 56.1689639,35.5793122 C56.1689639,25.2601166 47.8045101,16.8964809 37.4843052,16.8964809 C27.1641003,16.8964809 18.7996465,25.2601166 18.7996465,35.5793122 C18.7996465,45.8985078 27.1641003,54.2621435 37.4843052,54.2621435 Z M45.8926219,31.09767 C46.1306523,33.1667211 45.2578741,34.422608 43.8296916,35.1499381 C46.195994,35.6649421 47.6941855,37.006663 47.4421533,40.0469935 C47.1341139,43.8282069 44.2404107,44.8808027 40.0865465,45.1654102 L40.1425536,49.1318443 L37.6735714,49.1634674 L37.6175642,45.2512442 C36.9781492,45.2602793 36.3247323,45.2602793 35.6433119,45.2557618 L35.699319,49.1905728 L33.2303368,49.2221959 L33.1743296,45.2467266 C32.595589,45.2512442 32.0075138,45.2467266 31.4101041,45.2557618 L28.1896925,45.29642 L28.642417,42.4322751 C28.642417,42.4322751 30.4719842,42.4367926 30.4393134,42.4096872 C31.1394029,42.400652 31.3167589,41.9127535 31.3587642,41.6055582 L31.2747535,35.3351589 C31.3634315,35.3306413 31.4521095,35.3306413 31.531453,35.3306413 C31.4334405,35.3216061 31.3400952,35.3170886 31.2747535,35.3170886 L31.2094118,30.840168 C31.106732,30.3567871 30.7753563,29.7966073 29.7718947,29.8101601 C29.8045656,29.778537 27.9843329,29.8372655 27.9843329,29.8372655 L27.9469948,27.280316 L31.354097,27.2396578 L31.354097,27.2486929 C31.8674959,27.2441754 32.3902294,27.226105 32.9269647,27.2080347 L32.8709575,23.2822588 L35.344607,23.2506357 L35.3959469,27.0996128 C36.054031,27.0770249 36.7214497,27.0589546 37.3701993,27.0499195 L37.3188594,23.2235303 L39.7878416,23.1919072 L39.8438488,27.1222007 C43.0362568,27.3525972 45.575248,28.2696657 45.8926219,31.09767 Z M41.3047022,32.2270647 C41.2626968,29.4080956 36.8894712,29.8914765 35.4939595,29.9095468 L35.5593011,34.6846275 C36.9501456,34.6710748 41.3420403,34.9285768 41.3047022,32.2270647 Z M42.5555287,39.6404114 C42.5135233,36.54587 37.2675195,37.0744267 35.5873047,37.0970146 L35.6619809,42.3645114 C37.3375284,42.3419235 42.5928668,42.6129782 42.5555287,39.6404114 Z" id="path-1"></path>
        <linearGradient x1="100%" y1="0%" x2="0%" y2="100%" id="linearGradient-3">
            <stop stop-color="#FABD61" offset="0%"></stop>
            <stop stop-color="#F76B1C" offset="100%"></stop>
        </linearGradient>
    </defs>
    <g id="Web" stroke="none" stroke-width="1" fill="none" fill-rule="evenodd">
        <g id="3.1-Short-Term" transform="translate(-1082.000000, -1059.000000)">
            <g id="icons/btc" transform="translate(1079.000000, 1058.000000)">
                <mask id="mask-2" fill="white">
                    <use xlink:href="#path-1"></use>
                </mask>
                <use id="Combined-Shape" fill="#EE7C26" fill-rule="evenodd" xlink:href="#path-1"></use>
                <g id="Colors/Orange" mask="url(#mask-2)" fill="url(#linearGradient-3)" fill-rule="evenodd">
                    <rect id="Rectangle-2" x="0" y="0" width="75" height="75"></rect>
                </g>
            </g>
        </g>
    </g>
</svg>