<svg xmlns="http://www.w3.org/2000/svg" viewBox="0 0 17.85 24.28"><defs><style>.cls-1{fill:#00c57f;}</style></defs><title>reliabilityicon</title><g id="Layer_2" data-name="Layer 2"><g id="Layer_1-2" data-name="Layer 1"><path class="cls-1" d="M8.92,24.28,4.24,20.6A10.92,10.92,0,0,1,0,11.9V4.13l.33,0C2.64,3.9,8.55,2.75,8.55,0H9.3c0,2.75,5.91,3.9,8.21,4.09l.34,0V11.9a11,11,0,0,1-4.24,8.7ZM.74,4.8v7.1A10.26,10.26,0,0,0,4.68,20l4.24,3.31L13.16,20a10.26,10.26,0,0,0,3.94-8.1V4.8c-1.41-.15-6.73-.93-8.18-3.42C7.47,3.87,2.16,4.65.74,4.8Z"/><path class="cls-1" d="M8.92,22.38,5.17,19.45A9.57,9.57,0,0,1,1.49,11.9V5.47l.29,0a20.61,20.61,0,0,0,3.16-.71A9.59,9.59,0,0,0,8.66,2.83l.26-.23.26.23A10,10,0,0,0,12.9,4.72a21.14,21.14,0,0,0,3.16.71l.3,0V11.9a9.49,9.49,0,0,1-3.68,7.51ZM2.23,6.1v5.8a8.71,8.71,0,0,0,3.38,6.91l3.31,2.61,3.31-2.61a8.57,8.57,0,0,0,3.39-6.91V6.1a29.91,29.91,0,0,1-3-.67A11.12,11.12,0,0,1,8.92,3.61,11.36,11.36,0,0,1,5.21,5.43C4.09,5.73,3,6,2.23,6.1Z"/><polygon class="cls-1" points="8.18 14.65 5.69 12.16 6.21 11.64 8.18 13.61 12.94 8.85 13.46 9.37 8.18 14.65"/></g></g></svg>