<?xml version="1.0" encoding="UTF-8"?>
<svg width="35px" height="29px" viewBox="0 0 35 29" version="1.1" xmlns="http://www.w3.org/2000/svg" xmlns:xlink="http://www.w3.org/1999/xlink">
    <!-- Generator: Sketch 51.1 (57501) - http://www.bohemiancoding.com/sketch -->
    <title>noun_Card_1889668</title>
    <desc>Created with Sketch.</desc>
    <defs>
        <linearGradient x1="100%" y1="0%" x2="0%" y2="100%" id="linearGradient-1">
            <stop stop-color="#7065D8" offset="0%"></stop>
            <stop stop-color="#275DDF" offset="100%"></stop>
        </linearGradient>
    </defs>
    <g id="Registration-&amp;-Login" stroke="none" stroke-width="1" fill="none" fill-rule="evenodd">
        <g id="Deposit" transform="translate(-287.000000, -632.000000)" fill="url(#linearGradient-1)" fill-rule="nonzero">
            <g id="noun_Card_1889668" transform="translate(287.000000, 632.000000)">
                <g id="Group">
                    <path d="M31.5,0.0571428571 L5.74,0.0571428571 C3.808,0.0571428571 2.24,1.65714286 2.24,3.62857143 L2.24,14.8571429 C0.854,16.3571429 0,18.3714286 0,20.5928571 C0,25.2 3.675,28.95 8.19,28.95 C11.991,28.95 15.197,26.2928571 16.114,22.7 L31.5,22.7 C33.432,22.7 35,21.1 35,19.1285714 L35,3.62857143 C35,1.65714286 33.432,0.0571428571 31.5,0.0571428571 Z M3.64,6.48571429 L33.6,6.48571429 L33.6,9.62857143 L3.64,9.62857143 L3.64,6.48571429 Z M5.74,1.48571429 L31.5,1.48571429 C32.655,1.48571429 33.6,2.45 33.6,3.62857143 L33.6,5.05714286 L3.64,5.05714286 L3.64,3.62857143 C3.64,2.44285714 4.585,1.48571429 5.74,1.48571429 Z M8.19,27.5142857 C4.445,27.5142857 1.4,24.4071429 1.4,20.5857143 C1.4,16.7642857 4.445,13.6571429 8.19,13.6571429 C11.935,13.6571429 14.98,16.7642857 14.98,20.5857143 C14.98,24.4071429 11.935,27.5142857 8.19,27.5142857 Z M31.5,21.2714286 L16.352,21.2714286 C16.373,21.05 16.38,20.8214286 16.38,20.5928571 C16.38,15.9857143 12.705,12.2357143 8.19,12.2357143 C6.51,12.2357143 4.942,12.7571429 3.64,13.65 L3.64,11.0571429 L33.6,11.0571429 L33.6,19.1285714 C33.6,20.3071429 32.655,21.2714286 31.5,21.2714286 Z" id="Shape"></path>
                    <path d="M28.035,13.8 C26.971,13.8 26.047,14.4142857 25.585,15.3142857 C25.123,14.4142857 24.199,13.8 23.135,13.8 C21.609,13.8 20.37,15.0642857 20.37,16.6214286 C20.37,18.1785714 21.609,19.4428571 23.135,19.4428571 C24.199,19.4428571 25.123,18.8285714 25.585,17.9285714 C26.047,18.8285714 26.971,19.4428571 28.035,19.4428571 C29.561,19.4428571 30.8,18.1785714 30.8,16.6214286 C30.8,15.0642857 29.561,13.8 28.035,13.8 Z M23.135,18.0142857 C22.379,18.0142857 21.77,17.3928571 21.77,16.6214286 C21.77,15.85 22.379,15.2285714 23.135,15.2285714 C23.891,15.2285714 24.5,15.8571429 24.5,16.6285714 C24.5,17.4 23.891,18.0142857 23.135,18.0142857 Z M28.035,18.0142857 C27.279,18.0142857 26.67,17.3928571 26.67,16.6214286 C26.67,15.85 27.279,15.2285714 28.035,15.2285714 C28.791,15.2285714 29.4,15.8571429 29.4,16.6285714 C29.4,17.4 28.791,18.0142857 28.035,18.0142857 Z" id="Shape"></path>
                    <path d="M8.19,21.3571429 C7.805,21.3571429 7.49,21.6785714 7.49,22.0714286 L7.49,22.8142857 C7.49,23.2071429 7.805,23.5285714 8.19,23.5285714 C8.575,23.5285714 8.89,23.2071429 8.89,22.8142857 L8.89,22.0714286 C8.89,21.6785714 8.575,21.3571429 8.19,21.3571429 Z" id="Shape"></path>
                    <path d="M10.864,19.2928571 L10.864,17.9571429 C10.864,16.45 9.667,15.2285714 8.19,15.2285714 C6.713,15.2285714 5.516,16.45 5.516,17.9571429 L5.516,19.2928571 C4.816,20 4.382,20.9785714 4.382,22.0571429 C4.382,24.2 6.09,25.9428571 8.19,25.9428571 C10.29,25.9428571 11.998,24.2 11.998,22.0571429 C11.998,20.9785714 11.564,20 10.864,19.2928571 Z M6.916,17.9642857 C6.916,17.25 7.49,16.6642857 8.19,16.6642857 C8.89,16.6642857 9.464,17.25 9.464,17.9642857 L9.464,18.4 C9.065,18.2571429 8.638,18.1785714 8.19,18.1785714 C7.742,18.1785714 7.315,18.2571429 6.916,18.4 L6.916,17.9642857 Z M8.19,24.5142857 C6.86,24.5142857 5.782,23.4142857 5.782,22.0571429 C5.782,20.7 6.86,19.6 8.19,19.6 C9.52,19.6 10.598,20.7 10.598,22.0571429 C10.598,23.4142857 9.52,24.5142857 8.19,24.5142857 Z" id="Shape"></path>
                </g>
            </g>
        </g>
    </g>
</svg>