<?xml version="1.0" encoding="UTF-8"?>
<svg width="50px" height="50px" viewBox="0 0 50 50" version="1.1" xmlns="http://www.w3.org/2000/svg" xmlns:xlink="http://www.w3.org/1999/xlink">
    <!-- Generator: Sketch 51.1 (57501) - http://www.bohemiancoding.com/sketch -->
    <title>icons/fund</title>
    <desc>Created with Sketch.</desc>
    <defs>
        <path d="M25.5,13.3544564 C26.8668501,13.3544564 27.9793743,12.3416381 27.9793743,11.0970031 C27.9793743,9.85236817 26.8668501,8.83954862 25.5,8.83954862 C24.1331499,8.83954862 23.0206257,9.85236695 23.0206257,11.0970031 C23.0206257,12.3416393 24.1331499,13.3544564 25.5,13.3544564 Z M15.624274,28.7813122 L20.0276821,23.550103 C19.7242504,21.6930388 19.565719,19.8036621 19.565719,17.9309975 C19.565719,12.9825075 20.6401549,8.59546653 22.8504608,4.51904886 L22.883634,4.45833425 C22.9555087,4.32617429 23.0273835,4.19432057 23.0992583,4.0673735 C23.2086448,3.87323479 23.3283958,3.68016834 23.4434265,3.48641332 C23.5241334,3.35038216 23.6029582,3.21189772 23.6861584,3.07667081 C23.9364144,2.66991839 24.1951946,2.26573422 24.4654949,1.86910011 C24.4656083,1.86894698 24.4657635,1.86883202 24.4658768,1.8686789 C24.4668376,1.86729916 24.4676063,1.86588061 24.4685646,1.86450087 C24.7001609,1.52474822 25.0859526,1.32236842 25.5,1.32236842 C25.9140474,1.32236842 26.2998391,1.52474822 26.5308192,1.86419411 C26.5314351,1.86507579 26.5319327,1.86599563 26.5325486,1.86687737 C26.5331227,1.8676822 26.5339308,1.86829522 26.5345048,1.86910011 C26.8071851,2.26922179 27.0680003,2.67708586 27.3204834,3.08778639 C27.3956989,3.21017298 27.4655387,3.33317194 27.5386798,3.45605659 C27.6604289,3.66046789 27.7863637,3.86411254 27.9019709,4.06921313 C27.9726163,4.19432051 28.0444911,4.32617422 28.1163659,4.45833419 L28.1442422,4.5095036 C28.1459298,4.51260871 28.1478514,4.51563627 28.1495391,4.51874139 C28.1498076,4.51923944 28.1497707,4.51981494 28.1500392,4.520313 C30.3601899,8.59700004 31.434281,12.9833891 31.434281,17.9309975 C31.434281,19.8024741 31.2759047,21.6906998 30.9723179,23.550103 L35.3757283,28.7813122 C35.5354474,28.9711198 35.568623,29.236972 35.4598869,29.4598964 C35.3542255,29.6766893 35.1342996,29.8134485 34.8941028,29.8134485 C34.8873474,29.8134485 34.8799761,29.8134485 34.8732159,29.8131411 L29.5890327,29.6383584 L29.2092326,32.6817212 C29.1693016,32.9954101 28.9014625,33.2302925 28.5850893,33.2302925 L28.5164395,33.2302925 C29.0237487,36.6813282 27.8437646,38.0354713 25.9373929,39.87724 C25.8157572,39.9949898 25.6578785,40.0538598 25.4999999,40.0538598 C25.3421213,40.0538598 25.1842427,39.9949898 25.0626069,39.87724 C23.1562352,38.0354714 21.9762512,36.6813282 22.4835604,33.2302925 L22.4149105,33.2302925 C22.0985373,33.2302925 21.8306982,32.9954101 21.7907673,32.6817212 L21.41112,29.6383584 L16.126784,29.8131411 C16.1200262,29.8134485 16.1126549,29.8134485 16.1058971,29.8134485 C15.8657002,29.8134485 15.6457743,29.6766893 15.5401129,29.4598964 C15.4313794,29.2369719 15.4645526,28.9711198 15.624274,28.7813122 Z M17.4948635,28.5111658 L21.1254635,28.3909639 C21.0958997,28.2934162 21.0717484,28.191498 21.0429532,28.0932591 C20.969312,27.839478 20.8997037,27.5853552 20.831591,27.3306543 C20.7622489,27.0726602 20.6926012,26.8160803 20.6286373,26.5546749 C20.5765728,26.3417531 20.5311897,26.1285657 20.4830819,25.9154153 C20.4265262,25.6648168 20.3636363,25.4172091 20.3121114,25.1645397 L17.4948635,28.5111658 Z M23.7381441,31.1804301 C23.390443,31.1804301 23.1090858,30.8992456 23.1090859,30.5524398 L23.1090859,29.4988396 L22.659409,29.4988396 L22.9690219,31.974312 L23.2301057,31.974312 L27.7698944,31.974312 L28.0309781,31.974312 L28.3399774,29.4988396 L27.8909141,29.4988397 L27.8909141,30.5524398 C27.8909141,30.8992456 27.6095569,31.1804301 27.2618558,31.1804301 C26.9141523,31.1804301 26.6327975,30.8992456 26.6327975,30.5524398 L26.6327975,29.4988397 L26.1290582,29.4988397 L26.1290582,30.5524398 C26.1290582,30.8992456 25.847701,31.1804301 25.4999999,31.1804301 C25.1522989,31.1804301 24.8709417,30.8992456 24.8709417,30.5524398 L24.8709417,29.4988397 L24.3672023,29.4988397 L24.3672023,30.5524398 C24.3672023,30.8992456 24.0858476,31.1804301 23.7381441,31.1804301 Z M25.5006135,37.3370687 C25.3077188,37.3370687 25.116667,37.2487588 24.9938045,37.0816424 C24.4200356,36.3046251 24.1927385,35.51473 24.2345123,34.4405834 C24.247412,34.102366 24.5263105,33.8368189 24.8623412,33.8368189 C24.8709418,33.8368189 24.8789266,33.8368189 24.8869137,33.8374314 C25.2340013,33.8506166 25.5049151,34.1422268 25.4913994,34.4890326 C25.4563835,35.3960602 25.6720078,35.883612 26.0061957,36.3365146 C26.2126059,36.6158619 26.1530174,37.0089649 25.8728896,37.2147197 C25.7610838,37.2972056 25.630234,37.3370687 25.5006135,37.3370687 Z M25.5,38.5464423 C26.9933985,37.0571066 27.693718,35.9749914 27.2446546,33.2302925 L23.7553453,33.2302925 C23.306282,35.9749914 24.0066015,37.0571067 25.5,38.5464423 Z M29.8751498,28.3912713 L33.5051365,28.5111659 L30.6878886,25.1645398 C30.5682903,25.751634 30.4318356,26.3340501 30.2840161,26.9122114 C30.2424345,27.0736169 30.1941344,27.2359055 30.1497098,27.3980759 C30.0599439,27.7299723 29.9739006,28.0635142 29.8751498,28.3912713 Z M25.4938187,2.57562814 C25.069249,3.21511708 24.6617672,3.8733491 24.2844628,4.53384377 C25.0554278,4.80809135 25.9460306,4.80843564 26.7156899,4.53395814 C26.5894865,4.31321894 26.4581021,4.09347587 26.3247935,3.87419268 C26.2686615,3.78174225 26.2159072,3.6881801 26.1584694,3.59599769 C25.9492949,3.26034621 25.7326334,2.92749243 25.5094062,2.59943034 C25.5040305,2.59149608 25.4992313,2.58356182 25.4938187,2.57562814 Z M25.5,10.0955291 C26.1732884,10.0955291 26.7212578,10.5447511 26.7212578,11.0970031 C26.7212578,11.6492538 26.1732884,12.0984759 25.5,12.0984759 C24.8267116,12.0984759 24.2787422,11.6492539 24.2787422,11.0970031 C24.2787422,10.5447512 24.8267116,10.0955291 25.5,10.0955291 Z M23.1907906,26.5465488 C22.9204927,25.5162522 22.6968812,24.4712357 22.5261029,23.4403267 C22.2128019,21.6121639 22.0536939,19.757628 22.0536939,17.9309975 C22.0536939,17.5841917 22.3350486,17.3030072 22.6827522,17.3030072 C23.0304532,17.3030072 23.3118104,17.5841917 23.3118104,17.9309975 C23.3118104,19.6867952 23.464774,21.4701906 23.7664022,23.2321198 C23.9058527,24.0716889 24.0809326,24.9192317 24.2885722,25.7594132 L25.5,25.7594132 C25.847701,25.7594132 26.1290583,26.0406002 26.1290583,26.3874035 C26.1290583,26.7342092 25.8477011,27.0153937 25.5,27.0153937 L23.7995754,27.0153937 C23.5133056,27.0153937 23.2632788,26.8228266 23.1907906,26.5465488 Z M23.6895755,5.64976828 C21.7697276,9.38815926 20.8238355,13.4103025 20.8238356,17.9309974 C20.8238356,19.8312204 20.9884721,21.7507627 21.3122165,23.6362657 C21.4343869,24.3750283 21.5832436,25.1157094 21.7550222,25.8548163 C21.7634307,25.891037 21.7708389,25.9275651 21.7793631,25.9637096 C21.8514301,26.2695798 21.9303706,26.5748352 22.0107302,26.8798619 C22.0378748,26.9825474 22.0637137,27.0856905 22.0917427,27.187953 C22.1570912,27.4274765 22.2275839,27.6660752 22.2979608,27.9046394 C22.3315946,28.017672 22.3658419,28.1303627 22.4005894,28.2428591 L23.7320392,28.2428591 C23.7341899,28.2428198 23.7359958,28.2416319 23.7381441,28.2416319 C23.7402949,28.2416319 23.7421008,28.2428198 23.7442491,28.2428591 L25.4938951,28.2428591 C25.4960458,28.2428198 25.4978492,28.2416319 25.5,28.2416319 C25.5021508,28.2416319 25.5039542,28.2428198 25.5061049,28.2428592 L27.2557509,28.2428592 C27.2578992,28.2428199 27.2597051,28.2416319 27.2618559,28.2416319 C27.2640042,28.2416319 27.2658101,28.2428199 27.2679608,28.2428592 L28.5998319,28.2428592 C28.7438894,27.7831733 28.8695557,27.3267462 28.9911126,26.8717752 C29.0336551,26.7106377 29.0781537,26.5498077 29.1183532,26.3883234 C29.2402181,25.9018464 29.3539036,25.4178978 29.4482026,24.9428427 C29.5342065,24.5129386 29.6134525,24.0719964 29.6871701,23.6371856 C30.011528,21.7507627 30.1761645,19.8312205 30.1761645,17.9309975 C30.1761645,13.410648 29.2303512,9.38873359 27.3103087,5.64980639 C26.7406862,5.87759933 26.1261019,5.99856621 25.5,5.99856621 C24.8738587,5.99856621 24.259198,5.87763743 23.6895755,5.64976828 Z M40.9236019,48.8745537 C40.9788914,49.0640514 40.9414191,49.2688863 40.822858,49.4268044 C40.703681,49.5847224 40.5175417,49.6776316 40.3197346,49.6776316 L10.6802679,49.6776316 C10.4824583,49.6776316 10.2963214,49.5847224 10.1771445,49.4268044 C10.058581,49.2688863 10.0211075,49.0640514 10.0763957,48.8745537 C10.4972022,47.4272309 11.8456229,46.4162535 13.3549944,46.4162535 C13.7905447,46.4162535 14.2205652,46.5002692 14.6217129,46.659412 C15.028389,45.230491 16.3473234,44.1808752 17.9070682,44.1808752 C18.0520471,44.1808752 18.1964101,44.1900737 18.3395462,44.2087805 C18.929287,42.1448129 20.8465653,40.6606963 23.0507267,40.6606963 C23.91384,40.6606963 24.7523782,40.8885274 25.5000001,41.3227233 C26.2476219,40.8885274 27.0861601,40.6606963 27.9492734,40.6606963 C30.1534349,40.6606963 32.0707131,42.1448129 32.6604539,44.2087805 C32.80359,44.1900737 32.947953,44.1808752 33.0929319,44.1808752 C34.6526792,44.1808752 35.9716135,45.230491 36.3782897,46.659412 C36.7794374,46.5002692 37.2094542,46.4162535 37.6450044,46.4162535 C39.1543748,46.4162535 40.5027991,47.4272308 40.9236019,48.8745537 Z M11.7227601,48.4216511 L39.2772424,48.4216511 C38.8754788,47.9583252 38.2832794,47.672234 37.6450045,47.672234 C37.1388114,47.672234 36.6639461,47.8418002 36.2713966,48.1628503 C36.0668291,48.3315015 35.7774872,48.3526578 35.5495791,48.2162061 C35.321666,48.0800594 35.2043318,47.8154296 35.2559356,47.555404 C35.2497912,46.4030658 34.2822459,45.4368557 33.092932,45.4368557 C32.8539645,45.4368557 32.6156104,45.4773338 32.3846276,45.5573651 C32.207089,45.6189996 32.0098953,45.5978383 31.849558,45.499715 C31.6886071,45.4012868 31.5804894,45.23601 31.5546876,45.0495768 C31.3095757,43.2634218 29.7596585,41.9166768 27.9492734,41.9166768 C27.2041102,41.9166768 26.4822903,42.1466525 25.8612167,42.5817682 C25.6449789,42.7338622 25.3550211,42.7338622 25.1387833,42.5817682 C24.5177097,42.1466525 23.7958898,41.9166768 23.0507266,41.9166768 C21.2403415,41.9166768 19.6904243,43.2634218 19.4453124,45.0495768 C19.4195106,45.23601 19.3113929,45.4012868 19.1504421,45.499715 C18.9901047,45.5978383 18.792911,45.6196095 18.6153724,45.5573651 C18.3843896,45.4773338 18.1460355,45.4368557 17.907068,45.4368557 C16.7177541,45.4368557 15.7502088,46.4030658 15.7502088,47.590363 C15.8018101,47.8503886 15.6814062,48.0975364 15.4534931,48.2336831 C15.2249691,48.369215 14.932555,48.3308865 14.7286035,48.1628502 C14.3360564,47.8418001 13.86119,47.672234 13.3549943,47.672234 C12.7167219,47.672234 12.1245225,47.9583251 11.7227601,48.4216511 Z M16.1058971,19.6012447 C15.7581936,19.6012447 15.4768388,19.3200602 15.4768388,18.9732545 L15.4768388,13.4160909 C15.4768388,13.0692852 15.7581936,12.7880994 16.1058971,12.7880994 C16.4535981,12.7880994 16.7349554,13.0692852 16.7349554,13.4160909 L16.7349554,18.9732545 C16.7349554,19.3200602 16.4535982,19.6012447 16.1058971,19.6012447 Z M34.8941029,23.5105447 C34.5464018,23.5105447 34.2650446,23.2293602 34.2650446,22.8825545 L34.2650446,17.3253934 C34.2650446,16.9785876 34.5464019,16.6974007 34.8941029,16.6974007 C35.2418039,16.6974007 35.5231636,16.9785876 35.5231636,17.3253934 L35.5231636,22.8825545 C35.5231636,23.2293602 35.241804,23.5105447 34.8941029,23.5105447 Z M17.951914,32.4584893 C17.951914,32.1116835 18.2332688,31.830499 18.5809723,31.830499 C18.9286733,31.830499 19.2100306,32.1116835 19.2100306,32.4584893 L19.2100306,38.0156529 C19.2100306,38.3624586 18.9286734,38.6436456 18.5809723,38.6436456 C18.2332688,38.6436456 17.951914,38.3624586 17.951914,38.0156529 L17.951914,32.4584893 Z M12.1282081,41.9166768 C11.7805058,41.9166768 11.4991499,41.6354898 11.4991499,41.2886841 L11.4991499,35.7315229 C11.4991499,35.3847172 11.7805059,35.1035302 12.1282081,35.1035302 C12.4759104,35.1035302 12.7572664,35.3847172 12.7572664,35.7315229 L12.7572664,41.2886841 C12.7572664,41.6354898 12.4759105,41.9166768 12.1282081,41.9166768 Z M31.7899694,32.4584893 C31.7899694,32.1116835 32.0713266,31.830499 32.4190276,31.830499 C32.7667311,31.830499 33.0480859,32.1116835 33.0480859,32.4584893 L33.0480859,38.0156529 C33.0480859,38.3624586 32.7667312,38.6436456 32.4190276,38.6436456 C32.0713266,38.6436456 31.7899694,38.3624586 31.7899694,38.0156529 L31.7899694,32.4584893 Z M38.8717931,41.9166768 C38.5240921,41.9166768 38.2427324,41.6354898 38.2427324,41.2886841 L38.2427324,35.7315229 C38.2427324,35.3847172 38.5240921,35.1035302 38.8717931,35.1035302 C39.2194941,35.1035302 39.5008489,35.3847172 39.5008489,35.7315229 L39.5008489,41.2886841 C39.5008489,41.6354898 39.2194942,41.9166768 38.8717931,41.9166768 Z" id="path-1"></path>
        <linearGradient x1="100%" y1="0%" x2="0%" y2="100%" id="linearGradient-3">
            <stop stop-color="#FABD61" offset="0%"></stop>
            <stop stop-color="#F76B1C" offset="100%"></stop>
        </linearGradient>
    </defs>
    <g id="icons/fund" stroke="none" stroke-width="1" fill="none" fill-rule="evenodd">
        <mask id="mask-2" fill="white">
            <use xlink:href="#path-1"></use>
        </mask>
        <use id="Combined-Shape" fill="#00C57F" fill-rule="nonzero" xlink:href="#path-1"></use>
        <g id="Colors/Orange" mask="url(#mask-2)" fill="url(#linearGradient-3)">
            <rect id="Rectangle-2" x="0" y="0" width="50" height="50"></rect>
        </g>
    </g>
</svg>