<?xml version="1.0" encoding="UTF-8"?>
<svg width="39px" height="62px" viewBox="0 0 39 62" version="1.1" xmlns="http://www.w3.org/2000/svg" xmlns:xlink="http://www.w3.org/1999/xlink">
    <!-- Generator: Sketch 51.1 (57501) - http://www.bohemiancoding.com/sketch -->
    <title>noun_start up_1605179</title>
    <desc>Created with Sketch.</desc>
    <defs></defs>
    <g id="Web" stroke="none" stroke-width="1" fill="none" fill-rule="evenodd">
        <g id="3.Get-Funded-(view-square)" transform="translate(-987.000000, -756.000000)" fill="#00C57F" fill-rule="nonzero">
            <g id="noun_start-up_1605179" transform="translate(987.000000, 756.000000)">
                <g id="Group">
                    <path d="M19.5,15.6321693 C21.2195856,15.6321693 22.6192128,14.3506441 22.6192128,12.7757999 C22.6192128,11.2009556 21.2195856,9.91942887 19.5,9.91942887 C17.7804144,9.91942887 16.3807871,11.2009541 16.3807871,12.7757999 C16.3807871,14.3506456 17.7804144,15.6321693 19.5,15.6321693 Z M19.5,11.5086287 C20.3470402,11.5086287 21.0364211,12.077032 21.0364211,12.7757999 C21.0364211,13.4745661 20.3470402,14.0429695 19.5,14.0429695 C18.6529598,14.0429695 17.9635789,13.4745661 17.9635789,12.7757999 C17.9635789,12.0770321 18.6529598,11.5086287 19.5,11.5086287 Z" id="Shape"></path>
                    <path d="M19.5007718,45.9775156 C19.6638427,45.9775156 19.8284603,45.9270764 19.9691191,45.8227065 C20.321538,45.5623637 20.3965042,45.0649681 20.1368269,44.7115083 C19.7163969,44.1384478 19.4451276,43.5215456 19.4891799,42.373878 C19.5061834,41.9350625 19.1653565,41.5660863 18.7286979,41.549403 C18.7186495,41.548628 18.7086042,41.548628 18.6977841,41.548628 C18.2750358,41.548628 17.9241635,41.8846264 17.9079348,42.3125749 C17.8553806,43.6716992 18.1413351,44.6711583 18.8631734,45.654323 C19.0177424,45.8657765 19.2580979,45.9775156 19.5007718,45.9775156 Z" id="Shape"></path>
                    <path d="M16.5948655,32.3242046 C16.6860604,32.6737806 17.0006103,32.917437 17.3607562,32.917437 L19.5,32.917437 C19.9374304,32.917437 20.2913959,32.5616525 20.2913959,32.122837 C20.2913959,31.6840247 19.9374303,31.3282371 19.5,31.3282371 L17.9759457,31.3282371 C17.7147217,30.2651503 17.4944599,29.1927492 17.3190222,28.1304373 C16.9395544,25.9010575 16.7471163,23.6445164 16.7471163,21.4228948 C16.7471163,20.9840793 16.3931508,20.6282948 15.9557205,20.6282948 C15.518287,20.6282948 15.1643246,20.9840793 15.1643246,21.4228948 C15.1643246,23.7341416 15.3644927,26.0806971 15.7586456,28.3938828 C15.9734957,29.6982982 16.2548134,31.020564 16.5948655,32.3242046 Z" id="Shape"></path>
                    <path d="M7.07569956,35.1518644 C6.87475969,35.3920291 6.83302571,35.7284134 6.96981951,36.0104811 C7.10274833,36.2847906 7.37942928,36.4578328 7.68161249,36.4578328 C7.69011425,36.4578328 7.6993878,36.4578328 7.70788956,36.4574438 L14.3559251,36.2362902 L14.8335459,40.0870758 C14.8837817,40.4839883 15.2207405,40.7811864 15.6187584,40.7811864 L15.7051243,40.7811864 C15.0668966,45.147803 16.5513927,46.8612087 18.9497313,49.1916098 C19.1027569,49.3405993 19.3013784,49.4150879 19.4999999,49.4150879 C19.6986214,49.4150879 19.8972429,49.3405993 20.0502686,49.1916098 C22.4486071,46.8612086 23.9331032,45.147803 23.2948755,40.7811864 L23.3812414,40.7811864 C23.7792593,40.7811864 24.1162182,40.4839883 24.1664539,40.0870758 L24.6442669,36.2362902 L31.2921103,36.4574438 C31.3006151,36.4578328 31.3098887,36.4578328 31.3183873,36.4578328 C31.6205705,36.4578328 31.8972514,36.2847906 32.0301803,36.0104811 C32.1669773,35.7284135 32.1252402,35.3920292 31.9243034,35.1518644 L26.384529,28.5327833 C26.7664607,26.1800692 26.9657083,23.7908856 26.9657083,21.4228948 C26.9657083,15.1626556 25.6144324,9.61253066 22.8339203,4.45427359 C22.8335824,4.45364339 22.8336289,4.45291522 22.8332911,4.45228502 C22.8311679,4.44835609 22.8287504,4.44452531 22.8266273,4.44059639 L22.7915571,4.37585142 C22.701134,4.20862861 22.6107109,4.0417933 22.5218344,3.88349416 C22.3763931,3.62397913 22.217959,3.36630632 22.0647907,3.10766344 C21.9727745,2.95217674 21.8849115,2.79654541 21.7902856,2.6416889 C21.4726455,2.12202701 21.1445232,1.6059541 20.8014738,1.09967768 C20.8007516,1.09865925 20.799735,1.0978836 20.7990128,1.09686525 C20.7982379,1.09574958 20.7976119,1.09458569 20.796837,1.0934701 C20.5062492,0.663967137 20.0208984,0.407894737 19.5,0.407894737 C18.9791016,0.407894737 18.4937508,0.663967137 18.2023878,1.09385825 C18.2011821,1.09560404 18.2002151,1.09739894 18.1990063,1.09914473 C18.1988637,1.09933848 18.1986685,1.09948393 18.1985259,1.09967768 C17.8584707,1.60154125 17.5329084,2.11295796 17.2180703,2.62762428 C17.1133991,2.79872772 17.0142324,2.97395294 16.9126978,3.14607399 C16.7679818,3.39123342 16.6173273,3.63552157 16.479712,3.88116647 C16.3892889,4.04179338 16.2988658,4.20862869 16.2084427,4.3758515 L16.1667088,4.45267407 C13.3860014,9.61059031 12.0342916,15.16154 12.0342916,21.4228948 C12.0342916,23.7923887 12.2337344,26.1830287 12.615471,28.5327833 L7.07569956,35.1518644 Z M9.42902187,34.8100465 L12.9733014,30.5755401 C13.0381231,30.8952441 13.1172426,31.2085437 13.1883933,31.5256275 C13.2489161,31.7953281 13.3060109,32.0650754 13.3715114,32.3344866 C13.4519822,32.6652445 13.5396034,32.9898966 13.6268403,33.3163381 C13.7125305,33.6386126 13.8001021,33.9601559 13.8927475,34.2812666 C13.9289738,34.4055689 13.9593577,34.5345266 13.9965509,34.6579543 L9.42902187,34.8100465 Z M17.2834716,38.187483 C17.7209051,38.187483 18.0748674,37.8316985 18.0748674,37.3928831 L18.0748674,36.0597564 L18.708604,36.0597564 L18.708604,37.3928831 C18.708604,37.8316985 19.0625696,38.187483 19.4999999,38.187483 C19.9374303,38.187483 20.2913958,37.8316985 20.2913958,37.3928831 L20.2913958,36.0597564 L20.9251324,36.0597564 L20.9251324,37.3928831 C20.9251324,37.8316985 21.2790948,38.187483 21.7165283,38.187483 C22.1539587,38.187483 22.5079242,37.8316985 22.5079242,37.3928831 L22.5079242,36.0597564 L23.0728748,36.0597563 L22.6841338,39.1919866 L22.3556736,39.1919866 L16.6443265,39.1919866 L16.3158663,39.1919866 L15.9263533,36.0597563 L16.4920758,36.0597563 L16.4920758,37.392883 C16.4920757,37.8316985 16.8460412,38.187483 17.2834716,38.187483 Z M19.5,47.5077433 C17.6212084,45.6232778 16.7401612,44.2540707 17.3051118,40.7811865 L21.6948881,40.7811865 C22.2598388,44.2540707 21.3787916,45.6232777 19.5,47.5077433 Z M25.0042207,34.6583433 C25.1284556,34.2436302 25.2367036,33.8215976 25.3496349,33.4016471 C25.405524,33.1964518 25.4662886,32.9911072 25.5186009,32.7868797 C25.7045674,32.0553287 25.8762362,31.318394 26.0266986,30.5755402 L29.5709781,34.8100466 L25.0042207,34.6583433 Z M19.4922235,1.99365193 C19.499033,2.00369047 19.5050707,2.01372973 19.5118337,2.023769 C19.7926679,2.43886798 20.065242,2.8600299 20.328397,3.28473177 C20.4006575,3.40137074 20.4670258,3.5197555 20.5376434,3.63673359 C20.7053542,3.91419395 20.8706444,4.19223622 21.0294163,4.47153887 C20.0611352,4.81883693 18.9406995,4.8184013 17.9707758,4.47139415 C18.4454491,3.63566621 18.9580874,2.80280121 19.4922235,1.99365193 Z M17.2223692,5.88338028 C17.938991,6.17170451 18.7122739,6.32471643 19.5,6.32471643 C20.2876766,6.32471643 21.0608633,6.17165629 21.7774851,5.88342849 C24.1930225,10.614316 25.3829166,15.703269 25.3829166,21.4228948 C25.3829166,23.8272586 25.1757933,26.2560671 24.7677302,28.6429696 C24.6749886,29.1931382 24.5752921,29.7510651 24.4670936,30.2950254 C24.3484594,30.8961156 24.2054356,31.5084587 24.0521218,32.124001 C24.0015482,32.3283281 23.945566,32.5318273 23.8920449,32.7357155 C23.7391184,33.3113932 23.5810222,33.8889132 23.3997885,34.4705565 L21.7242088,34.4705565 C21.721503,34.4705068 21.7192311,34.4690037 21.7165284,34.4690037 C21.7138226,34.4690037 21.7115507,34.4705068 21.708848,34.4705565 L19.5076804,34.4705565 C19.5049746,34.4705067 19.5027058,34.4690036 19.5,34.4690036 C19.4972942,34.4690036 19.4950254,34.4705067 19.4923196,34.4705565 L17.291152,34.4705565 C17.2884493,34.4705067 17.2861774,34.4690036 17.2834716,34.4690036 C17.2807689,34.4690036 17.278497,34.4705067 17.2757912,34.4705565 L15.6007415,34.4705565 C15.557027,34.328214 15.5139416,34.1856258 15.4716281,34.042605 C15.3830895,33.7407482 15.2944051,33.4388478 15.2121924,33.1357773 C15.1769301,33.0063839 15.1444231,32.8758763 15.1102735,32.7459477 C15.0091759,32.3599955 14.9098636,31.9737541 14.8191988,31.5867346 C14.8084747,31.5410007 14.7991547,31.4947815 14.7885763,31.4489512 C14.5724677,30.5137547 14.3851964,29.5765665 14.2314982,28.6418056 C13.8242068,26.2560671 13.6170835,23.8272585 13.6170835,21.4228947 C13.6170833,15.7028317 14.8070767,10.6135893 17.2223692,5.88338028 Z" id="Shape"></path>
                    <path d="M38.9038863,60.5759659 C38.3744892,58.7446594 36.6780844,57.4654636 34.7791991,57.4654636 C34.2312488,57.4654636 33.6902599,57.5717692 33.1855903,57.7731336 C32.6739654,55.9651111 31.0146609,54.6370258 29.0523982,54.6370258 C28.8700054,54.6370258 28.6883874,54.6486646 28.508313,54.6723345 C27.766381,52.0607837 25.3543213,50.1829219 22.5813439,50.1829219 C21.4954918,50.1829219 20.4405566,50.471198 19.5000001,51.0205886 C18.5594436,50.4711979 17.5045084,50.1829219 16.4186562,50.1829219 C13.6456789,50.1829219 11.2336191,52.0607837 10.4916872,54.6723345 C10.3116128,54.6486646 10.1299948,54.6370258 9.94760195,54.6370258 C7.98534238,54.6370258 6.32603782,55.9651111 5.81441299,57.7731336 C5.30974332,57.5717692 4.76874978,57.4654636 4.22079946,57.4654636 C2.32191269,57.4654636 0.625512387,58.7446595 0.0961107062,60.5759659 C0.0265546125,60.8157385 0.073698625,61.0749174 0.222859244,61.2747321 C0.372791494,61.4745467 0.606963662,61.5921053 0.855820875,61.5921053 L38.1441822,61.5921053 C38.3930363,61.5921053 38.6272116,61.4745467 38.7771439,61.2747321 C38.9263015,61.0749174 38.973444,60.8157385 38.9038863,60.5759659 Z M2.16734334,60.0029054 C2.67278635,59.4166563 3.41781148,59.0546634 4.22079929,59.0546634 C4.85762607,59.0546634 5.45503871,59.2692164 5.94888824,59.6754431 C6.20547241,59.8880605 6.57334819,59.9365578 6.8608462,59.7650685 C7.1475755,59.5928011 7.29905142,59.2800835 7.23413364,58.9510715 C7.23413364,57.4487771 8.45136801,56.2262256 9.94760171,56.2262256 C10.2482382,56.2262256 10.548103,56.2774427 10.8386943,56.3787069 C11.0620493,56.4574651 11.3101317,56.4299178 11.5118465,56.3057618 C11.714333,56.18122 11.850352,55.9720943 11.8828124,55.7361992 C12.1911789,53.4761663 14.1410748,51.7721216 16.4186561,51.7721216 C17.3561194,51.7721216 18.2642155,52.0631114 19.0455661,52.6136659 C19.3176072,52.8061114 19.6823928,52.8061114 19.9544339,52.6136659 C20.7357846,52.0631113 21.6438806,51.7721216 22.5813439,51.7721216 C24.8589252,51.7721216 26.808821,53.4761663 27.1171876,55.7361992 C27.149648,55.9720943 27.285667,56.18122 27.4881536,56.3057618 C27.6898683,56.4299178 27.9379507,56.4566933 28.1613057,56.3787069 C28.451897,56.2774427 28.7517618,56.2262256 29.0523983,56.2262256 C30.548632,56.2262256 31.7658664,57.4487771 31.7735964,58.9068377 C31.7086755,59.2358498 31.8562895,59.5706874 32.1430189,59.7429547 C32.429742,59.9156079 32.7937528,59.8888386 33.0511118,59.6754432 C33.5449645,59.2692165 34.1423756,59.0546635 34.7791992,59.0546635 C35.5821902,59.0546635 36.3272153,59.4166564 36.8326598,60.0029054 L2.16734334,60.0029054 Z" id="Shape"></path>
                    <path d="M7.68161249,23.5362688 C8.11904291,23.5362688 8.47300837,23.1804844 8.47300837,22.7416689 L8.47300837,15.7101559 C8.47300837,15.2713404 8.11904283,14.9155544 7.68161249,14.9155544 C7.24417899,14.9155544 6.89021661,15.2713404 6.89021661,15.7101559 L6.89021661,22.7416689 C6.89021661,23.1804844 7.24417899,23.5362688 7.68161249,23.5362688 Z" id="Shape"></path>
                    <path d="M31.3183875,28.4827301 C31.7558179,28.4827301 32.1097865,28.1269456 32.1097865,27.6881302 L32.1097865,20.6566202 C32.1097865,20.2178048 31.7558178,19.8620172 31.3183875,19.8620172 C30.8809572,19.8620172 30.5269916,20.2178048 30.5269916,20.6566202 L30.5269916,27.6881302 C30.5269916,28.1269456 30.8809571,28.4827301 31.3183875,28.4827301 Z" id="Shape"></path>
                    <path d="M10.0040209,39.8046191 L10.0040209,46.8361322 C10.0040209,47.2749476 10.3579833,47.6307352 10.7954168,47.6307352 C11.2328472,47.6307352 11.5868127,47.2749476 11.5868127,46.8361322 L11.5868127,39.8046191 C11.5868127,39.3658037 11.2328471,39.0100192 10.7954168,39.0100192 C10.3579833,39.0100192 10.0040209,39.3658037 10.0040209,39.8046191 Z" id="Shape"></path>
                    <path d="M2.67742312,51.7721216 C3.11485509,51.7721216 3.46881901,51.4163341 3.46881901,50.9775186 L3.46881901,43.9460086 C3.46881901,43.5071932 3.11485501,43.1514056 2.67742312,43.1514056 C2.23999124,43.1514056 1.88602724,43.5071932 1.88602724,43.9460086 L1.88602724,50.9775186 C1.88602724,51.4163341 2.23999116,51.7721216 2.67742312,51.7721216 Z" id="Shape"></path>
                    <path d="M27.4131873,39.8046191 L27.4131873,46.8361322 C27.4131873,47.2749476 27.7671528,47.6307352 28.2045831,47.6307352 C28.6420166,47.6307352 28.995979,47.2749476 28.995979,46.8361322 L28.995979,39.8046191 C28.995979,39.3658037 28.6420166,39.0100192 28.2045831,39.0100192 C27.7671528,39.0100192 27.4131873,39.3658037 27.4131873,39.8046191 Z" id="Shape"></path>
                    <path d="M36.3225784,51.7721216 C36.7600088,51.7721216 37.1139712,51.4163341 37.1139712,50.9775186 L37.1139712,43.9460086 C37.1139712,43.5071932 36.7600088,43.1514056 36.3225784,43.1514056 C35.8851481,43.1514056 35.5311794,43.5071932 35.5311794,43.9460086 L35.5311794,50.9775186 C35.5311794,51.4163341 35.8851481,51.7721216 36.3225784,51.7721216 Z" id="Shape"></path>
                </g>
            </g>
        </g>
    </g>
</svg>